<svg xmlns="http://www.w3.org/2000/svg" viewBox="325 250.99998474121094 350 497"><g mask="url(#__lottie_element_29)"><g style="display: none;"><g><path/></g><g><path stroke-linecap="round" stroke-linejoin="miter" fill-opacity="0" stroke-miterlimit="4"/></g><g><path/></g><g><path/></g></g><g transform="matrix(-25,0,0,25,800,173)" opacity="1" style="display: block;"><g opacity="1" transform="matrix(1,0,0,1,12,8.5)"><path fill="rgb(88,101,242)" fill-opacity="1" d=" M-4,-1.3799999952316284 C-4,-3.5889999866485596 -2.2090001106262207,-5.380000114440918 0,-5.380000114440918 C2.2090001106262207,-5.380000114440918 4,-3.5889999866485596 4,-1.3799999952316284 C4,-1.3799999952316284 4,2.509999990463257 4,2.509999990463257 C4,4.718999862670898 2.2090001106262207,6.5 0,6.5 C-2.2090001106262207,6.5 -4,4.718999862670898 -4,2.509999990463257 C-4,2.509999990463257 -4,-1.3799999952316284 -4,-1.3799999952316284z"/></g><g opacity="1" transform="matrix(1,0,0,1,12,14)"><path stroke-linecap="round" stroke-linejoin="miter" fill-opacity="0" stroke-miterlimit="4" stroke="rgb(88,101,242)" stroke-opacity="1" stroke-width="2" d=" M-7,-2.990000009536743 C-7,0.8759999871253967 -3.865999937057495,4.010000228881836 0,4.010000228881836 C3.865999937057495,4.010000228881836 7,0.8759999871253967 7,-2.990000009536743"/></g><g opacity="1" transform="matrix(1,0,0,1,12,20)"><path fill="rgb(88,101,242)" fill-opacity="1" d=" M-1,-2 C-1,-2.2760000228881836 -0.7760000228881836,-2.5 -0.5,-2.5 C-0.5,-2.5 0.5,-2.5 0.5,-2.5 C0.7760000228881836,-2.5 1,-2.2760000228881836 1,-2 C1,-2 1,2 1,2 C1,2.2760000228881836 0.7760000228881836,2.5 0.5,2.5 C0.5,2.5 -0.5,2.5 -0.5,2.5 C-0.7760000228881836,2.5 -1,2.2760000228881836 -1,2 C-1,2 -1,-2 -1,-2z"/></g><g opacity="1" transform="matrix(1,0,0,1,12,22)"><path fill="rgb(88,101,242)" fill-opacity="1" d=" M3,-1 C3.552000045776367,-1 4,-0.5519999861717224 4,0 C4,0.5519999861717224 3.552000045776367,1 3,1 C3,1 -3,1 -3,1 C-3.552000045776367,1 -4,0.5519999861717224 -4,0 C-4,-0.5519999861717224 -3.552000045776367,-1 -3,-1 C-3,-1 3,-1 3,-1z"/></g></g></g></svg>