<svg xmlns="http://www.w3.org/2000/svg" xmlns:xlink="http://www.w3.org/1999/xlink" viewBox="0 0 24 24" width="24" height="24" preserveAspectRatio="xMidYMid meet" style="width: 100%; height: 100%; transform: translate3d(0px, 0px, 0px); content-visibility: visible;"><defs><clipPath id="__lottie_element_5"><rect width="24" height="24" x="0" y="0"/></clipPath><clipPath id="__lottie_element_7"><path d="M0,0 L600,0 L600,600 L0,600z"/></clipPath><clipPath id="__lottie_element_11"><path d="M0,0 L1000,0 L1000,1000 L0,1000z"/></clipPath><clipPath id="__lottie_element_18"><path d="M0,0 L1000,0 L1000,1000 L0,1000z"/></clipPath><clipPath id="__lottie_element_28"><path d="M0,0 L1000,0 L1000,1000 L0,1000z"/></clipPath><mask id="__lottie_element_29"><rect fill="#ffffff" width="600" height="600" transform="matrix(1,0,0,1,200,200)"/><path fill="#000000" clip-rule="nonzero" d=" M681.219970703125,212.79600524902344 C681.219970703125,212.79600524902344 299.6969909667969,597.75 299.6969909667969,597.75 C299.6969909667969,597.75 235.75999450683594,665.2319946289062 285.1369934082031,714.8619995117188 C339,769 403.67999267578125,701.0560302734375 403.67999267578125,701.0560302734375 C403.67999267578125,701.0560302734375 785.2030029296875,316.10198974609375 785.2030029296875,316.10198974609375 C785.2030029296875,316.10198974609375 868,234 816.2150268554688,184.4459991455078 C764.781005859375,135.22799682617188 681.219970703125,212.79600524902344 681.219970703125,212.79600524902344" fill-opacity="1"/><path fill="#ffffff" clip-rule="nonzero" d=" M698,405 C698,405 642,405 642,405 C642,405 642,479 642,479 C642,479 698,479 698,479 C698,479 698,405 698,405" fill-opacity="1"/></mask></defs><g clip-path="url(#__lottie_element_5)"><g clip-path="url(#__lottie_element_7)" transform="matrix(0.03999999910593033,0,0,0.03999999910593033,0,0)" opacity="1" style="display: block;"><g clip-path="url(#__lottie_element_28)" transform="matrix(1,0,0,1,-200,-200)" opacity="1" style="display: block;"><g mask="url(#__lottie_element_29)"><g style="display: none;"><g><path/></g><g><path stroke-linecap="round" stroke-linejoin="miter" fill-opacity="0" stroke-miterlimit="4"/></g><g><path/></g><g><path/></g></g><g transform="matrix(-25,0,0,25,800,173)" opacity="1" style="display: block;"><g opacity="1" transform="matrix(1,0,0,1,12,8.5)"><path fill="rgb(88,101,242)" fill-opacity="1" d=" M-4,-1.3799999952316284 C-4,-3.5889999866485596 -2.2090001106262207,-5.380000114440918 0,-5.380000114440918 C2.2090001106262207,-5.380000114440918 4,-3.5889999866485596 4,-1.3799999952316284 C4,-1.3799999952316284 4,2.509999990463257 4,2.509999990463257 C4,4.718999862670898 2.2090001106262207,6.5 0,6.5 C-2.2090001106262207,6.5 -4,4.718999862670898 -4,2.509999990463257 C-4,2.509999990463257 -4,-1.3799999952316284 -4,-1.3799999952316284z"/></g><g opacity="1" transform="matrix(1,0,0,1,12,14)"><path stroke-linecap="round" stroke-linejoin="miter" fill-opacity="0" stroke-miterlimit="4" stroke="rgb(88,101,242)" stroke-opacity="1" stroke-width="2" d=" M-7,-2.990000009536743 C-7,0.8759999871253967 -3.865999937057495,4.010000228881836 0,4.010000228881836 C3.865999937057495,4.010000228881836 7,0.8759999871253967 7,-2.990000009536743"/></g><g opacity="1" transform="matrix(1,0,0,1,12,20)"><path fill="rgb(88,101,242)" fill-opacity="1" d=" M-1,-2 C-1,-2.2760000228881836 -0.7760000228881836,-2.5 -0.5,-2.5 C-0.5,-2.5 0.5,-2.5 0.5,-2.5 C0.7760000228881836,-2.5 1,-2.2760000228881836 1,-2 C1,-2 1,2 1,2 C1,2.2760000228881836 0.7760000228881836,2.5 0.5,2.5 C0.5,2.5 -0.5,2.5 -0.5,2.5 C-0.7760000228881836,2.5 -1,2.2760000228881836 -1,2 C-1,2 -1,-2 -1,-2z"/></g><g opacity="1" transform="matrix(1,0,0,1,12,22)"><path fill="rgb(88,101,242)" fill-opacity="1" d=" M3,-1 C3.552000045776367,-1 4,-0.5519999861717224 4,0 C4,0.5519999861717224 3.552000045776367,1 3,1 C3,1 -3,1 -3,1 C-3.552000045776367,1 -4,0.5519999861717224 -4,0 C-4,-0.5519999861717224 -3.552000045776367,-1 -3,-1 C-3,-1 3,-1 3,-1z"/></g></g></g></g><g clip-path="url(#__lottie_element_18)" transform="matrix(1,0,0,1,-200,-200)" opacity="1" style="display: block;"><g transform="matrix(25,0,0,25,200,200)" opacity="1" style="display: block;"><g opacity="1" transform="matrix(1,0,0,1,12,12)"><path stroke-linecap="round" stroke-linejoin="miter" fill-opacity="0" stroke-miterlimit="4" stroke="rgb(88,101,242)" stroke-opacity="1" stroke-width="2" d=" M-10,10 C-10,10 10,-10 10,-10"/></g></g><g style="display: none;"><g><path stroke-linecap="round" stroke-linejoin="miter" fill-opacity="0" stroke-miterlimit="4"/></g></g></g><g clip-path="url(#__lottie_element_11)" style="display: none;"><g style="display: none;"><g><path stroke-linecap="round" stroke-linejoin="miter" fill-opacity="0" stroke-miterlimit="4"/></g></g></g></g></g></svg>