<svg xmlns="http://www.w3.org/2000/svg" xmlns:xlink="http://www.w3.org/1999/xlink" viewBox="0 0 24 24" width="24" height="24" preserveAspectRatio="xMidYMid meet" style="width: 100%; height: 100%; transform: translate3d(0px, 0px, 0px); content-visibility: visible;"><defs><clipPath id="__lottie_element_42"><rect width="24" height="24" x="0" y="0"/></clipPath><clipPath id="__lottie_element_44"><path d="M0,0 L600,0 L600,600 L0,600z"/></clipPath><clipPath id="__lottie_element_51"><path d="M0,0 L1000,0 L1000,1000 L0,1000z"/></clipPath><clipPath id="__lottie_element_61"><path d="M0,0 L1000,0 L1000,1000 L0,1000z"/></clipPath><mask id="__lottie_element_62"><rect fill="#ffffff" width="600" height="600"/><path fill="#000000" clip-rule="nonzero"/></mask><clipPath id="__lottie_element_65"><path d="M0,0 L1000,0 L1000,1000 L0,1000z"/></clipPath><path/><clipPath id="__lottie_element_72"><path d="M0,0 L1000,0 L1000,1000 L0,1000z"/></clipPath><path/><clipPath id="__lottie_element_79"><path d="M0,0 L1000,0 L1000,1000 L0,1000z"/></clipPath><mask id="__lottie_element_80"><rect fill="#ffffff" width="600" height="600" transform="matrix(0.9615384936332703,0,0,0.9615384936332703,211.53846740722656,211.53846740722656)"/><path fill="#000000" clip-rule="nonzero" d=" M67.22000122070312,823.7960205078125 C67.22000122070312,823.7960205078125 -126.3030014038086,1017.75 -126.3030014038086,1017.75 C-126.3030014038086,1017.75 -76.63800048828125,1067.092041015625 -76.63800048828125,1067.092041015625 C-76.63800048828125,1067.092041015625 -22.31999969482422,1121.0560302734375 -22.31999969482422,1121.0560302734375 C-22.31999969482422,1121.0560302734375 171.2030029296875,927.1019897460938 171.2030029296875,927.1019897460938 C171.2030029296875,927.1019897460938 239.677001953125,860.3419799804688 186.88099670410156,810.114013671875 C130,756 67.22000122070312,823.7960205078125 67.22000122070312,823.7960205078125" fill-opacity="1"/></mask><clipPath id="__lottie_element_83"><path d="M0,0 L1000,0 L1000,1000 L0,1000z"/></clipPath><path/><clipPath id="__lottie_element_90"><path d="M0,0 L1000,0 L1000,1000 L0,1000z"/></clipPath><path d=" M0.5009999871253967,-0.10000000149011612 C0.5009999871253967,-0.10000000149011612 -0.09300000220537186,-0.10000000149011612 -0.09300000220537186,-0.10000000149011612 C-0.09300000220537186,-0.10000000149011612 -0.09300000220537186,1.0759999752044678 -0.09300000220537186,1.0759999752044678 C-0.09300000220537186,1.0759999752044678 0.5009999871253967,1.0759999752044678 0.5009999871253967,1.0759999752044678 C0.5009999871253967,1.0759999752044678 0.5009999871253967,-0.10000000149011612 0.5009999871253967,-0.10000000149011612" fill-opacity="1"/></defs><g clip-path="url(#__lottie_element_42)"><g clip-path="url(#__lottie_element_44)" transform="matrix(0.03999999910593033,0,0,0.03999999910593033,0,0)" opacity="1" style="display: block;"><g clip-path="url(#__lottie_element_79)" transform="matrix(1.0399999618530273,0,0,1.0399999618530273,-220,-220)" opacity="1" style="display: block;"><g mask="url(#__lottie_element_80)"><g clip-path="url(#__lottie_element_90)" transform="matrix(1,0,0,1,0,0)" opacity="1" style="display: block;"><g transform="matrix(25,0,0,25,200,200)" opacity="1" style="display: block;"><g opacity="1" transform="matrix(1,0,0,1,12,12.288000106811523)"><path fill="rgb(88,101,242)" fill-opacity="1" d=" M-8,-0.2879999876022339 C-8,-4.705999851226807 -4.418000221252441,-8.288000106811523 0,-8.288000106811523 C4.418000221252441,-8.288000106811523 8,-4.705999851226807 8,-0.2879999876022339 C8,0.4050000011920929 7.953999996185303,1.0720000267028809 7.854000091552734,1.7120000123977661 C7.854000091552734,1.7120000123977661 6,1.7120000123977661 6,1.7120000123977661 C5.056000232696533,1.7120000123977661 4.166999816894531,2.1570000648498535 3.5999999046325684,2.9119999408721924 C3.5999999046325684,2.9119999408721924 1.6269999742507935,5.541999816894531 1.6269999742507935,5.541999816894531 C1.1579999923706055,6.168000221252441 1.0360000133514404,6.98799991607666 1.3040000200271606,7.7230000495910645 C1.8890000581741333,9.331999778747559 3.88700008392334,10.288000106811523 5.48199987411499,9.131999969482422 C8.83899974822998,6.701000213623047 10,3.380000114440918 10,-0.2879999876022339 C10,-5.810999870300293 5.5229997634887695,-10.288000106811523 0,-10.288000106811523 C-5.5229997634887695,-10.288000106811523 -10,-5.810999870300293 -10,-0.2879999876022339 C-10,3.380000114440918 -8.83899974822998,6.701000213623047 -5.48199987411499,9.131999969482422 C-3.88700008392334,10.288000106811523 -1.8890000581741333,9.331999778747559 -1.3040000200271606,7.7230000495910645 C-1.0360000133514404,6.98799991607666 -1.1579999923706055,6.168000221252441 -1.6269999742507935,5.541999816894531 C-1.6269999742507935,5.541999816894531 -3.5999999046325684,2.9119999408721924 -3.5999999046325684,2.9119999408721924 C-4.166999816894531,2.1570000648498535 -5.056000232696533,1.7120000123977661 -6,1.7120000123977661 C-6,1.7120000123977661 -7.854000091552734,1.7120000123977661 -7.854000091552734,1.7120000123977661 C-7.953999996185303,1.0720000267028809 -8,0.4050000011920929 -8,-0.2879999876022339z"/></g></g></g><g clip-path="url(#__lottie_element_83)" style="display: none;"><g style="display: none;"><g><path/></g></g></g></g></g><g clip-path="url(#__lottie_element_61)" style="display: none;"><g mask="url(#__lottie_element_62)"><g clip-path="url(#__lottie_element_72)" style="display: none;"><g style="display: none;"><g><path/></g></g></g><g clip-path="url(#__lottie_element_65)" style="display: none;"><g style="display: none;"><g><path/></g></g></g></g></g><g clip-path="url(#__lottie_element_51)" transform="matrix(1,0,0,1,-200,-200)" opacity="1" style="display: block;"><g style="display: none;"><g><path stroke-linecap="round" stroke-linejoin="miter" fill-opacity="0" stroke-miterlimit="4"/></g></g><g style="display: none;"><g><path stroke-linecap="round" stroke-linejoin="miter" fill-opacity="0" stroke-miterlimit="4"/></g></g></g><g style="display: none;"><g><path stroke-linecap="round" stroke-linejoin="miter" fill-opacity="0" stroke-miterlimit="4"/></g></g></g></g></svg>