<svg xmlns="http://www.w3.org/2000/svg" viewBox="0 0 20 20"><path fill="white" d="M7.813 9.375c.517 0 .937.42.937.938v1.874a.937.937 0 1 1-1.875 0v-1.874c0-.518.42-.938.938-.938m5.312.938a.937.937 0 1 0-1.875 0v1.874a.937.937 0 1 0 1.875 0z"/><path fill="white" fill-rule="evenodd" d="M10.625 4.245a1.563 1.563 0 1 0-1.25 0v1.068h-3.75a2.813 2.813 0 0 0-2.812 2.812v1.594a1.563 1.563 0 0 0 0 3.062v1.594a2.813 2.813 0 0 0 2.812 2.813h8.75a2.813 2.813 0 0 0 2.813-2.813v-1.594a1.563 1.563 0 0 0 0-3.062V8.125a2.813 2.813 0 0 0-2.813-2.812h-3.75zm4.688 3.88v6.25c0 .518-.42.938-.938.938h-8.75a.937.937 0 0 1-.937-.938v-6.25c0-.518.42-.937.937-.937h8.75c.518 0 .938.42.938.937" clip-rule="evenodd"/></svg>