<svg xmlns="http://www.w3.org/2000/svg" viewBox="0 0 20 20"><path fill="white" d="M5 4.688A.31.31 0 0 0 4.688 5v10c0 .173.14.313.312.313h8.75v1.874H5A2.19 2.19 0 0 1 2.813 15V5c0-1.208.979-2.187 2.187-2.187h7.5c1.208 0 2.188.979 2.188 2.187v1.25h-1.876V5a.31.31 0 0 0-.312-.312z"/><path fill="white" d="m9.337 5.587-2.5 2.5a.937.937 0 0 0 0 1.326l2.5 2.5 1.326-1.326-.9-.9h3.987V7.814H9.763l.9-.9zm8.826 7.576a.937.937 0 0 0 0-1.326l-2.5-2.5-1.326 1.326.9.9H11.25v1.875h3.987l-.9.9 1.326 1.325z"/></svg>