<svg xmlns="http://www.w3.org/2000/svg" viewBox="0 0 20 20"><path fill="white" fill-rule="evenodd" d="M15 8.438a3.44 3.44 0 0 1-3.308-2.5H7.263l6.061 6.06a3.437 3.437 0 1 1-1.326 1.326l-6.06-6.06v4.428A3.439 3.439 0 0 1 5 18.438a3.437 3.437 0 0 1-.937-6.746V6.977a2.188 2.188 0 1 1 2.914-2.915h4.715A3.439 3.439 0 0 1 18.438 5 3.437 3.437 0 0 1 15 8.438m0-5a1.563 1.563 0 1 0 0 3.125 1.563 1.563 0 0 0 0-3.125m-10 10a1.563 1.563 0 1 0 0 3.125 1.563 1.563 0 0 0 0-3.125M13.438 15a1.563 1.563 0 1 1 3.125 0 1.563 1.563 0 0 1-3.125 0" clip-rule="evenodd"/></svg>