<svg xmlns="http://www.w3.org/2000/svg" viewBox="0 0 20 20"><path fill="white" d="M17.85 5.468A9.06 9.06 0 0 0 10 .938v1.875a7.19 7.19 0 0 1 6.226 3.593zm-2.978 1.719A5.62 5.62 0 0 0 10 4.375V6.25c1.388 0 2.6.754 3.248 1.875zM2.813 10c0-1.31.35-2.537.961-3.594L2.15 5.468A9 9 0 0 0 .938 10a9 9 0 0 0 1.212 4.532l1.624-.938A7.15 7.15 0 0 1 2.813 10m1.562 0a5.6 5.6 0 0 1 .753-2.813l1.624.938A3.73 3.73 0 0 0 6.25 10c0 .683.183 1.324.502 1.875l-1.624.938A5.6 5.6 0 0 1 4.375 10M10 12.188a2.188 2.188 0 1 0 0-4.376 2.188 2.188 0 0 0 0 4.376m4.872.625A5.62 5.62 0 0 1 10 15.625V13.75c1.388 0 2.6-.754 3.248-1.874zM10 19.063v-1.875a7.19 7.19 0 0 0 6.226-3.593l1.624.937a9.06 9.06 0 0 1-7.85 4.53"/></svg>