<svg xmlns="http://www.w3.org/2000/svg" viewBox="0 0 20 20"><path fill="white" d="M3.958 2.813a1.04 1.04 0 0 0-.817.406 1.4 1.4 0 0 0-.22.418 2.39 2.39 0 0 0-.108.738v11.25c0 .245.031.506.109.738.037.112.101.27.219.418.109.139.378.407.817.407h1.98v-1.875h-1.25V4.688h1.25V2.813zm12.084 0c.439 0 .708.267.817.406.117.149.182.306.22.418.077.232.108.493.108.738v11.25c0 .245-.031.506-.109.738a1.4 1.4 0 0 1-.219.418 1.04 1.04 0 0 1-.817.407h-1.98v-1.875h1.25V4.688h-1.25V2.813zM10 8.31l1.72-2.58 1.56 1.04L11.127 10l2.153 3.23-1.56 1.04L10 11.69l-1.72 2.58-1.56-1.04L8.873 10 6.72 6.77l1.56-1.04z"/></svg>