<svg xmlns="http://www.w3.org/2000/svg" viewBox="0 0 20 20"><path fill="white" d="M7.341 5.626a2.659 2.659 0 1 1 5.158.912l1.467.536A4.221 4.221 0 1 0 7.263 8.84l-2.27 3.974a1.563 1.563 0 1 0 1.357.775l3.008-5.265-.677-.388a2.66 2.66 0 0 1-1.34-2.31"/><path fill="white" d="M11.35 6.414a1.563 1.563 0 1 0-1.357.775l3.01 5.269.68-.389a2.656 2.656 0 1 1-.718 4.014l-1.197 1.004a4.219 4.219 0 1 0 1.853-6.7z"/><path fill="white" d="M16.563 14.376a1.562 1.562 0 0 1-2.916.782h-4.5a4.22 4.22 0 1 1-4.874-4.938l.268 1.54a2.657 2.657 0 1 0 3.115 2.616v-.781h5.99a1.562 1.562 0 0 1 2.916.781"/></svg>