<svg class=" HHjeWe c-qd a-s-fa-Ha-pa" width="16px" height="16px" viewBox="0 0 16 16" focusable="false" fill=""><path d="M5,7 C6.11,7 7,6.1 7,5 C7,3.9 6.11,3 5,3 C3.9,3 3,3.9 3,5 C3,6.1 3.9,7 5,7 L5,7 Z M11,7 C12.11,7 13,6.1 13,5 C13,3.9 12.11,3 11,3 C9.89,3 9,3.9 9,5 C9,6.1 9.9,7 11,7 L11,7 Z M5,8.2 C3.33,8.2 0,9.03 0,10.7 L0,12 L10,12 L10,10.7 C10,9.03 6.67,8.2 5,8.2 L5,8.2 Z M11,8.2 C10.75,8.2 10.46,8.22 10.16,8.26 C10.95,8.86 11.5,9.66 11.5,10.7 L11.5,12 L16,12 L16,10.7 C16,9.03 12.67,8.2 11,8.2 L11,8.2 Z"/></svg>