<svg class=" c-qd" width="24px" height="24px" viewBox="0 0 24 24" fill="#000000" focusable="false"><path d="M9.05 15H15q.275 0 .5-.137.225-.138.35-.363l1.1-1.9q.125-.225.1-.5-.025-.275-.15-.5l-2.95-5.1q-.125-.225-.35-.363Q13.375 6 13.1 6h-2.2q-.275 0-.5.137-.225.138-.35.363L7.1 11.6q-.125.225-.125.5t.125.5l1.05 1.9q.125.25.375.375T9.05 15Zm1.2-3L12 9l1.75 3ZM3 17V4q0-.825.587-1.413Q4.175 2 5 2h14q.825 0 1.413.587Q21 3.175 21 4v13Zm2 5q-.825 0-1.413-.587Q3 20.825 3 20v-1h18v1q0 .825-.587 1.413Q19.825 22 19 22Z"/></svg>