<svg class="c-qd  a-s-fa-Ha-pa" width="24px" height="24px" viewBox="0 0 24 24" fill="#000000" focusable="false"><path d="M8.25 21.0 3.0 15.75V8.25L8.25 3.0H15.75L21.0 8.25V15.75L15.75 21.0ZM12.0 17.0Q12.425 17.0 12.7125 16.7125Q13.0 16.425 13.0 16.0Q13.0 15.575 12.7125 15.2875Q12.425 15.0 12.0 15.0Q11.575 15.0 11.2875 15.2875Q11.0 15.575 11.0 16.0Q11.0 16.425 11.2875 16.7125Q11.575 17.0 12.0 17.0ZM11.0 13.0H13.0V7.0H11.0ZM9.1 19.0H14.9L19.0 14.9V9.1L14.9 5.0H9.1L5.0 9.1V14.9ZM12.0 12.0Z"/></svg>