<svg xmlns="http://www.w3.org/2000/svg" viewBox="8.444339752197266 4 7.11106014251709 7.109999656677246"><g mask="url(#mask1_210_34)"><path d="M15.0834 9.33C15.0261 9.42949 14.964 9.52593 14.8976 9.61901C14.6109 10.0206 14.2426 10.3599 13.8167 10.6129C13.285 10.9287 12.6637 11.11 11.9999 11.11C11.3361 11.11 10.7147 10.9287 10.183 10.6129C9.75719 10.3599 9.38885 10.0206 9.10219 9.61901C9.03575 9.52593 8.97369 9.42949 8.91633 9.33C8.61608 8.80927 8.44434 8.20499 8.44434 7.56C8.44434 7.36964 8.4593 7.18272 8.48811 7.00038C8.75647 5.30182 10.2266 4 11.9999 4C13.7732 4 15.2433 5.30182 15.5117 7.00038C15.5405 7.18272 15.5554 7.36964 15.5554 7.56C15.5554 8.20499 15.3837 8.80927 15.0834 9.33Z" fill="currentColor"/></g></svg>