<svg xmlns="http://www.w3.org/2000/svg" viewBox="6.301340103149414 13.500100135803223 11.881759643554688 5.172799110412598"><g mask="url(#mask0_210_34)"><path d="M7.56768 14.4719L7.56768 14.4719C7.59198 14.4558 7.61659 14.4401 7.64147 14.4248L7.64147 14.4248C7.98806 14.2115 8.4022 14.0641 8.80649 13.9471C9.14887 13.8479 9.55891 13.7481 10.0261 13.6679C10.6043 13.5688 11.2688 13.5001 12 13.5001C12.7313 13.5001 13.3957 13.5688 13.974 13.6679C14.4411 13.7481 14.8512 13.8479 15.1936 13.9471C15.5979 14.0641 16.012 14.2115 16.3586 14.4248L16.3586 14.4248C16.3835 14.4401 16.4081 14.4558 16.4324 14.4719L16.9811 13.6446L16.4324 14.4719C16.6396 14.6094 16.8159 14.771 16.9454 14.9609L17.7717 14.3977L16.9454 14.9609C17.0104 15.0564 17.0656 15.1617 17.1079 15.2797C17.1457 15.3851 17.1751 15.5004 17.1922 15.6261L18.1831 15.4918L17.1922 15.6262C17.2383 15.9667 17.2217 16.8608 17.2057 17.4042C17.2034 17.4827 17.1757 17.6012 17.1088 17.7266L17.9911 18.1973L17.1088 17.7266C17.0607 17.8168 17.0035 17.8893 16.9499 17.9389L17.6291 18.6729L16.9499 17.9389C16.9101 17.9757 16.8804 17.9925 16.8663 17.9989C16.8653 17.9993 16.8644 17.9997 16.8637 18H7.1364C7.13563 17.9997 7.13475 17.9993 7.13377 17.9989C7.11966 17.9925 7.08998 17.9757 7.05017 17.9389C6.99657 17.8893 6.93934 17.8168 6.89125 17.7266C6.82433 17.6012 6.79665 17.4827 6.79434 17.4042C6.77841 16.8608 6.76173 15.9667 6.8079 15.6262C6.82495 15.5004 6.85436 15.3851 6.89215 15.2797C6.93448 15.1617 6.98966 15.0564 7.05471 14.9609L6.30134 14.4474L7.05471 14.9609C7.18421 14.771 7.36045 14.6094 7.56768 14.4719Z" stroke="currentColor" stroke-width="2"/></g></svg>