<svg role="none" xmlns="http://www.w3.org/2000/svg" id="hue-web-icons-sprite" style="display: none;"><svg xmlns="http://www.w3.org/2000/svg" viewBox="0 0 24 24" id="close-medium" aria-hidden="true" role="none" data-supported-dps="24x24" fill="currentColor"><path d="M13.42 12L20 18.58 18.58 20 12 13.42 5.42 20 4 18.58 10.58 12 4 5.42 5.42 4 12 10.58 18.58 4 20 5.42z"/></svg><svg xmlns="http://www.w3.org/2000/svg" viewBox="0 0 16 16" id="search-small" aria-hidden="true" role="none" data-supported-dps="16x16" fill="currentColor"><path d="M14.56 12.44L11.3 9.18a5.51 5.51 0 10-2.12 2.12l3.26 3.26a1.5 1.5 0 102.12-2.12zM3 6.5A3.5 3.5 0 116.5 10 3.5 3.5 0 013 6.5z"/></svg><svg xmlns="http://www.w3.org/2000/svg" viewBox="0 0 24 24" id="search-medium" aria-hidden="true" role="none" data-supported-dps="24x24" fill="currentColor"><path d="M21.41 18.59l-5.27-5.28A6.83 6.83 0 0017 10a7 7 0 10-7 7 6.83 6.83 0 003.31-.86l5.28 5.27a2 2 0 002.82-2.82zM5 10a5 5 0 115 5 5 5 0 01-5-5z"/></svg><svg xmlns="http://www.w3.org/2000/svg" viewBox="0 0 16 16" id="caret-small" aria-hidden="true" role="none" data-supported-dps="16x16" fill="currentColor"><path d="M8 11L3 6h10z" fill-rule="evenodd"/></svg><svg xmlns="http://www.w3.org/2000/svg" viewBox="0 0 24 24" id="overflow-web-ios-medium" aria-hidden="true" role="none" data-supported-dps="24x24" fill="currentColor"><path d="M14 12a2 2 0 11-2-2 2 2 0 012 2zM4 10a2 2 0 102 2 2 2 0 00-2-2zm16 0a2 2 0 102 2 2 2 0 00-2-2z"/></svg><svg xmlns="http://www.w3.org/2000/svg" viewBox="0 0 16 16" id="edit-small" aria-hidden="true" role="none" data-supported-dps="16x16" fill="currentColor"><path d="M14.13 1.86a3 3 0 00-4.17 0l-7 7L1 15l6.19-2 6.94-7a3 3 0 000-4.16zm-8.36 9.71l-1.35-1.34L9.64 5 11 6.35z"/></svg><svg xmlns="http://www.w3.org/2000/svg" viewBox="0 0 24 24" id="edit-medium" aria-hidden="true" role="none" data-supported-dps="24x24" fill="currentColor"><path d="M21.13 2.86a3 3 0 00-4.17 0l-13 13L2 22l6.19-2L21.13 7a3 3 0 000-4.16zM6.77 18.57l-1.35-1.34L16.64 6 18 7.35z"/></svg><svg xmlns="http://www.w3.org/2000/svg" viewBox="0 0 16 16" id="overflow-web-ios-small" aria-hidden="true" role="none" data-supported-dps="16x16" fill="currentColor"><path d="M3 9.5A1.5 1.5 0 114.5 8 1.5 1.5 0 013 9.5zM11.5 8A1.5 1.5 0 1013 6.5 1.5 1.5 0 0011.5 8zm-5 0A1.5 1.5 0 108 6.5 1.5 1.5 0 006.5 8z"/></svg><svg xmlns="http://www.w3.org/2000/svg" viewBox="0 0 16 16" id="compose-small" aria-hidden="true" role="none" data-supported-dps="16x16" fill="currentColor"><path d="M15 2.53a1.51 1.51 0 01-.44 1L9.15 9 6 10l1-3.12 5.44-5.44A1.5 1.5 0 0115 2.53zM12 11a1 1 0 01-1 1H5a1 1 0 01-1-1V5a1 1 0 011-1h3V2H5a3 3 0 00-3 3v6a3 3 0 003 3h6a3 3 0 003-3V8h-2z"/></svg><svg xmlns="http://www.w3.org/2000/svg" viewBox="0 0 16 16" id="chevron-up-small" aria-hidden="true" role="none" data-supported-dps="16x16" fill="currentColor"><path d="M15 11L8 6.39 1 11V8.61L8 4l7 4.61z"/></svg><svg xmlns="http://www.w3.org/2000/svg" viewBox="0 0 24 24" class="rtl-flip" id="share-linkedin-medium" aria-hidden="true" role="none" data-supported-dps="24x24" fill="currentColor"><path d="M23 12l-4.61 7H16l4-6H8a3.92 3.92 0 00-4 3.84V17a4 4 0 00.19 1.24L5.12 21H3l-.73-2.22A6.4 6.4 0 012 16.94 6 6 0 018 11h12l-4-6h2.39z"/></svg><svg xmlns="http://www.w3.org/2000/svg" viewBox="0 0 24 24" id="download-medium" aria-hidden="true" role="none" data-supported-dps="24x24" fill="currentColor"><path d="M21 14v5a3 3 0 01-3 3H6a3 3 0 01-3-3v-5h2v5a1 1 0 001 1h12a1 1 0 001-1v-5zm-4-.57V11l-4 2.85V3h-2v10.85L7 11v2.43L12 17z"/></svg><svg xmlns="http://www.w3.org/2000/svg" viewBox="0 0 24 24" id="person-medium" aria-hidden="true" role="none" data-supported-dps="24x24" fill="currentColor"><path d="M7 7a5 5 0 115 5 5 5 0 01-5-5zm7 7h-4a3 3 0 00-3 3v5h10v-5a3 3 0 00-3-3z"/></svg><svg xmlns="http://www.w3.org/2000/svg" viewBox="0 0 24 24" id="bookmark-fill-medium" aria-hidden="true" role="none" data-supported-dps="24x24" fill="currentColor"><path d="M19 5a3 3 0 00-3-3H5v20l7-6.29L19 22z"/></svg><svg xmlns="http://www.w3.org/2000/svg" viewBox="0 0 24 24" id="newspaper-medium" aria-hidden="true" role="none" data-supported-dps="24x24" fill="currentColor"><path d="M13 13h5v1h-5zm5-5H6v3h12zm-5 8h5v-1h-5zm9-12v13a3 3 0 01-3 3H5a3 3 0 01-3-3V4zm-2 2H4v11a1 1 0 001 1h14a1 1 0 001-1zm-9 7H6v3h5z"/></svg><svg xmlns="http://www.w3.org/2000/svg" viewBox="0 0 24 24" id="signal-notice-medium" aria-hidden="true" role="none" data-supported-dps="24x24" fill="currentColor"><path d="M18 3H6a3 3 0 00-3 3v12a3 3 0 003 3h12a3 3 0 003-3V6a3 3 0 00-3-3zm-4 15h-1a3 3 0 01-3-3 3.22 3.22 0 01.1-.75L11.2 10h2.07L12 14.75A1 1 0 0013 16h1zm-1-9.75A1.25 1.25 0 1114.25 7 1.25 1.25 0 0113 8.25z"/></svg><svg xmlns="http://www.w3.org/2000/svg" viewBox="0 0 16 16" id="verified-small" aria-hidden="true" role="none" data-supported-dps="16x16" fill="currentColor"><path d="M8 15l-.86-.29C3.24 13.41 1 10.62 1 7V2.49L8 0l7 2.49V7c0 3.62-2.23 6.41-6.13 7.71L8 15zM3 3.9V7c0 3.53 2.6 5.09 4.78 5.82l.23.08.23-.08C10.01 12.23 13 10.71 13 7V3.9L8 2.11 3 3.9zM9.43 5L7.01 8.02l-1.1-1.1L4.5 8.34l2.67 2.67 4.83-6H9.43z"/></svg><svg xmlns="http://www.w3.org/2000/svg" viewBox="0 0 16 16" class="rtl-flip" id="chevron-left-small" aria-hidden="true" role="none" data-supported-dps="16x16" fill="currentColor"><path d="M11 1L6.39 8 11 15H8.61L4 8l4.61-7z"/></svg><svg xmlns="http://www.w3.org/2000/svg" viewBox="0 0 16 16" class="rtl-flip" id="chevron-right-small" aria-hidden="true" role="none" data-supported-dps="16x16" fill="currentColor"><path d="M5 15l4.61-7L5 1h2.39L12 8l-4.61 7z"/></svg><svg xmlns="http://www.w3.org/2000/svg" viewBox="0 0 16 16" class="rtl-flip" id="arrow-right-small" aria-hidden="true" role="none" data-supported-dps="16x16" fill="currentColor"><path d="M11.45 3L15 8l-3.55 5H9l2.84-4H2V7h9.84L9 3z"/></svg><svg xmlns="http://www.w3.org/2000/svg" viewBox="0 0 16 16" id="play-small" aria-hidden="true" role="none" data-supported-dps="16x16" fill="currentColor"><path d="M4 14V2l10 6z"/></svg><svg xmlns="http://www.w3.org/2000/svg" viewBox="0 0 16 16" id="skills-small" aria-hidden="true" role="none" data-supported-dps="16x16" fill="currentColor"><path d="M12.67 2H3.33L1 6l7 8 7-8-2.33-4zM8.01 4h3.51l.87 1.5H3.61L4.49 4h3.53zM4.1 6.5h7.81l-3.9 4.46-3.9-4.46z"/></svg><svg xmlns="http://www.w3.org/2000/svg" viewBox="0 0 24 24" id="add-medium" aria-hidden="true" role="none" data-supported-dps="24x24" fill="currentColor"><path d="M21 13h-8v8h-2v-8H3v-2h8V3h2v8h8z"/></svg><svg xmlns="http://www.w3.org/2000/svg" viewBox="0 0 16 16" id="link-external-small" aria-hidden="true" role="none" data-supported-dps="16x16" fill="currentColor"><path d="M15 1v6h-2V4.41L7.41 10 6 8.59 11.59 3H9V1zm-4 10a1 1 0 01-1 1H5a1 1 0 01-1-1V6a1 1 0 011-1h2V3H5a3 3 0 00-3 3v5a3 3 0 003 3h5a3 3 0 003-3V9h-2z"/></svg><svg xmlns="http://www.w3.org/2000/svg" viewBox="0 0 16 16" class="rtl-flip" id="send-privately-small" aria-hidden="true" role="none" data-supported-dps="16x16" fill="currentColor"><path d="M14 2L0 6.67l5 2.64 5.67-3.98L6.7 11l2.63 5L14 2z"/></svg><svg xmlns="http://www.w3.org/2000/svg" viewBox="0 0 16 16" id="connect-small" aria-hidden="true" role="none" data-supported-dps="16x16" fill="currentColor"><path d="M9 4a3 3 0 11-3-3 3 3 0 013 3zM6.75 8h-1.5A2.25 2.25 0 003 10.25V15h6v-4.75A2.25 2.25 0 006.75 8zM13 8V6h-1v2h-2v1h2v2h1V9h2V8z"/></svg><svg xmlns="http://www.w3.org/2000/svg" viewBox="0 0 16 16" id="add-small" aria-hidden="true" role="none" data-supported-dps="16x16" fill="currentColor"><path d="M14 9H9v5H7V9H2V7h5V2h2v5h5z"/></svg><svg xmlns="http://www.w3.org/2000/svg" viewBox="0 0 16 16" id="check-small" aria-hidden="true" role="none" data-supported-dps="16x16" fill="currentColor"><path d="M12.57 2H15L6 15l-5-5 1.41-1.41 3.31 3.3z"/></svg><svg xmlns="http://www.w3.org/2000/svg" viewBox="0 0 24 24" id="image-medium" aria-hidden="true" role="none" data-supported-dps="24x24" fill="currentColor"><path d="M19 4H5a3 3 0 00-3 3v10a3 3 0 003 3h14a3 3 0 003-3V7a3 3 0 00-3-3zm1 13a1 1 0 01-.29.71L16 14l-2 2-6-6-4 4V7a1 1 0 011-1h14a1 1 0 011 1zm-2-7a2 2 0 11-2-2 2 2 0 012 2z"/></svg><svg xmlns="http://www.w3.org/2000/svg" viewBox="0 0 16 16" id="popular-content-small" aria-hidden="true" role="none" data-supported-dps="16x16" fill="currentColor"><path d="M12.9 9.33s.06-.04.1-.06V12c0 1.65-1.35 3-3 3H4c-1.65 0-3-1.35-3-3V6c0-1.3.84-2.4 2-2.82v8.81c0 .55.45 1 1 1h6c.55 0 1-.45 1-1v-1.45l.38-.24 1.12-.72c.13-.09.27-.17.4-.25zM15 4.49c0 .93-.32 1.86-.89 2.6-.31.41-.7.71-1.11.99-.34.23-.69.44-1.04.66-.32.21-.64.41-.96.62L10 10V8H7.44c-1.6 0-3.13-1.24-3.38-3-.02-.17-.05-.33-.05-.51 0-.53.14-1.03.36-1.49.57-1.16 1.77-2 3.22-2h3.98c1.9 0 3.44 1.59 3.44 3.49zM12 5H6v1h6V5zm1-2H6v1h7V3z"/></svg><svg xmlns="http://www.w3.org/2000/svg" viewBox="0 0 24 24" id="content-align-left-medium" aria-hidden="true" role="none" data-supported-dps="24x24" fill="currentColor"><path d="M21 3v2H3V3zm-6 6h6V7h-6zm0 4h6v-2h-6zm0 4h6v-2h-6zM3 21h18v-2H3zM13 7H3v10h10z"/></svg><svg xmlns="http://www.w3.org/2000/svg" viewBox="0 0 16 16" id="close-small" aria-hidden="true" role="none" data-supported-dps="16x16" fill="currentColor"><path d="M14 3.41L9.41 8 14 12.59 12.59 14 8 9.41 3.41 14 2 12.59 6.59 8 2 3.41 3.41 2 8 6.59 12.59 2z"/></svg><svg xmlns="http://www.w3.org/2000/svg" viewBox="0 0 24 24" id="thumbs-up-outline-medium" aria-hidden="true" role="none" data-supported-dps="24x24" fill="currentColor"><path d="M19.46 11l-3.91-3.91a7 7 0 01-1.69-2.74l-.49-1.47A2.76 2.76 0 0010.76 1 2.75 2.75 0 008 3.74v1.12a9.19 9.19 0 00.46 2.85L8.89 9H4.12A2.12 2.12 0 002 11.12a2.16 2.16 0 00.92 1.76A2.11 2.11 0 002 14.62a2.14 2.14 0 001.28 2 2 2 0 00-.28 1 2.12 2.12 0 002 2.12v.14A2.12 2.12 0 007.12 22h7.49a8.08 8.08 0 003.58-.84l.31-.16H21V11zM19 19h-1l-.73.37a6.14 6.14 0 01-2.69.63H7.72a1 1 0 01-1-.72l-.25-.87-.85-.41A1 1 0 015 17l.17-1-.76-.74A1 1 0 014.27 14l.66-1.09-.73-1.1a.49.49 0 01.08-.7.48.48 0 01.34-.11h7.05l-1.31-3.92A7 7 0 0110 4.86V3.75a.77.77 0 01.75-.75.75.75 0 01.71.51L12 5a9 9 0 002.13 3.5l4.5 4.5H19z"/></svg><svg xmlns="http://www.w3.org/2000/svg" viewBox="0 0 24 24" id="comment-medium" aria-hidden="true" role="none" data-supported-dps="24x24" fill="currentColor"><path d="M7 9h10v1H7zm0 4h7v-1H7zm16-2a6.78 6.78 0 01-2.84 5.61L12 22v-4H8A7 7 0 018 4h8a7 7 0 017 7zm-2 0a5 5 0 00-5-5H8a5 5 0 000 10h6v2.28L19 15a4.79 4.79 0 002-4z"/></svg><svg xmlns="http://www.w3.org/2000/svg" viewBox="0 0 24 24" id="repost-medium" aria-hidden="true" role="none" data-supported-dps="24x24" fill="currentColor"><path d="M13.96 5H6c-.55 0-1 .45-1 1v10H3V6c0-1.66 1.34-3 3-3h7.96L12 0h2.37L17 4l-2.63 4H12l1.96-3zm5.54 3H19v10c0 .55-.45 1-1 1h-7.96L12 16H9.63L7 20l2.63 4H12l-1.96-3H18c1.66 0 3-1.34 3-3V8h-1.5z"/></svg><svg xmlns="http://www.w3.org/2000/svg" viewBox="0 0 24 24" class="rtl-flip" id="send-privately-medium" aria-hidden="true" role="none" data-supported-dps="24x24" fill="currentColor"><path d="M21 3L0 10l7.66 4.26L16 8l-6.26 8.34L14 24l7-21z"/></svg><svg xmlns="http://www.w3.org/2000/svg" viewBox="0 0 24 24" id="emoji-medium" aria-hidden="true" role="none" data-supported-dps="24x24" fill="currentColor"><path d="M8 10.5A1.5 1.5 0 119.5 12 1.5 1.5 0 018 10.5zm6.5 1.5a1.5 1.5 0 10-1.5-1.5 1.5 1.5 0 001.5 1.5zm7.5 0A10 10 0 1112 2a10 10 0 0110 10zm-2 0a8 8 0 10-8 8 8 8 0 008-8zm-8 4a6 6 0 01-4.24-1.76l-.71.76a7 7 0 009.89 0l-.71-.71A6 6 0 0112 16z"/></svg><svg xmlns="http://www.w3.org/2000/svg" viewBox="0 0 16 16" id="maximize-small" aria-hidden="true" role="none" data-supported-dps="16x16" fill="currentColor"><path d="M8 6.59L6.59 8 3 4.41V7H1V1h6v2H4.41zM13 9v2.59L9.41 8 8 9.41 11.59 13H9v2h6V9z"/></svg></svg>