<svg xmlns="http://www.w3.org/2000/svg" viewBox="0 0 48 48"><g id="mixi"><rect fill="#D1AD5A" width="48" height="48"/><path fill="#FFFFFF" d="M34.6,12C31.1,9.4,27,8.6,22.7,9.2c-5,0.6-9.1,2.9-12.1,7c-2.2,3.1-3.2,6.6-2.2,10.4c1.1,4,3.8,6.6,7.6,8.1
    c2.7,1.1,5.6,1.4,8.5,1.2c0.6-0.1,0.6,0.1,0.6,0.6c0,0.8,0,1.6,0,2.5c0.1,0,0.2,0,0.3-0.1c4.3-1.5,8.1-3.8,11.1-7.3
    c2.1-2.5,3.4-5.3,3.5-8.5C40.2,18.4,38.3,14.7,34.6,12z M32.2,28.7c-1.6,0-1.6,0-1.6-1.6c0-1.9,0-3.8,0-5.7c0-1-0.2-1.9-1.2-2.3
    c-1.1-0.5-2.2-0.3-3.1,0.5c-0.9,0.7-1.2,1.8-1.3,2.9c0,1.9,0,3.8,0,5.7c0,0.5-0.1,0.6-0.6,0.6c-1.5,0-1.5,0-1.5-1.5
    c0-1.8,0-3.6,0-5.4v-0.3c0-1.4-0.5-2.3-1.4-2.5C20.4,18.6,19,19,18.2,20c-0.6,0.8-0.8,1.7-0.8,2.6c0,1.8,0,3.6,0,5.5
    c0,0.5-0.1,0.6-0.6,0.6c-1.5,0-1.5,0-1.5-1.5c0-3.1,0-6.2,0-9.4c0-0.5,0.1-0.6,0.6-0.6c1.5,0,1.5,0,1.5,1.5c0,0.1,0,0.2,0,0.4
    c2.1-2.8,5.9-2.7,7.3,0.1c1.1-1.4,2.5-2.2,4.3-2.2c2,0,3.3,1.2,3.6,3.2c0.1,1.1,0.1,2.2,0.1,3.2c0,1.6,0,3.2,0,4.7
    C32.7,28.5,32.6,28.7,32.2,28.7z"/></g></svg>