<svg xmlns="http://www.w3.org/2000/svg" viewBox="8 10 32 29"><g fill-rule="nonzero"><path fill="#000" d="M24 10c-8.836615 0-16 5.546833-16 12.38908 0 4.423658 2.99477 8.305218 7.499692 10.497027-.245077.830069-1.574923 5.339996-1.627846 5.694294 0 0-.031846.266214.143692.367744.175539.10153.382.022663.382.022663.503385-.069046 5.837385-3.748603 6.760616-4.387548.922308.128273 1.872.194902 2.841846.194902 8.836615 0 16-5.546682 16-12.389081C40 15.546833 32.836615 10 24 10z"/><path fill="#FFE812" d="M15.2897 27c-.512264 0-.928857-.387012-.928857-.86287v-5.367718h-1.449325c-.502666 0-.911518-.39695-.911518-.884706C12 19.39695 12.409006 19 12.911518 19h4.756364c.502666 0 .911518.39695.911518.884706 0 .487755-.409007.884706-.911518.884706h-1.449326v5.367717c0 .47586-.416592.862871-.928856.862871zm8.144832-.011746c-.387333 0-.683638-.152998-.772963-.399059l-.459939-1.171275-2.832393-.00015-.460248 1.172028c-.089015.24561-.385166.398456-.772499.398456-.20374.000203-.40513-.042326-.590443-.124687-.256055-.114899-.502202-.430833-.220139-1.283012l2.221825-5.68862c.156512-.43264.631932-.878382 1.236927-.891784.606698.013251 1.082118.459143 1.23894.892687l2.220895 5.68606c.282682.854137.036535 1.170222-.21952 1.28482-.185357.082215-.386725.124687-.590443.124536-.000154 0 0 0 0 0zm-1.721325-3.170786l-.927773-2.563765-.927773 2.563765h1.855546zm4.026128 3.050767c-.4909 0-.890154-.371651-.890154-.828235v-6.13647c0-.498297.425416-.90353.948207-.90353.522792 0 .948208.405233.948208.90353v5.308235h1.97382c.4909 0 .890154.371652.890154.828235 0 .456584-.399253.828235-.890154.828235h-2.980081zm5.160417.12002c-.512265 0-.928857-.405234-.928857-.90353v-6.181196c0-.498296.416592-.903529.928857-.903529.512264 0 .928856.405233.928856.90353v1.941985l2.59151-2.520847c.13329-.129656.31643-.201035.515205-.201035.231905 0 .464738.09728.639208.266842.162705.158118.25977.361563.273084.572838.013469.213082-.059447.408395-.204968.550099l-2.116709 2.058692 2.28638 2.946409c.149112.190929.213346.43202.178341.669365-.033445.237492-.16323.45208-.360396.595877-.160626.118763-.356948.182842-.558707.182363-.291844.00132-.567083-.131904-.742002-.359153l-2.178323-2.807567-.322313.313524v1.97135c-.000597.498956-.416225.903318-.929166.903982z"/></g></svg>