<svg xmlns="http://www.w3.org/2000/svg" viewBox="19.91800880432129 24.990005493164062 167.53164672851562 150.00999450683594"><g viewBox="0 0 200 200" id="no-search-match"><path fill="#CCC" d="M167.28,129.05C155.93,156.04,129.24,175,98.12,175c-34.17,0-62.99-22.86-72.03-54.12 c6.45-0.61,13.18-1.08,19.56-1.23c24.09-0.57,47.77,1.42,80.67,6.52C138,127.99,152.85,128.75,167.28,129.05z"/><path fill="#747474" d="M171.42,115.87c1.1-5.12,1.7-10.43,1.7-15.88c0-41.42-33.58-75-75-75c-41.42,0-75,33.58-75,75 c0,4.97,0.5,9.82,1.42,14.52c4.31-19.56,13.61-48.07,31.35-48.86c9.28-0.41,15.63,4.99,20,12.95 c2.77-18.3,8.87-34.57,21.76-35.14c17.46-0.77,24.74,18.64,27.93,39.84c2.67-3.11,6.16-5.08,10.75-5.13 C156.69,77.94,161.2,103.44,171.42,115.87z"/><path fill="#949494" d="M167.28,129.05c1.77-4.21,3.16-8.62,4.14-13.18c-10.22-12.43-14.73-37.93-35.09-37.69 c-4.58,0.05-8.08,2.02-10.75,5.13c-3.19-21.2-10.47-40.61-27.93-39.84c-12.89,0.57-18.99,16.84-21.76,35.14 c-4.37-7.96-10.72-13.36-20-12.95c-17.74,0.78-27.05,29.29-31.35,48.86c0.42,2.16,0.95,4.28,1.55,6.36 c6.45-0.61,13.18-1.08,19.56-1.23c24.09-0.57,47.77,1.42,80.67,6.52C138,127.99,152.85,128.75,167.28,129.05z"/><path d="M104.32,85.47c-0.93-2.03-3.31-3.25-5.62-1.9c-2.31,1.35-2.32,4.8-2.44,9.09s-0.97,9.65,1.85,11.28s4.43,0.37,5.76-2.44 C105.21,98.7,106.23,89.64,104.32,85.47z"/><path fill="#9A4DFF" d="M105.12,106.54l0.47-10.19c0.02-0.03,0.04-0.06,0.04-0.06l-0.04-0.03l0,0l0,0l-0.19-0.18 c-1.44-1.3-3.08-2.41-4.86-3.25c-1.2-0.57-2.46-0.98-3.77-1.21l-0.82-0.15c-0.23-0.04-0.46,0.03-0.62,0.19 c-4.31,4.15-7.88,9.8-9.1,14.14l8.62,6.31c1.17-1.95,4.19-6.36,6.74-10.03l0.43,5.36c0.51,1.22,2.44,2.23,3.69,2.65l4.89,2.65 l0.27-3.04L105.12,106.54z"/><path fill="#EF6C51" d="M93.93,110.08c0,0,3.61,2.95,4.55,1.63c0.93-1.32-2.45-3.78-2.45-3.78L93.93,110.08z"/><path fill="#EF6C51" d="M98.37,91.1c0.88,1.04,2.1,1.56,3.24,1.24c1.71-0.49,2.56-2.71,1.92-4.95c-0.23-0.81-0.63-1.5-1.12-2.05 C101.65,88.66,99.79,90.31,98.37,91.1z"/><path d="M96.99,142.32l6.02-20.3l-8.13-9.9l-4.47-3.28l-4.17-3.06l-0.06,0.1l-0.01-0.01c-7.32,8.21-0.65,19.3-0.65,19.3l-8.63,6.4 l-0.01-0.01l-6.69,3.62l3.03,7.66l0.79-5.9l4.61-2.29l0,0l14.32-6.54l-0.51-6.16c1.65,1.35,2.88,2.2,2.88,2.2l-0.79,10.03l0,0 l-1.14,11.57l8.55,0.02L97,142.61L96.99,142.32z"/><path fill="#9A4DFF" d="M66.54,75.2c0.28-2.64,0.61-5.28,0.98-7.91c0.67-4.84,2.46-11.72,7.98-10.69 c3.97,0.75,3.32,7.83,3.14,10.62c-0.38,5.88-1.66,11.66-2.35,17.5c-0.5,4.2-0.57,8.13-0.33,12.33c0.14,2.38,0.28,4.76,0.45,7.14 c0,0-2.33,8.83-9.29,7.71c-1.79-0.29-1.82-2.02-1.27-2.25c2.96-1.25,3.26-4.46,3.1-6.47c-0.37-4.69-3.28-17.22-3.28-17.22 S66.15,78.78,66.54,75.2z"/><path fill="#9A4DFF" d="M37.96,111.11c0,0,2.03-6.83,2.2-9.93c0.17-3.22,0.26-5.93,0.17-9.11c-0.15-5.01-1.09-11.51,2.69-15.92 c0.97-1.13,3.68-3.96,4.92-4.94h0c6.04,0.43,10.61,5.29,11.3,12.01l0.52,5.06c-0.54,0.79-1.55,4.47-1.81,5.41 c-1.24,4.5-2.6,9.28-4.29,13.65c-1.16,3-4.15,9.09-4.15,9.09s-2.7,5.27-4.76,9.41c-1.31,2.63-4.67,10.34-4.67,10.34 s3.88,2.47,6.98,4c2.86,1.42,3.91,2.44,2.98,4.87c0,0-11.71-0.77-21.57-3.06L37.96,111.11z"/><path fill="#D49CFF" d="M87.85,44.38c-4.01-3.68-9.08,0.6-13.06,2.17c-2.43,0.96-3.72,1.27-6.46,1.95l0,0 c-0.55,0.08-1.09,0.21-1.62,0.38c-2.84,0.05-6.18,1.51-8.74,2.88c-2.43,1.29-4.84,2.62-7.24,3.98c-2.46,1.4-6.7,4-8.6,5.18 c-0.64,0.4-1.22,0.88-1.73,1.44c-2.21,2.45-8.74,9.62-11.81,12.19c-1.6,1.34-4.48,3.03-7.28,1.39c-0.52-0.3-1.96,0.77-1.15,2.39 c2.46,4.9,8.34,3.91,10.83,3.23c0.7-0.19,1.35-0.53,1.91-0.99c2.53-2.07,10.57-8.6,11.49-9.02c0.11-0.05,0.21-0.1,0.31-0.14 c-0.79,1.29-1.53,2.55-2.21,3.71c-1.96,3.39-3.06,8.97-2.13,12.68c0.41,1.63,1.22,3.2,2.48,4.51c0.54,1.56,1.15,3.07,1.65,4.46 c1.05,2.94,1.77,5.48,2.57,8.52c0.77,2.93,0.82,9.84,0.82,9.84l-1.09,30.94c10.46,1.38,21.43,0.2,21.43,0.2 c0.18-2.52,0.04-4.52-3.2-5.04c-3.5-0.56-7.46-3.11-7.46-3.11s0.9-8.39,1.4-11.2c0.78-4.43,1.85-10.08,1.85-10.08 s1.11-6.5,1.35-9.6c0.35-4.53,0.25-9.35,0.12-13.88c-0.01-0.29-0.02-0.83-0.03-1.46c0.22-1.63,1.24-5.23,5.91-8.05 c7.24-4.36,10.76-11.87,11.74-15.6l-0.02-0.01c0.12-0.36,0.21-0.74,0.27-1.11c0.18-1.18,0.28-2.36,0.65-3.5 c0.34-1.08,0.94-2.12,1.72-2.98c0.83-0.91,1.87-1.6,2.71-2.5c0.81-0.88,1.01-1.42,1.5-2.09c0.84-1.16,1.53-2.46,2.07-3.78 C89.84,49.68,90.07,46.41,87.85,44.38z"/><path fill="#EEE" d="M83.93,51.31c-0.92-0.51-1.98-0.75-2.81-0.52c-1.21,0.33-4.48,4.81-2.95,6.36 c1.38,1.39,3.85,3.15,5.53,1.19l1.3-1.51c1.41-1.92,0.95-3.07,0.95-3.07C85.81,52.78,84.96,51.88,83.93,51.31z"/><path d="M81.04,55.25c0,0-0.38-0.16-0.56-0.6l-0.35,0.15c0.25,0.58,0.75,0.79,0.75,0.79c0.02,0.01,1.73,0.92,2.35,1.76 l0.3-0.22C82.86,56.22,81.13,55.3,81.04,55.25z"/><path d="M84.58,51.22c-0.44-0.29-0.96-0.28-1.17,0.03c-0.16,0.25,0.23,0.42,0.62,0.63c0.22,0.87-1.37,3.1-2.02,3.9l0.29,0.24 c0.23-0.28,2.05-2.58,2.12-3.9c0.35,0.26,0.41,0.46,0.59,0.18C85.21,51.99,85.02,51.51,84.58,51.22z"/><ellipse transform="rotate(-18.402 86.195 51.593)" cx="86.2" cy="51.6" rx=".35" ry=".35"/><ellipse transform="rotate(-18.402 83.201 49.845)" cx="83.21" cy="49.85" rx=".35" ry=".35"/><g fill="#9A4DFF"><path d="M52.28 136.05L51.49 138.41 50.84 135.81"/><path d="M54.63 133.76L53.84 136.12 53.19 133.52"/></g><g fill="#9A4DFF"><path d="M74.77 68.63L72.96 69.94 73.85 67.7"/><path d="M72.1 69.25L70.29 70.56 71.18 68.32"/><path d="M74.87 71.3L73.05 72.61 73.95 70.37"/></g><path fill="#9A4DFF" d="M79.03 48.72L77.15 48.97 78.35 47.76"/><path fill="#CCC" d="M161.28,59.54l25.37,0.51c0,0,1.2-3.59,0.66-5.43c-1.87-6.34-8.55-2.86-12.87-4.15 c-1.61-0.48-2.43-1.8-3.04-3.27c-0.25-0.62-0.47-1.26-0.68-1.88c-0.03-0.09-0.06-0.18-0.09-0.26c-0.02-0.07-0.05-0.14-0.07-0.2 c-0.08-0.22-0.16-0.44-0.24-0.64c-0.56-1.4-1.3-2.43-2.15-3.15c-3.68-3.12-9.53-0.45-12.93,3.26c-0.87,0.95-1.4,1.2-1.95,1.12 c-0.04-0.01-0.07-0.01-0.11-0.02c-0.59-0.13-1.21-0.62-2.31-1c-0.37-0.13-0.74-0.21-1.11-0.26c-0.09-0.01-0.19-0.02-0.28-0.02 c-0.41-0.02-0.82,0.01-1.22,0.08C153.25,48.72,157.64,53.87,161.28,59.54z"/><path fill="#FFF" d="M161.28,59.54l-18.71-0.37l-0.33-0.01l-12.48-0.25c0,0-1.47-3.33,0.01-5.23 c2.34-3.02,5.03-1.15,7.64-1.51c1.03-0.14,2.01-0.35,2.85-0.73c0.74-0.33,1.29-0.75,1.74-1.24c0.58-0.63,1-1.4,1.47-2.29 c0.59-1.11,1.5-2.11,2.58-2.8c0.03-0.02,0.06-0.04,0.09-0.05c0.12-0.08,0.25-0.15,0.37-0.21c0.09-0.05,0.17-0.09,0.26-0.13 c0.02-0.01,0.03-0.02,0.05-0.02c0.14-0.06,0.27-0.12,0.41-0.17c0.33-0.13,0.68-0.23,1.03-0.29 C153.25,48.72,157.64,53.87,161.28,59.54z"/><path d="M110.48,108.12l-1.62,1.33l4.54,6.21c0,0-0.96,1.12,0.9,3.64l4.83-3.85c0,0-2.09-2.21-3.42-1.75L110.48,108.12z"/><path fill="#EF6C51" d="M112.3,109.11c0,0-3.8,2.28-2.04,4.09c1.07,1.1,3.85-1.89,3.85-1.89L112.3,109.11z"/><path fill="#FFF" d="M172.16,152.74l0.07-0.01l-53.3-37.15l-4.13,3.39l8.4,37.15l0.08-0.01c0.11,4.69,11.45,8.48,25.42,8.48 c14.04,0,25.43-3.83,25.43-8.55C174.14,154.87,173.43,153.76,172.16,152.74z"/><path fill="#CCC" d="M141.18,149.66c5.47-0.16,11,0.45,12.52,2.12c-1.71,1.7-7.16,2.24-12.62,2.04 c-5.75-0.22-11.19,0.04-11.83-2.16C128.69,149.71,135.58,149.83,141.18,149.66z"/><path fill="#CCC" d="M151.06,155.74c5.47-0.16,11,0.45,12.52,2.12c-1.71,1.7-7.16,2.24-12.62,2.04 c-5.75-0.22-11.19,0.04-11.83-2.16C138.56,155.79,145.46,155.91,151.06,155.74z"/></g></svg>