<svg xmlns="http://www.w3.org/2000/svg" viewBox="1 3.6399998664855957 18 12.720001220703125"><g id="mix"><path d="M8.27,12V8l3.46,2L8.27,12z M5.76,5.76C4.67,6.84,4,8.34,4,10s0.67,3.16,1.76,4.24l0.71-0.71C5.56,12.63,5,11.38,5,10 c0-1.38,0.56-2.63,1.47-3.53L5.76,5.76z M13.53,6.47C14.44,7.37,15,8.62,15,10c0,1.38-0.56,2.63-1.47,3.53l0.71,0.71 C15.33,13.16,16,11.66,16,10s-0.67-3.16-1.76-4.24L13.53,6.47z M3.64,3.64C2.01,5.26,1,7.51,1,10s1.01,4.74,2.64,6.36l0.71-0.71 C2.9,14.21,2,12.21,2,10c0-2.21,0.9-4.21,2.35-5.65L3.64,3.64z M15.65,4.35C17.1,5.79,18,7.79,18,10c0,2.21-0.9,4.21-2.35,5.65 l0.71,0.71C17.99,14.74,19,12.49,19,10s-1.01-4.74-2.64-6.36L15.65,4.35z"/></g></svg>