<svg xmlns="http://www.w3.org/2000/svg" viewBox="2.0299999713897705 51.08839416503906 306.5500183105469 202.3115997314453"><g viewBox="0 0 300 300" id="hashtag_landing_page_error_dark_mode"><defs><style>.hashtag_landing_page_error_dark_mode__cls-1{fill:none}.hashtag_landing_page_error_dark_mode__cls-2{clip-path:url(#hashtag_landing_page_error_dark_mode__a)}.hashtag_landing_page_error_dark_mode__cls-5{fill:#00c19f}.hashtag_landing_page_error_dark_mode__cls-10{fill:#fff}.hashtag_landing_page_error_dark_mode__cls-14{fill:#007b65}</style></defs><g class="hashtag_landing_page_error_dark_mode__cls-2" clip-path="url(#hashtag_landing_page_error_dark_mode__a)"><path d="M285.6 150.6c-7.85 45.14-57.66 77.28-108.8 68.39s-85.61-55.69-77.76-100.8c7.16-41.14 55.64-74.54 106.7-65.66s87.64 53 79.78 98.1" fill="#005d7b"/><path d="M232.3 137.7a41.92 41.92 0 11-41.92-41.92 41.92 41.92 0 0141.92 41.92" fill="#00b8e6"/><path class="hashtag_landing_page_error_dark_mode__cls-5" d="M184.4 197.6c.92 1.25.46 2.44-.79 3.36s-2.83 1.24-3.75 0a2.81 2.81 0 01.88-3.88 2.48 2.48 0 013.66.54M146.72832894 69.49907133l1.36523526-.66823102 4.89742999 10.00573733-1.36523526.66823102z"/><path class="hashtag_landing_page_error_dark_mode__cls-5" d="M145.4554491 78.53813682l8.08046408-6.81402965.98632596 1.16964144-8.08046409 6.81402965z"/></g><g clip-path="url(#hashtag_landing_page_error_dark_mode__c)"><path class="hashtag_landing_page_error_dark_mode__cls-5" d="M98 141.7c-13.67 0-23.21-9.75-23.21-23.71.03-14.65 10.44-26.58 23.21-26.58 13.37 0 23.07 10.33 23.07 24.56 0 14.43-10.13 25.73-23.07 25.73m0-48.76c-12 0-21.68 11.24-21.68 25 0 13.06 8.91 22.18 21.68 22.18 12.08 0 21.55-10.63 21.55-24.2 0-13.34-9.07-23-21.55-23M262.2 72.85c0 5.92-6 10.11-11.9 10.11s-10.7-3.6-10.7-9.51a10.7 10.7 0 0110.7-10.71c5.92 0 11.9 4.2 11.9 10.11M171.7 253.4l-1.41-.59c6.9-16.54 14.89-33.53 29.83-43.49 7.38-4.93 15.94-7.7 24.22-10.38 6.24-2 12.68-4.1 18.56-7.08a62.89 62.89 0 0025.73-24.46 125.3 125.3 0 006.5-13.84 117.2 117.2 0 017.22-15.1c5.2-8.63 14.84-17.63 26.23-17l-.08 1.52c-10.77-.6-19.88 8-24.84 16.25a117.6 117.6 0 00-7.13 14.9 126.2 126.2 0 01-6.57 14 64.35 64.35 0 01-26.37 25c-6 3-12.49 5.15-18.78 7.18-8.18 2.65-16.64 5.39-23.85 10.19-14.58 9.74-22.45 26.49-29.26 42.82"/></g><g class="hashtag_landing_page_error_dark_mode__cls-2" clip-path="url(#hashtag_landing_page_error_dark_mode__a)"><path class="hashtag_landing_page_error_dark_mode__cls-5" d="M257.9327327 155.29797313l1.36841449-.684355 4.25820888 8.5145791-1.3684145.684355z"/><path class="hashtag_landing_page_error_dark_mode__cls-5" d="M256.2 164l-1-1.1 10.2-9.8 1 1.1z"/></g><g class="hashtag_landing_page_error_dark_mode__cls-2" clip-path="url(#hashtag_landing_page_error_dark_mode__a)"><path d="M211.85 83c37.45 1.7 52.35 19.57 51.36 39.29-1 20-20 36.61-61.18 49.09C154.21 185.9 89 202.63 89 202.63l-18.66-10.88s86.6-23 106.58-28.64c15.1-4.25 64.61-16.67 71.49-39.15 6.29-20.53-12.48-31.79-35.25-36C191.43 84 153 89.7 153 89.7s29.6-8 58.84-6.67" fill="#cbcd00"/><path class="hashtag_landing_page_error_dark_mode__cls-10" d="M88.89290963 196.45456298l54.19224104-13.87388235.37946085 1.4821975-54.19224104 13.87388236zM89.95036936 190.81553876l35.45817104-9.38831755.38904697 1.46936805-35.45817105 9.38831754z"/><path fill="#6b9fff" d="M2.03 219.7L64.45 170l60.45 41.8z"/><path class="hashtag_landing_page_error_dark_mode__cls-5" d="M2.03 219.7L64.45 170l60.45 41.8z"/></g><g clip-path="url(#hashtag_landing_page_error_dark_mode__b)"><path d="M64.44 171.9l.85.6-7.82 4.25 7-4.85m0-1.86s-25.77 17.84-27.15 19.43l30.85-16.8z" fill="#7c35dd"/><path class="hashtag_landing_page_error_dark_mode__cls-14" d="M124.9 211.8l-12.2-9.37-67.53 18.3c17.45-1.17 79.73-8.93 79.73-8.93M37.32 189.5l34.79-15.17-7.66-4.3S38.7 187.91 37.32 189.5"/></g><g class="hashtag_landing_page_error_dark_mode__cls-2" clip-path="url(#hashtag_landing_page_error_dark_mode__a)"><path class="hashtag_landing_page_error_dark_mode__cls-14" d="M56.79 196.6l41.24-32.7-7.77 24zM42.5 197.6s-4.17 3.08-2 6.38c2.64 4 16.92 1.51 16.92 1.51s-18.66 7.24-21.9 1.68c-3-5.13 7-9.57 7-9.57"/></g></g></svg>