<svg xmlns="http://www.w3.org/2000/svg" viewBox="0.23539352416992188 -3.880000114440918 64.00999450683594 118.66000366210938"><g transform="translate(1.232 18.065)"><path d="M12.94 51.66c8.47.07 12.4-8.86 13.6-12.2.22-.7.4-1.38.53-2.1l.28-1.63c.8-4.64 4.04-8.52 8.5-10.1 7.32-2.57 7.8-8.1 7.8-12.18 0-2.7-1.28-11.06-11.05-11.06-7.84 0-9.75 4.6-11.2 9.3-1.4 4.5-1.55 11.4-9.26 12.5-9 1.4-12.68 9.2-11.77 16.1.83 6.3 6.22 11.1 12.57 11.2z" fill="#4620AE" fill-rule="nonzero"/><g transform="translate(47.625)"><path fill="#FF9BEA" fill-rule="nonzero" d="M8.45 19.94V10.9h3.7l.27 9.5"/><path d="M4.3 4.34c9.85 3.52 11.97 10.07 12.3 11.4.04.14.02.3-.05.43l-.16.3c-.1.18-.4.27-.6.2-1.7-.56-8.9-3.45-11.6-12.33z" fill="#6F38D4" fill-rule="nonzero"/><g transform="translate(4.106 4.106)"><path fill="#00D4B5" fill-rule="nonzero" mask="url(#artwork__j)" d="M1.12 5.27L5.1 1.3.2-.58"/></g><path d="M.17.27S7.42.9 5.7 4.77l-.32.45c-.37.5-.9.86-1.53.93C.85 6.5.17.27.17.27z" fill="#CE4115" fill-rule="nonzero"/><path d="M.5 4.78c3.33.52 2.47-1.25 1.72-1.56-.6-.83.44-1.4 1.57-.35 1.1 1.06 1.9-1.7 1.9-1.7L.1-3.88l-1.98 5s-1 3.12 2.3 3.65z" fill="#FFC100" fill-rule="nonzero" mask="url(#artwork__l)"/><ellipse fill="#FF9BEA" fill-rule="nonzero" cx="8.21" cy="11.85" rx="1.72" ry="2.04"/><circle fill="#FF9BEA" fill-rule="nonzero" cx="9.49" cy="6.99" r="1.68"/><circle fill="#FF9BEA" fill-rule="nonzero" cx="11.71" cy="8.68" r="1.68"/><circle fill="#FF9BEA" fill-rule="nonzero" cx="13.86" cy="10.37" r="1.68"/></g><path d="M25.8 50.22c-4.63-5.5-3.36-11.5-2.75-13.48.06-.2.36-.2.42 0l2.6 9.73c0 .1.1.16.2.16h14c.1 0 .2-.1.2-.2l.37-8.97c0-.23.3-.3.42-.1.8 1.57 3.1 4.43 9.28 3.63 11.9-1.1 10.76-19.6 10.58-21.7 0-.1-.1-.2-.2-.2H55.5c-.13 0-.23.1-.22.2.12 1.8.7 13.6-5.9 16.1h-.1c-8.06-.8-3.9-10.7-10.34-10.7h-13.9c-.44 0-.87 0-1.3.2-8.96 2.6-7.8 17.1-7.8 17.1s-.04 6.9 7.2 12.5c6.36 5 8.33 2.2 2.66-4.5z" fill="#F949B4" fill-rule="nonzero"/><path d="M26.1 46.63s8.83-.82 14.37 0c0 0 11.9 12.22 11.9 38.33 12.53 17-8.1 29.82-8.1 29.82H19.94s-8.92-39.72 6.16-68.15z" fill="#9A4DFF" fill-rule="nonzero"/><path d="M29.8 21.6v3.78c0 .24.05.48.15.7.28.57.94 1.55 2.26 1.55 1.2 0 1.9-.67 2.4-1.18.3-.32.4-.72.4-1.13l-.1-3.82c0-.87-.7-1.56-1.6-1.56h-1.7c-.9 0-1.6.74-1.6 1.65z" fill="#FF9BEA" fill-rule="nonzero"/><path d="M39.86 15.98c0-4.03-3.2-7.7-7.5-7.7-4.27 0-7.5 3.67-7.5 7.7s3.37 6.48 7.5 6.48c4.14 0 7.5-2.45 7.5-6.48z" fill="#FF9BEA" fill-rule="nonzero"/><circle fill="#4620AE" fill-rule="nonzero" cx="29.9" cy="7.26" r="3.33"/><circle fill="#4620AE" fill-rule="nonzero" cx="35.01" cy="7.26" r="3.33"/><path d="M25 15.48h.55c.68 0 1.23-.55 1.23-1.23v-.54c0-.6-.55-1.2-1.23-1.2H25c-.67 0-1.22.6-1.22 1.3v.6c0 .7.55 1.3 1.23 1.3zm14.18 0h.54c.67 0 1.23-.55 1.23-1.23v-.54c0-.6-.56-1.2-1.23-1.2h-.54c-.68 0-1.24.6-1.24 1.3v.6c0 .7.56 1.3 1.24 1.3z" fill="#FF9BEA" fill-rule="nonzero"/><path d="M40.06 12.76c-.9-.53-1.36-.73-2.46-.4m-10.68 0c-1.1-.33-1.64-.15-2.46.4" stroke="#FF534F" stroke-width=".82" stroke-linecap="round"/><g transform="translate(26.276 9.443)"><circle fill="#FFD61D" fill-rule="nonzero" cx="2.89" cy="2.85" r="2.77"/><circle fill="#404040" fill-rule="nonzero" cx="2.89" cy="2.85" r="2"/><path d="M3.08 1.54c.62 0 1.12.5 1.12 1.12" stroke="#EEE" stroke-width=".5" stroke-linecap="round" stroke-linejoin="round"/></g><g transform="translate(32.434 9.443)"><circle fill="#FFD61D" fill-rule="nonzero" cx="3.1" cy="2.85" r="2.77"/><circle fill="#404040" fill-rule="nonzero" cx="3.1" cy="2.85" r="2"/><path d="M3.28 1.54c.62 0 1.13.5 1.13 1.12" stroke="#EEE" stroke-width=".5" stroke-linecap="round" stroke-linejoin="round"/></g><path d="M28.57 16.25h6.15s.75 4.57-3.07 4.57c-3.83 0-3.08-4.57-3.08-4.57z" fill="#404040" fill-rule="nonzero"/><g transform="translate(28.328 16.012)"><ellipse fill="#FF534F" fill-rule="nonzero" mask="url(#artwork__n)" cx="3.09" cy="5" rx="2.56" ry="2.1"/></g></g></svg>