<svg xmlns="http://www.w3.org/2000/svg" viewBox="6.998726844787598 3 10.001273155212402 18"><g height="24" width="24" id="dollar_sign"><path d="M12.4 11.43c-1.42-.35-2.43-.75-3.01-1.21-.58-.46-.87-1.03-.87-1.72 0-.72.31-1.33.94-1.81s1.5-.73 2.62-.73c1.13 0 2.01.31 2.69.88.53.44 1.17 1.1 1.23 2.16h1c0-1-.56-2.04-1.44-2.82-.68-.61-1.54-.97-2.56-1.1V3h-2v2.09c-.9.13-1.66.43-2.3.9-.88.65-1.32 1.5-1.32 2.54 0 1.02.39 1.82 1.18 2.42.79.6 1.94 1.08 3.47 1.46 1.41.36 2.4.78 2.97 1.25.57.47.85 1.07.85 1.81 0 .78-.34 1.4-1.02 1.88-.68.47-1.57.71-2.68.71-1.1 0-2.05-.25-2.86-.76C8.48 16.78 8 16.07 8 15.01L7 15c-.03 1.31.47 2.3 1.51 2.99.74.49 1.57.79 2.49.93V21h2v-2.04c1.03-.11 1.92-.4 2.64-.91.91-.64 1.36-1.5 1.36-2.59 0-1.04-.39-1.88-1.17-2.51-.79-.64-1.93-1.15-3.43-1.52z"/></g></svg>