<svg xmlns="http://www.w3.org/2000/svg" viewBox="1 2 14 11.8100004196167"><g id="transcript_search"><path d="M4,3H1V2h3V3z M1,11h3v-1H1V11z M6,2v1h9V2H6z M13.05,10.89l1.84,2.3l-0.78,0.62l-1.84-2.31C11.74,11.81,11.15,12,10.5,12
	c-0.98,0-1.86-0.41-2.5-1.06V11H6v-1h1.35C7.13,9.54,7,9.04,7,8.5S7.13,7.46,7.35,7H1V6h7.06c0.63-0.62,1.49-1,2.44-1
	C12.43,5,14,6.57,14,8.5C14,9.42,13.63,10.26,13.05,10.89z M10.5,11c1.38,0,2.5-1.12,2.5-2.5C13,7.12,11.88,6,10.5,6S8,7.12,8,8.5
	C8,9.88,9.12,11,10.5,11z"/></g></svg>