<svg xmlns="http://www.w3.org/2000/svg" viewBox="2 2 32 32"><g width="36" height="36" viewBox="0 0 36 36" id="face_happy_v2"><path d="M15,14.5c0,1.38-1.12,2.5-2.5,2.5S10,15.88,10,14.5s1.12-2.5,2.5-2.5S15,13.12,15,14.5z M23.5,12c-1.38,0-2.5,1.12-2.5,2.5  s1.12,2.5,2.5,2.5s2.5-1.12,2.5-2.5S24.88,12,23.5,12z M24.77,22.27c0.15-0.23,0.08-0.54-0.16-0.69c-0.23-0.15-0.54-0.08-0.69,0.16  C22.63,23.78,20.42,25,18,25c-2.42,0-4.63-1.22-5.92-3.27c-0.15-0.23-0.46-0.3-0.69-0.16c-0.23,0.15-0.3,0.46-0.16,0.69  C12.71,24.6,15.24,26,18,26C20.76,26,23.29,24.6,24.77,22.27z M18,3C9.73,3,3,9.73,3,18s6.73,15,15,15s15-6.73,15-15S26.27,3,18,3   M18,2c8.84,0,16,7.16,16,16s-7.16,16-16,16S2,26.84,2,18S9.16,2,18,2L18,2z"/></g></svg>