<svg xmlns="http://www.w3.org/2000/svg" viewBox="0 0 60 60"><g fill="none" fill-rule="evenodd"><circle fill="#FFF" cx="30" cy="30" r="30"/><path d="M30 1c15.991 0 29 13.009 29 29S45.991 59 30 59 1 45.991 1 30 14.009 1 30 1zm0-1C13.431 0 0 13.431 0 30c0 16.569 13.431 30 30 30 16.569 0 30-13.431 30-30C60 13.431 46.569 0 30 0z" fill="#E7E7E7" fill-rule="nonzero"/><g fill="#BF0000"><path d="M19.62 49.081l-4.974-4.174h34.882z"/><path d="M25.285 41.776H19.62V11.962h9.363c5.672 0 10.284 4.607 10.284 10.279 0 3.454-1.716 6.503-4.328 8.378l8.382 11.157h-7.092l-6.937-9.246h-4.007v9.246zm0-24.153v9.242h3.697a4.629 4.629 0 0 0 4.624-4.624 4.628 4.628 0 0 0-4.624-4.618h-3.697z" fill-rule="nonzero"/></g></g></svg>