<svg xmlns="http://www.w3.org/2000/svg" viewBox="2 2 20.05000114440918 20"><g width="24" height="24" id="clock_half_circle"><path d="M14.97 16.95 10 13.87V7h2v5.76l4.03 2.49-1.06 1.7zM11.1 3 11 2c-1.96.2-3.81.97-5.35 2.23l.64.77a9.033 9.033 0 0 1 4.81-2zM3 12.9c.18 1.76.87 3.43 2 4.81l-.77.63A9.884 9.884 0 0 1 2.01 13l.99-.1zm19.05-.9c0 5.16-3.86 9.45-8.99 9.99l-.11-.99c4.61-.49 8.09-4.35 8.09-9s-3.48-8.51-8.09-9l.1-.99c5.13.54 9 4.83 9 9.99zM6.29 19a9.033 9.033 0 0 0 4.81 2l-.1 1c-1.96-.2-3.81-.96-5.35-2.22l.64-.78zM4.23 5.65l.77.63a9.064 9.064 0 0 0-2 4.82L2 11c.2-1.96.97-3.81 2.23-5.35z"/></g></svg>