<svg xmlns="http://www.w3.org/2000/svg" viewBox="2 4 19.97800064086914 16.007102966308594"><g id="video_link"><path d="M3,5h17v6h1V5V4h-1H3H2v1v12v1h1h7v-1H3V5z M14,11l-5,3V8L14,11z M12,15.63c-1.11,0.68-1.46,2.13-0.78,3.25 c0.68,1.11,2.13,1.46,3.25,0.78L16,18.72c0.2-0.12,0.26-0.39,0.14-0.59c-0.12-0.2-0.38-0.26-0.59-0.14l-1.53,0.94 c-0.71,0.43-1.63,0.21-2.07-0.5c-0.43-0.71-0.21-1.63,0.5-2.07l2.2-1.34c0.71-0.43,1.63-0.21,2.07,0.5 c0.02,0.03,0.03,0.06,0.05,0.09c0.01,0.03,0.03,0.05,0.04,0.08c0.01,0.03,0.02,0.06,0.04,0.09c0.12,0.2,0.39,0.27,0.59,0.14 c0.19-0.12,0.26-0.37,0.16-0.56l0,0c-0.01-0.02-0.02-0.04-0.03-0.06c-0.01-0.02-0.02-0.04-0.03-0.06c-0.03-0.06-0.06-0.11-0.09-0.16 c-0.68-1.11-2.13-1.46-3.25-0.78L12,15.63z M21.6,12.72c0.71,1.1,0.39,2.56-0.71,3.26l-2.17,1.39c-1.1,0.71-2.56,0.39-3.26-0.71 c-0.03-0.05-0.06-0.1-0.09-0.14c-0.02-0.05-0.05-0.09-0.07-0.14l0,0c-0.11-0.2-0.05-0.44,0.14-0.57c0.2-0.13,0.47-0.07,0.59,0.13 c0.02,0.03,0.03,0.06,0.04,0.09c0.02,0.03,0.03,0.06,0.05,0.1c0.01,0.02,0.03,0.05,0.04,0.07c0.45,0.7,1.38,0.9,2.08,0.45l2.17-1.39 c0.7-0.45,0.9-1.38,0.45-2.08c-0.45-0.7-1.38-0.9-2.08-0.45l-1.51,0.97c-0.2,0.12-0.46,0.07-0.59-0.13 c-0.13-0.2-0.07-0.46,0.12-0.59l0,0l0,0l0,0l1.51-0.97C19.44,11.31,20.9,11.63,21.6,12.72z"/></g></svg>