<svg xmlns="http://www.w3.org/2000/svg" viewBox="0 0.20000457763671875 329 346.10003662109375"><g viewBox="0 0 329 346.3" id="fresh"><path style="fill:#cd2127;" d="M414.4,287.2c0,77.2-73.7,139.7-164.5,139.7S85.4,364.4,85.4,287.2s73.7-139.7,164.5-139.7S414.4,210,414.4,287.2" transform="translate(-85.4 -80.6)"/><path style="fill:#669941" d="M286.5,134.2c-2.7-10-14.2-8.7-16.3-11.6,18.3,25.8-4.1,14.8-10.6,3.2-4.9-8.8,3.4-14.1,8.7-17.3-8.9.3-18.5,2.7-28,13.6-4.6,5.2,4.2,12.7,5.7,17.1l12.9-8.4c-5.5,4.8-5.8,9.4-5,14.6,8.2,2.5,15,5.6,25.7,15.6-15.4-7.1-24.8-7.3-31.4-3.6,0.3,5.3.5,11-2.6,21.4-2.9-8.3-9.3-11.7-19.5-14.5-7.1-1.9-14.5-.5-25.2,6.9,7-8.9,10.6-12.3,13.3-16.3s1.5-8.6-9.7-13.2c8.6,3.5,12.5.7,15.3-4.9-4.2,8.3-2.5,11.6-.8,13.9a10.2,10.2,0,0,0,7.9,4.2c6-.7,8.7-5.2,8.4-11.9-1.3-3-1.5-9.7-.7-20.2s3.3-19.6,7.6-27.3,7.8-3,2-10.5l-11.8-4.1c-2.9,10.3-1.2,26.4-10.4,47.8-11.4-5.5-19.9-7.6-26.7-13l11.7,15.8q-16-.2-23.4,4c-5,2.6-7.5,7.8-14.6,9s-12.5,4.8-27.4-5.2c5.5,3.7,14.2,15.1,24,17.7,13.5,2.8,23.4-10.2,23.7-2.5,0,2.8-2.7,2.7-6.5,3.4-38.3,6.9-58.8,42.6-64.1,45,39.6-18,68-35,81.5-12.9,3,4.9,8.1,12-.8,21.9-4.8,5.4-15.5,4.3-49.9,14.2,17.9-5.2,74.1,25.2,86-38-1,5.1,25.4,12.2,38.2,28,14.4,17.8,20.3,28.3,24.5,53.7,1.7,10.3,4.2-48.1-1.4-63.4-7.5-20.4-13.4-22.5-24.3-28.5,2,1.1,3.8-1.1,4.9-1.4a92.8,92.8,0,0,1,17.6-1.8h0.1a105,105,0,0,1,23.4,2.8l1.3,0.2,1.4,0.3,3.7,1,2.5,0.7a190.6,190.6,0,0,1,20.8,7.4c6.6,2.7,13.5,6,20.6,9.7,4.6,2.3,9.2,5,14,7.7a106,106,0,0,0-9.8-11.9l-1.6-1.8c-19.1-19.5-59.8-41.5-96.1-41.8,9.3,0.1,15.3,1.2,11.3-14.4" transform="translate(-85.4 -80.6)"/><path style="fill:#006635" d="M232.4,80.8a25.7,25.7,0,0,0,6.8.7s4.9-.6,7,1.8c0,0,2.3,2.3,1.4,9.1,0,0-.2,3.2-2.7,12.6L241,121.6l5,16.3,15-8.8s-8.4,7-6.9,15.1c0,0,11.4,2.1,28.4,18.8,0,0-21.7-11.4-33-4.9,0,0,1.3,5.9-4.2,23.6,0,0-3.9-14.1-21.5-16.8,0,0-10.6-1.9-25.5,8.6,0,0,8.2-10.3,14.2-19.2,0,0,2.1-2.1-.2-5.4,0,0-1.6-3.3-11.9-8.9,0,0,6.8,3.4,11.8,1.9,0,0,5.2-.6,8.6-8.5,0,0-3.8,11.9-1.8,16.1a7.7,7.7,0,0,0,6.4,4.4,7.6,7.6,0,0,0,8.2-5.4s1.2-2-.2-8.4c0,0-.7-4.5.1-16.4,0,0-.1-9.1,3.1-16.9,0,0,2.6-5.9,5.6-14.9,0,0,1.6-4.4,0-6.3,0,0-.4-0.6-2.7-0.9,0,0-3.6-.2-5.4-1.7C234.1,82.8,231.8,81,232.4,80.8Z" transform="translate(-85.4 -80.6)"/></g></svg>