<svg xmlns="http://www.w3.org/2000/svg" viewBox="14.529886245727539 25.020004272460938 179.94012451171875 150"><g viewBox="0 0 200 200" id="error-on-load"><path fill="#D49CFF" d="M24.43,113.89c17.98-0.12,38.44-0.76,53.59-3.34c32.9-5.6,56.58-7.79,80.67-7.17 c4.67,0.12,9.52,0.43,14.31,0.85c0.08-1.4,0.12-2.8,0.12-4.21c0-41.42-33.58-75-75-75c-41.42,0-75,33.58-75,75 C23.13,104.76,23.59,109.39,24.43,113.89z"/><path fill="#BD79FF" d="M173,104.23c-4.79-0.42-9.65-0.73-14.31-0.85c-24.09-0.63-47.77,1.56-80.67,7.17 c-15.15,2.58-35.6,3.22-53.59,3.34c6.51,34.79,37.02,61.13,73.7,61.13C138.13,175.02,170.82,143.69,173,104.23z"/><path fill="#FFD61D" d="M148.24,52.39c3.35-2.63,7.79-3.53,11.97-3.45c3.25,0.06,6.09,1.04,8.67,3.03l-2.26,0.79l-8.55,3.14 l-3.54,3.34L142.28,71.5l-5.53,5.77l-0.5-1.39l6.64-11.42c0,0,2.74-5.59,7.21-10.05c0,0-3.68,1.4-5.41,2.73 C144.67,57.16,145.95,54.19,148.24,52.39z"/><path fill="none" d="M156.38,64.74 c-0.01,0-0.01-0.02,0-0.02"/><path fill="none" d="M156.38,64.5 c-0.02,0-0.02-0.03,0-0.03"/><path fill="#9A4DFF" d="M129.27 137.95L127.61 137.91 139.97 112.28 127.44 112.18 119.16 137.74 117.45 137.7 113.16 153.31 129.86 153.65 122.79 148.54z"/><path fill="#FFD61D" d="M184.39,39.46l-12.91,14c0,0,0.48,2.6,4.47,3.22L184.39,39.46z"/><path fill="#FFF771" d="M119.07,77.23l7.63,0.36c3.22,0.58,9.54-1.7,9.54-1.7l19.15-19.04c1.2-1.19,2.65-2.11,4.24-2.68 l6.47-2.33c0,0,5.14-5.98,5.7-7.27c2.06,0.59-0.44,7.22-0.44,7.22l7.37,6.26c0,0,3.18,5.88,14.83,13.37l0.9,7.25l-5.33,2.09 l-12.46-6.13c-5.16-0.28-9.63-3.64-9.63-3.64s-12.67,12.34-13.54,24.58c-0.51,7.23-5.66,16.29-6.58,17.5l0,0l5.23,7.85 l-1.57,28.7c0,0-0.9,5.61-7.17,5.01v-28.94l-8.78-10.03c-3.79-0.21-8.73-0.61-15.3-0.93C114.8,103.43,114.91,90.93,119.07,77.23z"/><path fill="#4620AE" d="M142.51 155.96L158.84 155.96 151.95 151.01 153.03 140.62 142.61 139.74z"/><path fill="#414042" d="M174.63,60.9c0.09-0.36,0.3-0.67,0.67-0.72c1.05-0.16,0.99,1.91,0.17,2.2c-0.36,0.13-0.66-0.22-0.79-0.51 C174.58,61.6,174.55,61.23,174.63,60.9z"/><path fill="#414042" d="M192.03,72.22c0.07-0.13,0.32-0.36,0.35-0.21c0.02,0.11,0.47,1.94,0.42,1.95 C192.22,74.07,191.76,72.73,192.03,72.22z"/><path fill="#4620AE" d="M120.07,78.33c0,0,6.49,17.84,0.15,35.08C119.45,111.36,114.54,98.75,120.07,78.33z"/><path fill="#414042" d="M193.3,79.14l-3.12-1.87c-0.24-0.14-0.32-0.45-0.17-0.69c0.14-0.24,0.45-0.32,0.69-0.17l3.77,2.27 L193.3,79.14z"/><path fill="#FFD61D" d="M18.15,88.93c1.11-3.12,0.58-6.4,1.78-9.67c1.06-2.89,2.63-5.52,5.07-7.45 c4.36-3.46,10.5-4.23,15.55-1.85c0.21,0.1,0.42,0.2,0.63,0.31c0.2,0.11,0.4,0.22,0.59,0.32c1.49,0.85,2.77,2,3.88,3.31 c4.76,5.63,10.23,7.35,10.23,7.35c-1.77,2.61-2.58,5.65-2.58,5.65s-11.09-4.65-12.5-5.05c-3.33-0.97-7.55-0.08-9.68,2.66 c-2.56,3.28-3.08,7.76-3.08,7.76c-1.81,8.82-9.62,8.97-9.62,8.97c2.16-2.41,2.43-6.06,2.3-9.71c-0.43,0.56-1.62,2.6-6.19,2.95 C14.51,94.49,17.12,91.83,18.15,88.93z"/><path fill="#9A4DFF" d="M56.63 139.58L65.76 123.61 63.43 117.8 54.67 115.87 53.98 127.51 48.98 139.41 47.48 139.37 41.23 154.79 57.92 155.12 50.85 150.01 58.41 139.62z"/><path fill="#FFF771" d="M81.6,76.56c0,0-26.34-2.26-28.97-1.32c-2.15,0.77-8.17,9.6-8.62,11.02c-0.97,3.05-2.28,9.5-1.26,20.71 c0.05,0.54,22.49,15.73,23.22,18.09l-1.62,29.63c5.07,0.84,6.04-4.72,6.04-4.72l6.93-27.71l-5.16-6.19l9.43-1.77 C84.99,104.57,85.87,89.53,81.6,76.56z"/><path fill="#FF9BEA" d="M57.8,84.36c-0.06-0.66,0.07-1.37,0.44-2.09c1.39-2.68,5.37-2.14,7.12-0.17 c0.74,0.84,1.26,1.91,1.28,3.04c0.05,2.33-1.86,4.29-4.22,3.73C60.25,88.36,57.99,86.57,57.8,84.36z"/><path fill="#FF9BEA" d="M53.01,92.54c0.35-0.37,0.89-0.59,1.65-0.55c1.82,0.1,3.44,2.32,2.87,4.1 c-0.63,1.94-2.8,1.53-4.04,0.38C52.42,95.48,52.09,93.51,53.01,92.54z"/><path fill="#CCC" d="M56.93,93.26L56.93,93.26c-0.04-0.06-0.08-0.12-0.12-0.18C56.85,93.14,56.89,93.2,56.93,93.26z"/><path fill="#CCC" d="M56.93,93.26c0.08,0.1,0.15,0.21,0.22,0.31C57.08,93.47,57.01,93.36,56.93,93.26z"/><path fill="#FF9BEA" d="M65.57,93.62c0,0,1.79,1.67,0.62,3.23c0,0-1.21,1.94-3.61-0.28c0,0-1.61-1.9,0.19-3.21 C64.28,92.26,65.57,93.62,65.57,93.62z"/><path fill="#4620AE" d="M62.03 155.96L78.36 155.96 71.17 151.01 73.82 142.49 64.48 139.84z"/><path fill="#FFCA71" d="M79.3,107.44c0,0,0.91-0.26,2.24,0.04c0.61,0.13,0.58,0.53,0.96,2.43c0.24,1.2,0.42,2.11-1.59,3.06 l-1.16-3.78L79.3,107.44z"/><path fill="#FFCA71" d="M81.76,91.52c0.81,2.34,2.59,3.54,2.59,3.54s1.15-4.9,5.19-3.5c1.44,0.31,3.3,1.5,4.62,0.33 c0.21-0.18-1.07-0.75-0.68-1.13c0.32-0.31,1.5,0.44,1.83,0.2c0.76-0.56,1.09-0.45,1.64-0.34c0.76,0.16,1.19,0.15,1.27-1.15 c0.03-0.59,0.05-1.92,0.95-3.44l0,0c1.8-3.01,0.83-6.9-2.18-8.7c-3.01-1.8-6.9-0.83-8.7,2.18c-0.42,0.69-0.68,1.44-0.81,2.19 c-0.42,1.28-0.95,2.78-1.83,3.81c-0.62,0.78-1.21,0.6-1.21,0.6l-2.83,0.12C81.6,86.22,80.95,89.18,81.76,91.52z"/><path fill="#212121" d="M94.84,82.72c-1.79-0.39-2.28,0.37-3.15,1.8c-0.88,1.44-1.89,0.36-1.51-0.28 C90.86,83.1,90.02,82,89,82.6c-1.25,0.74-0.72,2.9-1.15,3.39c-0.43,0.49-2.46-0.64-1.88-1.51c0.58-0.87,1.61-4.25,2.31-4.97 c0.71-0.71,2.73-1.64,5.03-0.14C95.61,80.86,95.92,82.95,94.84,82.72z"/><g fill="#4620AE"><path d="M95.8,75.18c3.59,0.89,6.32,2.56,4.78,8.77l-13.17-2.83C89.05,74.52,91.3,74.06,95.8,75.18z"/><path d="M100.58,83.86l4.46,2c0.3,0.16,0.14,0.62-0.19,0.56c-2.07-0.37-6.4-1.22-10.02-3.79L100.58,83.86z"/></g><circle fill="#231F20" cx="96.23" cy="86.35" r=".33"/><path fill="#FBC02D" d="M96.12,85.31c0.31-0.07,0.6-0.07,0.89-0.01c0.3,0.07,0.6,0.21,0.88,0.43c0.18,0.14,0.12,0.28-0.1,0.19 c-0.81-0.3-1.16-0.35-1.76-0.41C95.79,85.48,95.83,85.38,96.12,85.31z"/><path fill="#212121" d="M96.12,85.31c0.31-0.07,0.6-0.07,0.89-0.01c0.3,0.07,0.6,0.21,0.88,0.43c0.18,0.14,0.12,0.28-0.1,0.19 c-0.81-0.3-1.16-0.35-1.76-0.41C95.79,85.48,95.83,85.38,96.12,85.31z"/><path fill="#4620AE" d="M81.08,78.04c-0.01-0.05-0.02-0.1-0.03-0.15c0,0-0.23,0.64-0.56,1.79c-0.44,1.51-1.05,3.92-1.55,6.93 c0.98-0.19,1.88-0.31,2.65-0.38l0.01,0c0.28-0.03,0.54-0.05,0.79-0.07C82.09,83.61,81.67,80.9,81.08,78.04"/><path fill="#9A4DFF" d="M83.03,98.07c-1.26,2.16-2.8,4.11-4.38,5.81c-0.93-6.5-0.46-12.61,0.3-17.27 c0.98-0.19,1.88-0.31,2.65-0.38l0.01,0c0.28-0.03,0.54-0.05,0.79-0.07c1.26-0.09,2.03-0.05,2.03-0.05 c-2.55,3.01,0.85,6.89,0.85,6.89c0,0.01,0,0.01-0.01,0.02C84.73,94.8,83.95,96.49,83.03,98.07"/><path fill="#4620AE" d="M83.03,98.07c-1.26,2.16-2.8,4.11-4.38,5.81c0.17,1.18,0.38,2.37,0.65,3.57l0,0 c0,0,0.91-0.26,2.24,0.04c0.31,0.07,0.45,0.21,0.57,0.57C82.55,105.59,82.95,102.24,83.03,98.07z"/><path fill="#FFF" d="M59.31,35.82c1.03,1.06,2.04,1.97,3.62,2.22c1.8,0.53,3.58-0.98,5.38-1.21c2-0.26,4.03,0.89,5.12,2.34 c1.77,2.36,1.2,5.71,4.73,6.46c2.72,0.57,5.25,0.16,8.35,0.39c2.06,0.15,4.61,0.7,5.81,2.38c1.28,1.81,0.35,5.32-0.58,7.39 l-54.08-0.18C43.51,47.68,50.86,40.94,59.31,35.82z"/><path fill="#D49CFF" d="M59.31,35.82c-0.44-0.45-0.88-0.93-1.37-1.4c-1.63-1.56-3.8-2.98-8.19-2.77 c-3.86,0.18-7.75,2.08-10.11,5.4c-0.01,0.02-0.03,0.04-0.04,0.06c-0.74,1.05-1.31,2.18-1.82,3.33c-0.47,1.06-0.58,2.47-1.61,3.24 c-0.06,0.05-0.12,0.1-0.19,0.15c-1.37,0.81-3.46-0.1-4.86-0.23c-1.36-0.13-2.79-0.16-4.2,0.13c-2.96,0.6-5,2.6-5.62,5.52 c-0.36,1.73,0.46,6.48,0.46,6.48l11.8-0.09l4.11-0.03C43.51,47.68,50.86,40.94,59.31,35.82z"/></g></svg>