<svg xmlns="http://www.w3.org/2000/svg" viewBox="4 2 16 20"><g id="message_bubble_question-filled"><path d="M4,2v20l5-5h11V2H4z M12.1,14c-0.43,0-0.79-0.35-0.79-0.79c0-0.43,0.35-0.79,0.79-0.79s0.79,0.35,0.79,0.79
	C12.89,13.65,12.54,14,12.1,14z M13.72,9.54c-0.42,0.38-0.81,0.73-0.91,1.29L12.77,11h-1.38l0.02-0.23
	c0.11-0.95,0.63-1.42,1.16-1.84c0.41-0.32,0.8-0.62,0.8-1.21c0-0.41-0.18-0.78-0.5-1.04c-0.32-0.25-0.73-0.34-1.12-0.23
	C11.29,6.58,10.93,7,10.82,7.54l-0.04,0.23H9.4l0.05-0.34c0.16-1.13,0.91-2.05,1.91-2.32c0.83-0.23,1.69-0.06,2.35,0.46
	c0.67,0.52,1.05,1.31,1.05,2.17C14.75,8.61,14.22,9.08,13.72,9.54z"/></g></svg>