<svg xmlns="http://www.w3.org/2000/svg" viewBox="2 6 20 12"><g height="24" width="24" id="quotation_mark"><path d="M17.5 7c1.93 0 3.5 1.57 3.5 3.5 0 1-.53 4.5-.85 6.5h-2.02l.24-1.89.14-1.09-1.1-.03A3.483 3.483 0 0 1 14 10.5C14 8.57 15.57 7 17.5 7m-11 0C8.43 7 10 8.57 10 10.5c0 1-.53 4.5-.85 6.5H7.13l.24-1.89.14-1.09-1.1-.03A3.483 3.483 0 0 1 3 10.5C3 8.57 4.57 7 6.5 7m11-1C15.01 6 13 8.01 13 10.5c0 2.44 1.95 4.42 4.38 4.49L17 18h4s1-6 1-7.5C22 8.01 19.99 6 17.5 6zm-11 0C4.01 6 2 8.01 2 10.5c0 2.44 1.95 4.42 4.38 4.49L6 18h4s1-6 1-7.5C11 8.01 8.99 6 6.5 6z"/></g></svg>