<svg xmlns="http://www.w3.org/2000/svg" viewBox="0 0 60 60"><g id="weibo"><g fill="none" fill-rule="evenodd"><circle fill="#FFF" cx="30" cy="30" r="30"/><circle stroke="#EAEAEA" cx="30" cy="30" r="29.5"/><g fill-rule="nonzero"><path d="M14 35.5c0 4.6950262 6.04584352 8.5 13.5 8.5 7.4541565 0 13.5-3.8049738 13.5-8.5S34.9541565 27 27.5 27C20.04584352 27 14 30.8049738 14 35.5" fill="#FFF"/><path d="M27.3761426 43.6124005c-6.45365226.6607543-12.02530537-2.3542842-12.44479277-6.7241466-.41948739-4.375415 4.47453223-8.4509919 10.92280647-9.1117462 6.4536522-.6607543 12.0253053 2.3542842 12.4394147 6.7241466.4248654 4.375415-4.4691542 8.4565444-10.9174284 9.1117462m12.9019265-14.5199368c-.5485605-.1721292-.9250235-.2831804-.6399872-1.027223.623853-1.6157941.6883896-3.0094859.0107561-4.0089462-1.2638403-1.86565918-4.7273003-1.76571316-8.6962964-.049973 0 0-1.2477061.5608082-.9250235-.4553097.6077189-2.02668333.5162921-3.72021324-.4302435-4.70301584-2.1512174-2.22657538-7.8788338.08328836-12.78898757 5.15277294C13.13508329 27.7931654 11 31.8187693 11 35.3002225 11 41.9521859 19.26605293 46 27.3492524 46c10.6001238 0 17.6507389-6.3576778 17.6507389-11.4049522.005378-3.0539064-2.4846561-4.7863042-4.7219222-5.5025841" fill="#E6162D"/><path d="M47.4694908 17.28258474c-2.4366706-2.73706627-6.0302479-3.77901763-9.3473961-3.06364804-.7678584.1658828-1.2541687.93309077-1.090359 1.70548258.1638098.77757564.9163111 1.27004022 1.6841695 1.10415741 2.3598847-.50801608 4.9142937.2332727 6.6445346 2.17721181s2.201194 4.59288014 1.4589309 6.9152394c-.2405956.7568403.1689289 1.565519.916311 1.8091593.7473822.2436404 1.5459549-.1710666 1.7865505-.9227231v-.0051838c1.0442875-3.26063388.3839292-6.98781313-2.0527414-9.71969556" fill="#F93"/><path d="M43.7237466 20.7757037c-1.2316662-1.48190528-3.0473119-2.04698978-4.7196173-1.65489033-.6848488.15568655-1.1201791.8937561-.9768386 1.63759183.1486493.74383572.8228804 1.21666153 1.5024203 1.05520881.8175715-.19028355 1.7094677.08649253 2.309374.80726358.5999064.72653722.7644825 1.71255201.5043461 2.57747731-.2123563.720771.1486493 1.4992037.8175715 1.7356167.6689221.2306467 1.3803155-.1614528 1.5979806-.88799.5255817-1.7702137.1964295-3.78837262-1.0352366-5.2702779" fill="#F93"/><path d="M27.8864165 36.7119245c-.2193097.3947001-.704924.5810863-1.0808835.4166279-.3759594-.1589764-.4908359-.603014-.2767479-.9867503.2193097-.3837362.6840374-.5701223 1.0547752-.4166278.3759594.1425305.5117226.5865682.3028562.9867502M25.886521 39.398078c-.6057125 1.01416-1.9059056 1.4581976-2.8823559.9922322-.9607853-.4604834-1.2479765-1.6391018-.6422641-2.631334.6004908-.9867503 1.8536891-1.4253059 2.8249177-.9977142.9816719.4440377 1.2949715 1.6116921.6997023 2.636816m2.2766434-7.1813491c-2.9815674-.81681-6.3495376.7455446-7.64450909 3.5029634-1.32107978 2.8122383-.04177327 5.9369475 2.96590249 6.9565894 3.1225522 1.0580156 6.7986003-.5646404 8.0779068-3.5961565 1.2636415-2.9712147-.3132996-6.0246586-3.3993002-6.8633963" fill="#000"/></g></g></g></svg>