<svg xmlns="http://www.w3.org/2000/svg" viewBox="0 0 48 48"><g id="hi5"><rect fill="#F7F7F7" width="48" height="48"/><path fill="#394142" d="M39.8,21.8c0.9,1.1,1.3,2.6,1.1,4.1c-0.1,1.7-0.9,3.4-2.2,4.4c-1.2,1-2.9,1.7-5.1,1.7
    c-1.6,0-3.2-0.3-4.5-1.1v0.7c-7.4,0-14.8,0-22.2,0c0-1.8,0-3.6,0-5.5h1.1v-4.7H7c0-1.8,0-3.7,0-5.5c2.8,0,5.5,0,8.3,0v3.9
    c1.4-0.5,3.2-0.5,4.4,0.5v-0.6h2v-2.9c2.1,0,4.2,0,6.3,0v2.2l0.6-3.1c3.8,0,7.6,0,11.4,0C40,17.9,39.9,19.9,39.8,21.8z"/><path fill-rule="evenodd" clip-rule="evenodd" fill="#FFA900" d="M23.2,18.3h3.4v2.3h-3.4V18.3z M17.2,21c2.3,0,2.6,2,2.6,2.8v3.8
    h1.2v2.6h-6v-2.6h0.6v-3.1c0-1.5-1.7-1-1.7,1.5v1.7h0.5v2.6H8.4v-2.6h1.1V20H8.4v-2.6h5.4V23C14.6,21.8,15.6,21,17.2,21z
     M21.2,21.2h5.4v6.4h1.1v2.6h-6.5v-2.6h1.1v-3.8h-1.1V21.2z"/><path fill-rule="evenodd" clip-rule="evenodd" fill="#FFFFFF" d="M35.3,21.4c2.4,0,4.4,1.2,4.3,4.4c0,2.5-2,4.8-5.8,4.8
    c-2.5,0-4.6-0.9-5.3-2.3c-0.8-1.4-0.2-3.6,1.7-3.6c1.2,0,2,0.5,1.7,1.9c-0.3,0.9,0.3,1.2,0.9,1.2c0.9,0,1.6-1,1.6-2.1
    c0-1-0.4-2-1.3-2c-0.4,0-0.8,0.1-1.2,0.7L28.6,24l1.2-6.6h8.7l-0.2,3.4h-5.8L32.5,22C33.4,21.6,34.4,21.4,35.3,21.4z"/></g></svg>