<svg xmlns="http://www.w3.org/2000/svg" viewBox="23.099998474121094 24.979999542236328 150.010009765625 150"><g viewBox="0 0 200 200" id="no-comments"><path fill="#B3B3B3" d="M57.89,86.77v23.97c0,12.37-15.81,21.3-25.4,25.58c-5.98-10.77-9.39-23.15-9.39-36.34 c0-11.59,2.63-22.57,7.33-32.37L57.89,86.77z"/><path fill="#CCC" d="M164.79,134.29c-10.08-3.61-26.47-11.43-26.47-24.12V51.03c0-0.85-0.69-1.54-1.54-1.54H60.04 c-1.5,0-2.15,0.43-2.15,2.15v35.14L30.44,67.62C42.52,42.4,68.28,24.98,98.11,24.98c41.42,0,75,33.58,75,75 C173.11,112.35,170.09,124,164.79,134.29z"/><path fill="#949494" d="M57.89,86.77V51.64c0-1.72,0.64-2.15,2.15-2.15h76.74c0.85,0,1.54,0.69,1.54,1.54v59.14 c0,12.69,16.39,20.51,26.47,24.12c-0.03,0.07-0.07,0.13-0.1,0.2c-14.13-1.65-28.77-2.86-43.4-3.48 c-31.29-1.32-62.52,0.07-88.62,5.63c-0.06-0.1-0.12-0.21-0.18-0.31c9.59-4.28,25.4-13.21,25.4-25.58V86.77"/><path fill="#CCC" d="M162.65,138.17c0.72-1.21,1.39-2.44,2.04-3.69c-14.13-1.65-28.77-2.86-43.4-3.48 c-31.29-1.32-62.52,0.07-88.62,5.63c0.7,1.25,1.44,2.48,2.21,3.68c13.32,20.84,36.65,34.67,63.22,34.67 c21.07,0,40.09-8.7,53.71-22.68C155.96,148.05,159.61,143.31,162.65,138.17z"/><path fill="#565656" d="M63.02,146.12v4.68h0.1c0,1.54,15.55,4.02,34.74,4.02s34.74-2.48,34.74-4.02v-4.68H63.02z"/><path opacity=".25" fill="none" d="M67.62 147.85L67.65 147.94"/><path opacity=".25" fill="none" d="M67.62 147.85L67.65 147.94"/><path fill="#565656" d="M41.21,60.88l4.04,2.55l5.58-12.07l-12.8-4l-4.12,8.92l5.59,3.52v83.9c-4.98,0.43-8.61,3.28-8.61,3.28 H49.8c-2.95-2.36-5.91-3.23-8.59-3.33V60.88z"/><path fill="#565656" d="M150.51,141.24h18.92c0,0-3.51-2.96-8.61-3.3V51.8l1.21-2.56l-8.26-5.32l-8.66,10.24l11.18,7.2l2.81-5.93 v82.51C156.48,138.07,153.55,138.96,150.51,141.24z"/><ellipse fill="#FFF" cx="97.81" cy="145.96" rx="34.74" ry="4.72"/></g></svg>