<svg xmlns="http://www.w3.org/2000/svg" viewBox="2 2 20 20"><g id="celebration"><path d="M7.44,8.85l7.71,7.71L3.58,20.42L7.44,8.85 M7,7L2,22l15-5L7,7L7,7z M15.35,10.27c0.32-0.46,0.39-1.04,0.19-1.57
	c-0.08-0.22-0.05-0.45,0.08-0.64c0.13-0.19,0.34-0.3,0.57-0.3h0.49c0.5,0,0.97-0.24,1.25-0.65c0.29-0.41,0.35-0.93,0.18-1.4
	c-0.06-0.16-0.04-0.34,0.06-0.48S18.44,5,18.61,5H20V4h-1.39c-0.5,0-0.97,0.24-1.25,0.65s-0.35,0.93-0.18,1.4
	c0.06,0.16,0.04,0.34-0.06,0.48c-0.1,0.14-0.26,0.22-0.43,0.22H16.2c-0.56,0-1.08,0.27-1.4,0.73s-0.39,1.04-0.19,1.57
	c0.08,0.22,0.05,0.45-0.08,0.64C14.4,9.89,14.19,10,13.96,10H12v1h1.96C14.52,11,15.04,10.73,15.35,10.27z M17.87,12.25
	c0.99-0.88,2.49-0.83,3.43,0.1L22,11.65c-1.31-1.31-3.42-1.37-4.8-0.14l-2.39,2.12l0.66,0.75L17.87,12.25z M12.59,7.01
	c0.68-0.68,1.03-1.61,0.98-2.57S13.06,2.6,12.31,2l-0.62,0.78c0.52,0.42,0.85,1.05,0.88,1.72s-0.21,1.33-0.69,1.8L9.65,8.54
	l0.71,0.71L12.59,7.01z M10,5c0-0.55-0.45-1-1-1S8,4.45,8,5s0.45,1,1,1S10,5.55,10,5z M20,15c0-0.55-0.45-1-1-1s-1,0.45-1,1
	s0.45,1,1,1S20,15.55,20,15z"/></g></svg>