<svg xmlns="http://www.w3.org/2000/svg" viewBox="2.0299999713897705 82.88080596923828 261.22607421875 136.8192138671875"><g class="hashtag_landing_page_error_dark_mode__cls-2" clip-path="url(#hashtag_landing_page_error_dark_mode__a)"><path d="M211.85 83c37.45 1.7 52.35 19.57 51.36 39.29-1 20-20 36.61-61.18 49.09C154.21 185.9 89 202.63 89 202.63l-18.66-10.88s86.6-23 106.58-28.64c15.1-4.25 64.61-16.67 71.49-39.15 6.29-20.53-12.48-31.79-35.25-36C191.43 84 153 89.7 153 89.7s29.6-8 58.84-6.67" fill="#cbcd00"/><path class="hashtag_landing_page_error_dark_mode__cls-10" d="M88.89290963 196.45456298l54.19224104-13.87388235.37946085 1.4821975-54.19224104 13.87388236zM89.95036936 190.81553876l35.45817104-9.38831755.38904697 1.46936805-35.45817105 9.38831754z"/><path fill="#6b9fff" d="M2.03 219.7L64.45 170l60.45 41.8z"/><path class="hashtag_landing_page_error_dark_mode__cls-5" d="M2.03 219.7L64.45 170l60.45 41.8z"/></g></svg>