<svg xmlns="http://www.w3.org/2000/svg" viewBox="97.77156066894531 50.710838317871094 189.38478088378906 170.02615356445312"><g class="hashtag_landing_page_error__cls-2" clip-path="url(#hashtag_landing_page_error__a)"><path d="M286.1 150.6c-7.88 45.31-57.87 77.57-109.2 68.65s-85.92-55.9-78-101.2c7.14-41.29 55.8-74.81 107.1-65.89s88 53.14 80.08 98.45" fill="#ffbebb"/><path d="M232.6 137.7a42.07 42.07 0 11-42.07-42.08 42.07 42.07 0 0142.07 42.08" fill="#ff8c34"/><path class="hashtag_landing_page_error__cls-5" d="M184.6 197.7c.92 1.26.46 2.45-.8 3.37s-2.83 1.25-3.76 0a2.82 2.82 0 01.88-3.9 2.5 2.5 0 013.68.54M146.73157003 69.19721195l1.37433444-.67238742 4.90886765 10.03353967-1.37433444.67238742z"/><path class="hashtag_landing_page_error__cls-5" d="M145.45139157 78.3317295l8.11104295-6.83981595.98632596 1.16964145-8.11104295 6.83981595z"/></g></svg>