<svg xmlns="http://www.w3.org/2000/svg" viewBox="14 15 31.477577209472656 29.846847534179688"><g fill="#FFF"><path d="M17.88024691 22.0816337c2.14182716 0 3.87817284-1.58346229 3.87817284-3.53891365C21.75841975 16.58553851 20.02207407 15 17.88024691 15 15.73634568 15 14 16.58553851 14 18.54272005c0 1.95545136 1.73634568 3.53891365 3.88024691 3.53891365M14.88888889 44.8468474h6.95851852V24.77777778h-6.95851852zM31.6137778 33.6848316c0-2.3014877 1.0888889-4.552108 3.6925432-4.552108 2.6036543 0 3.2438518 2.2506203 3.2438518 4.4970883v10.960701h6.9274074V33.1816948c0-7.9263084-4.6853333-9.29280591-7.5676049-9.29280591-2.8798518 0-4.4682469.9740923-6.2961975 3.33440621v-2.70185178h-6.9471111V44.5905129h6.9471111V33.6848316z"/></g></svg>