<svg xmlns="http://www.w3.org/2000/svg" viewBox="1.4080747365951538 13.810003280639648 196.74188232421875 172.4431915283203"><g viewBox="0 0 200 200" id="no-held-comments-v2"><path fill="#FFF" d="M148.72 119.48c-.86-1.24-1.69-2.38-2.51-3.43 1-1.53 2.19-2.77 2.19-5.76 0-4.65-2.91-5.06-3.43-9a9.5 9.5 0 0 1-.08-1.25c0-5.11 3.51-5.11 3.51-10.21a8.12 8.12 0 0 0-.42-2.69c-.93-2.65-3.09-3.52-3.09-7.53a9 9 0 0 1 .16-1.74c.48-2.38 1.88-4.41 2.38-6.69H172c.5 2.28 1.91 4.31 2.38 6.69a5.71 5.71 0 0 1 .12.87 8.19 8.19 0 0 1 0 .87c0 2.95-1.17 4.2-2.15 5.71a8.29 8.29 0 0 0-.64 7.89c1 2.14 2.79 3.19 2.79 6.83a9.5 9.5 0 0 1-.08 1.25c-.52 3.9-3.42 4.31-3.42 9 0 5.11 3.5 5.11 3.5 10.22 0 3.89-2 4.82-3 7.31a7.79 7.79 0 0 0-.5 2.9 9.07 9.07 0 0 0 .14 1.65 78.7 78.7 0 0 1-10.79 7.25q-2.24-4.32-4.27-8c-1.29-2.32-2.54-4.47-3.73-6.44s-2.45-3.99-3.63-5.7z"/><path fill="#E4E4E4" d="M144.45 88.58a.72.72 0 0 1-.58-.3.71.71 0 0 1 .17-1c1.86-1.31 4.1-3.51 4.23-6.52a.72.72 0 0 1 .73-.68.71.71 0 0 1 .68.74c-.11 2.84-1.78 5.48-4.82 7.62a.71.71 0 0 1-.41.14zM144.74 96.94a.72.72 0 0 1-.61-.34.71.71 0 0 1 .23-1c5.83-3.6 9.27-8.3 10.22-14a.71.71 0 0 1 1.4.24c-1 6.1-4.68 11.13-10.87 15a.64.64 0 0 1-.37.1zM143.54 105.62a.72.72 0 0 1-.65-.42.71.71 0 0 1 .36-.94c5.6-2.49 9.57-5.81 11.8-9.88a.71.71 0 0 1 1-.29.72.72 0 0 1 .28 1c-2.38 4.35-6.57 7.88-12.46 10.5a.79.79 0 0 1-.33.03zM165.17 104.86a.7.7 0 0 1-.57-1.14 16 16 0 0 1 9.65-6.1.71.71 0 0 1 .28 1.4 14.56 14.56 0 0 0-8.8 5.57.71.71 0 0 1-.56.27zM162.67 115.5a.69.69 0 0 1-.2 0 .71.71 0 0 1-.49-.87l.18-.57c1.47-4.26 6-7.81 11.59-9a.71.71 0 0 1 .3 1.39c-5.09 1.12-9.24 4.31-10.55 8.12l-.15.48a.71.71 0 0 1-.68.45zM152.9 126.72a.7.7 0 0 1-.61-.35.71.71 0 0 1 .25-1c3-1.8 4.78-4 5.16-6.65a.7.7 0 0 1 .8-.6.71.71 0 0 1 .6.81c-.45 3.05-2.41 5.63-5.84 7.66a.68.68 0 0 1-.36.13zM156.12 132.32a.75.75 0 0 1-.6-.32.72.72 0 0 1 .21-1 12.57 12.57 0 0 0 5.39-6.33.71.71 0 1 1 1.35.45 14 14 0 0 1-6 7.07.71.71 0 0 1-.35.13z"/><path fill="#6628D4" d="M71.39 108.64l-2.85-5.86-3.27-6.72a11.39 11.39 0 0 1-8.87 4.4c-8.53 0-7.83-7.94-8.85-16.22l23-12.67A21.91 21.91 0 0 0 65 66.35a9.79 9.79 0 0 1-4.21 5.93 10.34 10.34 0 0 1-5.7 1.72 9.16 9.16 0 0 1-1.83-.18 11.25 11.25 0 0 1-4.42-2 14 14 0 0 1-3 5.08c-4.66 4.89-11 1.9-11 7.36 0 1.84.88 4 .88 5.67a2.92 2.92 0 0 1-3 3c-2.45 0-3.66-3.43-3.66-6 0-5.83 6.4-10 10.86-12.82l6.33-4.6a14.25 14.25 0 0 1-1.61-2.26l6.65-4.46a27 27 0 0 0-15.22 4.7 27.85 27.85 0 0 0-5.58 5c-3.3-3.75-7.27-6-12.06-6A19.65 19.65 0 0 0 5.7 71.53 11.64 11.64 0 0 0 1.62 80a10.59 10.59 0 0 0 1.27 5.07 7.81 7.81 0 0 0 6.94 4.33h.78c5.33-.44 7.18-5.48 15.14-8.75a28.13 28.13 0 0 0-1.85 10 28.63 28.63 0 0 0 6.94 18.93 29.65 29.65 0 0 0 20.6 10.22 16 16 0 0 1 4.68-.69 17.12 17.12 0 0 1 2.76.22 62.5 62.5 0 0 0 15.22-5.08z"/><path fill="#9A43FF" d="M55.79 106.57a17.51 17.51 0 0 1-11.53-4.06.71.71 0 1 1 .93-1.08c6.6 5.63 16.35 4.27 22.58 0a.71.71 0 1 1 .8 1.17 23.16 23.16 0 0 1-12.78 3.97zM57.82 113.72a25 25 0 0 1-10-2 .71.71 0 1 1 .56-1.3 24.93 24.93 0 0 0 22.62-1.8l.26-.17a.71.71 0 0 1 .77 1.2l-.28.18a26.32 26.32 0 0 1-13.93 3.89zM55.82 80.39a.68.68 0 0 1-.51-.22 8.88 8.88 0 0 0-5.85-2.65.71.71 0 0 1 .08-1.42 10.32 10.32 0 0 1 6.8 3.1.7.7 0 0 1-.52 1.19zM61.29 77.37a.71.71 0 0 1-.51-.21 4.71 4.71 0 0 0-3-1.38.71.71 0 1 1 .22-1.41 6.06 6.06 0 0 1 3.79 1.8.72.72 0 0 1 0 1 .69.69 0 0 1-.5.2z"/><path fill="#CBCBCB" d="M140.81 37.66a28.16 28.16 0 0 0-8.48-12l-.16-.13c7-1.45 14.07-.06 19.42 4.37.22.18.42.36.62.54l7.51-16.63 7.51 16.63.62-.54c5.35-4.43 12.44-5.82 19.43-4.37l-.16.13a28.18 28.18 0 0 0-8.49 12h.09a26 26 0 0 1 19.43 8.85h-.23a33.52 33.52 0 0 0-15.5 3.72c5.77 2.31 9.94 8.36 11.21 14.65a24.67 24.67 0 0 0-12-3.59c-6.45 0-9.77 4.12-9.77 8.34a6.92 6.92 0 0 0 .19 1.59h-24.62a6.92 6.92 0 0 0 .19-1.59c0-4.22-3.31-8.34-9.77-8.34a24.7 24.7 0 0 0-12 3.59c1.28-6.29 5.45-12.34 11.22-14.65a33.58 33.58 0 0 0-15.51-3.72h-.22a26.56 26.56 0 0 1 4.43-4 25.61 25.61 0 0 1 15-4.86z"/><path fill="#E4E4E4" d="M176.8 101.33h-2.33a9.5 9.5 0 0 0 .08-1.25c0-3.64-1.77-4.69-2.79-6.83a8.29 8.29 0 0 1 .64-7.89 73.09 73.09 0 0 1 4.4 15.97z"/><path fill="#CBCBCB" d="M176.8 101.33h-2.33c-.52 3.9-3.42 4.31-3.42 9 0 5.11 3.5 5.11 3.5 10.22 0 3.89-2 4.82-3 7.31a7.79 7.79 0 0 0-.5 2.9 9.07 9.07 0 0 0 .14 1.65 65.14 65.14 0 0 0 4.92-4.37v-.18a74.16 74.16 0 0 0 .65-26.49z"/><path fill="#D09BFF" d="M138 133.13c-4.14-1.16-7.4-3.25-8-7.77a16 16 0 0 1-4 .59 7.63 7.63 0 0 1-7.89-6.71 20.44 20.44 0 0 1-8.39 1.82 12.19 12.19 0 0 1-2-.16c4.58-6.63 10.22-12.47 16.45-14.58a15.2 15.2 0 0 1 4.9-.84c6 0 11.23 2.94 17.2 10.57.82 1 1.65 2.19 2.51 3.43q1.77 2.56 3.68 5.7c1.19 2 2.44 4.12 3.73 6.44s2.78 5.12 4.27 8a102.19 102.19 0 0 1-24.5 9.65 26.26 26.26 0 0 0 .94-2.76 36.4 36.4 0 0 0 1.28-10.1c-.06-1.09-.1-2.19-.18-3.28z"/><path fill="#CBCBCB" d="M148.4 110.29c0 3-1.2 4.23-2.19 5.76-6-7.63-11.17-10.57-17.2-10.57a15.2 15.2 0 0 0-4.9.84c-.39-1.49-.82-3.18-1.32-5H145c.49 3.91 3.4 4.32 3.4 8.97z"/><path fill="#B476FF" d="M138 133.13c.09 1.09.13 2.19.13 3.28a36.4 36.4 0 0 1-1.28 10.1c-5-.1-10.15-2.73-12.71-6.73h-.19c-5 0-11.48-3.12-13.4-7.77a15 15 0 0 1-6.11 1.4 12 12 0 0 1-3.68-.57 95.22 95.22 0 0 1 5.1-9.21c.59-.92 1.19-1.84 1.81-2.73a12.19 12.19 0 0 0 2 .16 20.44 20.44 0 0 0 8.39-1.82A7.63 7.63 0 0 0 126 126a16 16 0 0 0 4-.59c.59 4.47 3.85 6.59 8 7.72z"/><path d="M136.84 146.51a26.26 26.26 0 0 1-.94 2.76 125.65 125.65 0 0 1-27.9 3.87c-1.26-6.15-4.75-11-10.41-13 .82-2.13 1.9-4.64 3.2-7.3a12 12 0 0 0 3.68.57 15 15 0 0 0 6.11-1.4c1.92 4.65 8.4 7.77 13.4 7.77h.19c2.52 4 7.71 6.63 12.67 6.73z" fill="#6628d5"/><path fill="#B476FF" d="M103.62 88.28a4.94 4.94 0 0 1-.73-2.53v-.23c.13-2.67 2.65-4.4 5.25-4.4a6.85 6.85 0 0 1 .91 0c7.46.81 11.35 11.58 13.73 20.16.5 1.8.93 3.49 1.32 5-6.23 2.11-11.87 8-16.45 14.58-.62.89-1.22 1.81-1.81 2.73a14.58 14.58 0 0 0-1.6-1.86l1.51-11.88.71-5.52a5.94 5.94 0 0 0 .12-1.16 3.72 3.72 0 0 0-1.92-3.32c-1.6-1-3.56-1.6-3.56-4a3.75 3.75 0 0 1 1.41-3.17 4.34 4.34 0 0 1-.32-1.6 3.69 3.69 0 0 1 1.43-2.8z"/><path fill="#FFF" d="M109.73 75.2l-.67 6a6.85 6.85 0 0 0-.91 0c-2.6 0-5.12 1.73-5.25 4.4h-.65a13.83 13.83 0 0 1-2.82-.25l2.76-10.09z"/><path fill="#FF80FF" d="M106.59 103.21a5.94 5.94 0 0 1-.12 1.16l-.71 5.52H89.65l-.79-8.56-1.54-16.7A8.38 8.38 0 0 1 92 83.32a9.86 9.86 0 0 1 4.1.82l-5.7 20.78a1.78 1.78 0 0 0 1.25 2.18 1.84 1.84 0 0 0 .47.06 1.78 1.78 0 0 0 1.71-1.3l5.63-20.57a13.83 13.83 0 0 0 2.82.25h.65v.23a4.94 4.94 0 0 0 .73 2.53 3.69 3.69 0 0 0-1.42 2.88 4.34 4.34 0 0 0 .32 1.6 3.75 3.75 0 0 0-1.41 3.17c0 2.35 2 3 3.56 4a3.72 3.72 0 0 1 1.88 3.26z"/><path fill="#CBCBCB" d="M105.76 109.89l-1.51 11.88a11.56 11.56 0 0 0-8.25-3.48 13.91 13.91 0 0 0-4.38.72c-5.71 1.87-9.5 6.83-14.14 6.83a3.38 3.38 0 0 1-3.48-3.33c0-6.3 12.37-5.93 12.37-17.63a15.79 15.79 0 0 0-.41-3.55h2.87l.79 8.56z"/><path fill="#B476FF" d="M120 58.12l-8.28-1.82a8.19 8.19 0 0 0-9.67 5.85L101 66.29l-2.49 8.91-2.44 8.94a15.62 15.62 0 0 0 3.36 1.15l2.76-10.09 2.48-9.07.84-3a4.66 4.66 0 0 1 5.49-3.37l8.28 1.82a1.77 1.77 0 1 0 .76-3.46z"/><path fill="#9A43FF" d="M99.43 85.29l-5.63 20.57a1.78 1.78 0 0 1-1.71 1.3 1.84 1.84 0 0 1-.47-.06 1.78 1.78 0 0 1-1.25-2.18l5.7-20.78a15.62 15.62 0 0 0 3.36 1.15z"/><path fill="#FFF" d="M98.51 75.2l-2.44 8.94a9.86 9.86 0 0 0-4.1-.82 8.38 8.38 0 0 0-4.65 1.31l-.16-1.8a8.47 8.47 0 0 0 7.73-7.63z"/><path fill="#FF80FF" d="M86.46 75.2h8.43a8.47 8.47 0 0 1-7.73 7.63z"/><path fill="#FB21F8" d="M94.93 74.38a8.48 8.48 0 0 0-17 0 8.33 8.33 0 0 0 1.14 4.24 8.46 8.46 0 0 0 7.34 4.25 5.53 5.53 0 0 0 .71 0l-.7-7.63h8.43a7.38 7.38 0 0 0 .08-.86z"/><path fill="#D09BFF" d="M58.89 119.3a62.5 62.5 0 0 0 15.22-5.08l-2.72-5.58-2.85-5.86-3.27-6.72a11.39 11.39 0 0 1-8.87 4.4c-8.53 0-7.83-7.94-8.85-16.22l23-12.67a34.58 34.58 0 0 1 5.06 10.09 8.07 8.07 0 0 1 1.74-.44h.08a2.36 2.36 0 0 1 .38 0 3.18 3.18 0 0 1 3 3.41 4.85 4.85 0 0 1-2 3.66c.65.8 1.29 1.63 1.91 2.49A29.83 29.83 0 0 1 86 101.33a15.79 15.79 0 0 1 .41 3.55c0 11.7-12.37 11.33-12.37 17.63a3.38 3.38 0 0 0 3.41 3.33c4.64 0 8.43-5 14.14-6.83v20.11a18.47 18.47 0 0 1 6 1c5.66 2 9.15 6.85 10.41 13-1.24 0-2.48.05-3.73.05-3.79 0-7.53-.16-11.19-.47-6.63 7.39-17.35 14.64-25.93 14.64-14.32 0-25.84-19-26-32.11v-.3c0-7.85 4.35-13.32 10.35-15.18a16 16 0 0 1 4.68-.69 17.12 17.12 0 0 1 2.71.24z"/><path fill="#CBCBCB" d="M29.61 37.66a28.16 28.16 0 0 0-8.48-12l-.13-.09c7-1.45 14.07-.06 19.42 4.37.22.18.43.36.62.54l7.5-16.63L56 30.48l.62-.54c5.35-4.43 12.44-5.82 19.43-4.37l-.16.13a28.18 28.18 0 0 0-8.49 12h.09a25.6 25.6 0 0 1 15 4.91 26.78 26.78 0 0 1 4.51 3.9h-.23a33.52 33.52 0 0 0-15.5 3.72c5.77 2.31 9.94 8.36 11.21 14.65a24.67 24.67 0 0 0-12-3.59 11.56 11.56 0 0 0-5.3 1.17 14.42 14.42 0 0 0-3-7l-.94.63-3.56 2.41L54 61l-2.68 1.81a27 27 0 0 0-15.22 4.7c-.95-3.36-4.14-6.17-9.47-6.17a24.73 24.73 0 0 0-12 3.59c1.28-6.29 5.45-12.34 11.22-14.65a33.58 33.58 0 0 0-15.51-3.72h-.24a26 26 0 0 1 19.42-8.85z"/><path fill="#E4E4E4" d="M148.4 89.87a8.12 8.12 0 0 0-.42-2.69c-.93-2.65-3.09-3.52-3.09-7.53a9 9 0 0 1 .16-1.74c.48-2.38 1.88-4.41 2.38-6.69a6.92 6.92 0 0 0 .19-1.59c0-4.22-3.31-8.34-9.77-8.34a24.7 24.7 0 0 0-12 3.59c1.28-6.29 5.45-12.34 11.22-14.65a33.58 33.58 0 0 0-15.51-3.72h-.22a26.56 26.56 0 0 1 4.43-4 73.89 73.89 0 0 0-43.15 0 26.78 26.78 0 0 1 4.38 4h-.23a33.52 33.52 0 0 0-15.5 3.72c5.77 2.31 9.94 8.36 11.21 14.65a24.67 24.67 0 0 0-12-3.59 11.56 11.56 0 0 0-5.3 1.17 10.89 10.89 0 0 1 .05 1.54 10.6 10.6 0 0 1-.23 2.35 21.91 21.91 0 0 1 5.57 5.22 34.58 34.58 0 0 1 5.06 10.09 8.07 8.07 0 0 1 1.74-.44h.08a2.36 2.36 0 0 1 .38 0 3.18 3.18 0 0 1 3 3.41 4.85 4.85 0 0 1-2 3.66c.65.8 1.29 1.63 1.91 2.49A29.83 29.83 0 0 1 86 101.33h2.87l-1.54-16.7-.16-1.8a5.53 5.53 0 0 1-.71 0 8.46 8.46 0 0 1-7.34-4.25 8.33 8.33 0 0 1-1.12-4.2 8.48 8.48 0 1 1 17 0 7.38 7.38 0 0 1 0 .82h3.62l2.38-8.91 1.14-4.14a8.19 8.19 0 0 1 9.67-5.85l8.19 1.82a1.77 1.77 0 1 1-.76 3.46L111 59.76a4.66 4.66 0 0 0-5.49 3.32l-.84 3-2.48 9.07h7.54l-.67 6c7.46.81 11.35 11.58 13.73 20.16H145a9.5 9.5 0 0 1-.08-1.25c-.03-5.06 3.48-5.06 3.48-10.19z"/><path fill="#FB21F8" d="M65.1 62.46a10.89 10.89 0 0 1 .13 1.54 10.6 10.6 0 0 1-.23 2.35 9.79 9.79 0 0 1-4.21 5.93 6.08 6.08 0 0 1-.53-2.55c0-3.07 1.83-6.07 1.83-9.45a10.66 10.66 0 0 0-.85-4.15l.94-.63a14.42 14.42 0 0 1 2.92 6.96z"/><path d="M61.2 56.13a10.66 10.66 0 0 1 .85 4.15c0 3.38-1.83 6.38-1.83 9.45a6.08 6.08 0 0 0 .53 2.55 10.46 10.46 0 0 1-4.08 1.56 6.63 6.63 0 0 1-.84-3.3c0-3.53 2.17-6.66 2.17-10a6.62 6.62 0 0 0-.32-2.08z" fill="#fbb3ff"/><path fill="#FF80FF" d="M57.68 58.5a6.62 6.62 0 0 1 .32 2.08c0 3.3-2.17 6.43-2.17 10a6.63 6.63 0 0 0 .84 3.3 10.41 10.41 0 0 1-1.58.12 9.16 9.16 0 0 1-1.83-.18 9 9 0 0 1-.84-3.8c0-3.46 1.92-5 1.92-7.42A4.69 4.69 0 0 0 54 61z"/><path fill="#FB21F8" d="M54 61a4.69 4.69 0 0 1 .31 1.61c0 2.44-1.92 4-1.92 7.42a9 9 0 0 0 .84 3.8 11.25 11.25 0 0 1-4.42-2 15.9 15.9 0 0 1-2.53-2.33 14.25 14.25 0 0 1-1.61-2.26l6.65-4.46z"/><path fill="#9A43FF" d="M46.31 69.48a15.9 15.9 0 0 0 2.53 2.33 14 14 0 0 1-3 5.08c-4.66 4.89-11 1.9-11 7.36 0 1.84.88 4 .88 5.67a2.92 2.92 0 0 1-3 3c-2.45 0-3.66-3.43-3.66-6 0-5.83 6.4-10 10.86-12.82z"/><path fill="#FFF" d="M41.09 135v.3q-2.09-1.45-4-3a9.73 9.73 0 0 0 .12-1.51 7.79 7.79 0 0 0-.5-2.9c-1-2.49-3-3.42-3-7.31 0-3.24 1.4-4.42 2.44-6.15a29.3 29.3 0 0 0 15.31 5.41c-6.02 1.79-10.37 7.26-10.37 15.16z"/><path fill="#CBCBCB" d="M36.7 127.82c-1-2.49-3-3.42-3-7.31 0-3.24 1.4-4.42 2.44-6.15a29 29 0 0 1-5.29-4.81c-.05 1.07-.08 2.15-.08 3.24a73.68 73.68 0 0 0 1.54 15v.18c1.48 1.46 3.07 2.87 4.74 4.23a9.73 9.73 0 0 0 .12-1.51 7.79 7.79 0 0 0-.47-2.87z"/><path fill="#9A43FF" d="M76.54 94.05h-.76a.71.71 0 0 1 .14-1.42 6.13 6.13 0 0 0 2-.11 6.29 6.29 0 0 0 2.76-1.42.71.71 0 0 1 .94 1.06 7.69 7.69 0 0 1-3.39 1.74 7.58 7.58 0 0 1-1.69.15z"/><path fill="#9A43FF" d="M73.65 97.05a.71.71 0 0 1-.32-1.35 2.87 2.87 0 0 0 1.58-2.08 2.7 2.7 0 0 0-.75-2.34.71.71 0 0 1 1-1 4.11 4.11 0 0 1 1.11 3.56A4.3 4.3 0 0 1 74 97a.72.72 0 0 1-.35.05zM64.32 86.91a.72.72 0 0 1-.7-.57A5.61 5.61 0 0 1 66.15 80a5.73 5.73 0 0 1 6.92 1.38.71.71 0 0 1-1 1 4.34 4.34 0 0 0-5.22-1.12A4.22 4.22 0 0 0 65 86.05a.7.7 0 0 1-.55.84zM90.9 156.83a.7.7 0 0 1-.49-.19.71.71 0 0 1 0-1 40.3 40.3 0 0 0 6.37-8.14.71.71 0 0 1 1-.28.72.72 0 0 1 .27 1 41.68 41.68 0 0 1-6.58 8.43.68.68 0 0 1-.57.18zM73.43 145h-.18a.68.68 0 0 1-.45-.36c-5.18-10.32-11.23-15.64-12.73-16.33a.71.71 0 0 1 .58-1.3c1.65.75 7.72 6 13.06 16.25 6-3.82 11.33-5.68 16.15-5.68.55 0 1.11 0 1.65.08a.71.71 0 1 1-.14 1.41c-.49 0-1-.07-1.51-.07-4.72 0-10 1.92-16 5.87a.69.69 0 0 1-.43.13z"/><path d="M108 153.14a125.65 125.65 0 0 0 27.94-3.87 102.19 102.19 0 0 0 24.5-9.65 78.7 78.7 0 0 0 10.79-7.25 65.14 65.14 0 0 0 4.92-4.37 73.48 73.48 0 0 1-143.77 0q2.22 2.19 4.74 4.23 1.92 1.56 4 3c.17 13.13 11.69 32.11 26 32.11 8.58 0 19.3-7.25 25.93-14.64 3.66.31 7.4.47 11.19.47 1.24.02 2.48 0 3.76-.03z" fill="#eedcff"/><circle fill="#D09BFF" cx="90.78" cy="166.43" r="1.15"/><circle fill="#D09BFF" cx="101.56" cy="157.46" r="1.15"/><circle fill="#D09BFF" cx="98.79" cy="180.85" r="1.15"/><circle fill="#D09BFF" cx="117.84" cy="178.89" r="1.15"/><circle fill="#D09BFF" cx="126.93" cy="167.5" r="1.15"/><circle fill="#D09BFF" cx="127.64" cy="156.1" r="1.15"/><circle fill="#D09BFF" cx="111.37" cy="166.69" r="1.15"/><circle fill="#D09BFF" cx="141.46" cy="169.53" r="1.15"/><circle fill="#D09BFF" cx="154.04" cy="160.63" r="1.15"/><circle fill="#D09BFF" cx="166.02" cy="141.96" r="1.15"/><circle fill="#D09BFF" cx="156.27" cy="148.67" r="1.15"/><circle fill="#D09BFF" cx="142.6" cy="157.52" r="1.15"/><circle fill="#D09BFF" cx="39.13" cy="139.36" r="1.15"/><circle fill="#D09BFF" cx="78.42" cy="174.88" r="1.15"/><path fill="#6628D4" d="M135.71 149.1a.91.91 0 0 1-.23 0 .72.72 0 0 1-.45-.9 38.27 38.27 0 0 0 1.69-7.82 46 46 0 0 0-2.55-20.57.72.72 0 0 1 .42-.91.71.71 0 0 1 .91.43 47.53 47.53 0 0 1 2.63 21.2 39.72 39.72 0 0 1-1.75 8.12.7.7 0 0 1-.67.45zM66.24 125.33a.71.71 0 0 1-.59-.3c-2.78-4-6-6.15-9.17-6.15a.71.71 0 0 1 0-1.42c3.71 0 7.28 2.34 10.34 6.76a.7.7 0 0 1-.58 1.11z"/><path fill="#9A43FF" d="M88.08 130.9a.71.71 0 0 1-.52-1.19c2.56-2.8 6.08-3.18 9.17-3.32a.71.71 0 0 1 .06 1.42c-2.93.13-6 .46-8.19 2.86a.71.71 0 0 1-.52.23z"/><path fill="#FFF" d="M104.25 121.77a14.58 14.58 0 0 1 1.6 1.86 95.22 95.22 0 0 0-5.1 9.21 93.02 93.02 0 0 0-3.2 7.3 18.47 18.47 0 0 0-6-1V119a13.91 13.91 0 0 1 4.38-.72 11.56 11.56 0 0 1 8.32 3.49z"/><path fill="#FF80FF" d="M100.4 97.93a.72.72 0 0 1-.66-.46c-1.2-3.13.81-5.51 3.33-6.47a7.72 7.72 0 0 1 8.39 2 .7.7 0 0 1-.07 1 .71.71 0 0 1-1-.06 6.25 6.25 0 0 0-6.81-1.65c-1.81.7-3.42 2.28-2.52 4.64a.71.71 0 0 1-.4.92.8.8 0 0 1-.26.08z"/><path fill="#FF80FF" d="M101.16 93.49a.7.7 0 0 1-.7-.62 5.87 5.87 0 0 1 3.48-6.33 7.56 7.56 0 0 1 8.38 1.34.72.72 0 0 1 0 1 .71.71 0 0 1-1 0 6.2 6.2 0 0 0-6.8-1.08 4.44 4.44 0 0 0-2.68 4.85.71.71 0 0 1-.61.8z"/><circle fill="#FFF" cx="92.81" cy="89.23" r="2.63"/><circle fill="#FFF" cx="101.78" cy="103.29" r="2.07"/><circle fill="#FFF" cx="97.81" cy="106.79" r="1.17"/><circle fill="#FFF" cx="97.03" cy="97.27" r="2.03"/><path fill="#D09BFF" d="M95.44 89.23a2.67 2.67 0 0 0-.39-1.37l-1 3.7a2.63 2.63 0 0 0 1.39-2.33zM95 97.27a2 2 0 0 0 .72 1.55l1-3.55a2 2 0 0 0-1.72 2z"/><circle fill="#FFF" cx="90.51" cy="94.83" r="1.28"/><circle fill="#FFF" cx="100.57" cy="88.96" r=".94"/><path fill="#9A43FF" d="M4.13 87.56a.59.59 0 0 1-.29-.07.7.7 0 0 1-.35-.94c2-4.3 6.82-8.46 11.88-7.69a.7.7 0 0 1 .59.81.69.69 0 0 1-.8.59c-3.27-.49-8 1.75-10.38 6.89a.71.71 0 0 1-.65.41zM2.13 77.59a.7.7 0 0 1-.52-.22.72.72 0 0 1 0-1C4.88 73.35 9.35 72 13 72.89c.27.07.53.15.79.24a.71.71 0 0 1-.47 1.34 6.36 6.36 0 0 0-.66-.2c-3.16-.78-7.21.48-10.06 3.13a.7.7 0 0 1-.47.19z"/></g></svg>