<svg xmlns="http://www.w3.org/2000/svg" viewBox="2 2 20 20"><g height="24" viewBox="0 0 24 24" width="24" id="person_circle_slash"><path d="M6.9,3.4C8.39,2.51,10.14,2,12,2c5.52,0,10,4.48,10,10c0,1.86-0.51,3.61-1.4,5.1l-0.73-0.73 c0.56-1.01,0.92-2.12,1.06-3.26l0,0C20.98,12.74,21,12.38,21,12c0-4.96-4.04-9-9-9c-1.58,0-3.07,0.41-4.37,1.13L6.9,3.4z M11.18,11.88L9.12,9.82C9.4,10.81,10.19,11.6,11.18,11.88z M8.01,8.72L5.3,6C3.87,7.6,3,9.7,3,12c0,1.42,0.34,2.76,0.93,3.96 c1.53-1.72,3.98-2.89,7.38-3.03C9.43,12.6,8,10.97,8,9C8,8.9,8,8.81,8.01,8.72z M4.59,5.29L4.59,5.29c0.22-0.25,0.46-0.48,0.71-0.71 l14.12,14.12c-0.22,0.25-0.46,0.48-0.71,0.71l0,0C16.93,21.02,14.58,22,12,22C6.48,22,2,17.52,2,12C2,9.42,2.98,7.07,4.59,5.29z M17.99,18.7C16.4,20.13,14.3,21,12,21c-3.16,0-5.94-1.64-7.55-4.12C6.01,14.93,8.61,13.9,12,13.9c0.43,0,0.84,0.02,1.24,0.05 L17.99,18.7z M9.43,5.93l0.71,0.71C10.66,6.24,11.3,6,12,6c1.65,0,3,1.35,3,3c0,0.7-0.24,1.34-0.65,1.85l0.71,0.71 C15.65,10.87,16,9.98,16,9c0-2.21-1.79-4-4-4C11.02,5,10.13,5.35,9.43,5.93z" fill-rule="evenodd"/></g></svg>