<svg xmlns="http://www.w3.org/2000/svg" viewBox="29.40999412536621 39.04999923706055 128.3800048828125 126.94999694824219"><g class="hashtag_landing_page_empty__cls-3" clip-path="url(#hashtag_landing_page_empty__a)"><path class="hashtag_landing_page_empty__cls-4" d="M29.41 115a7.83 7.83 0 117.82 7.83 7.82 7.82 0 01-7.82-7.83M106.6 63c0-13.22 11.46-23.95 25.6-23.95s25.59 10.7 25.59 23.95-11.46 24-25.59 24-25.6-10.72-25.6-24"/><path class="hashtag_landing_page_empty__cls-5" d="M123.7 63a8.56 8.56 0 118.55 8 8.29 8.29 0 01-8.55-8"/><path class="hashtag_landing_page_empty__cls-5" d="M132.22 81.61c-11 0-19.89-8.36-19.89-18.64s8.92-18.64 19.89-18.64S152.1 52.7 152.1 63s-8.92 18.64-19.88 18.64m0-36.28c-10.42 0-18.89 7.92-18.89 17.64s8.47 17.64 18.89 17.64S151.1 72.7 151.1 63s-8.47-17.64-18.88-17.64"/><path class="hashtag_landing_page_empty__cls-4" d="M128.4 166l-38.06-60.5L61.22 166l-.67-.3 29.7-61.7L129 165.6z"/><path class="hashtag_landing_page_empty__cls-4" d="M84.51673945 165.77552827l5.40121727-61.1218165.7470887.0660188-5.40121727 61.1218165z"/><path fill="#ff8d40" d="M59.09 88.34l10.77 23.06L109 97.11 91.92 63.02z"/></g></svg>