<svg xmlns="http://www.w3.org/2000/svg" viewBox="1 1 18 18"><g id="help"><path d="M10,2c4.41,0,8,3.59,8,8s-3.59,8-8,8s-8-3.59-8-8S5.59,2,10,2 M10,1c-4.97,0-9,4.03-9,9s4.03,9,9,9c4.97,0,9-4.03,9-9 S14.97,1,10,1L10,1z M10,4C8.01,4,6.4,5.61,6.4,7.6h1.8c0-0.99,0.81-1.8,1.8-1.8s1.8,0.81,1.8,1.8C11.8,9.41,9,9.08,9,12h2 c0-2.03,2.6-2.15,2.6-4.4C13.6,5.61,11.99,4,10,4z M10,14c-0.55,0-1,0.45-1,1s0.45,1,1,1s1-0.45,1-1S10.55,14,10,14z M10,2 c4.41,0,8,3.59,8,8s-3.59,8-8,8s-8-3.59-8-8S5.59,2,10,2 M10,1c-4.97,0-9,4.03-9,9s4.03,9,9,9c4.97,0,9-4.03,9-9S14.97,1,10,1L10,1z"/></g></svg>