<svg xmlns="http://www.w3.org/2000/svg" viewBox="0 0 48 48"><g fill="none" fill-rule="evenodd"><path fill="#00AFF0" d="M0 0h48v48H0z"/><path d="M30.272 29.452c-.526.75-1.297 1.337-2.313 1.76-1.014.426-2.217.638-3.609.638-1.668 0-3.044-.29-4.129-.87a5.342 5.342 0 0 1-1.873-1.671c-.48-.696-.72-1.374-.72-2.033 0-.381.143-.709.432-.98.288-.274.655-.41 1.1-.41.362 0 .669.106.918.32.25.212.464.525.64.943.215.495.447.91.698 1.241.249.333.602.608 1.054.823.454.215 1.05.324 1.788.324 1.014 0 1.84-.216 2.474-.653.633-.433.952-.978.952-1.629 0-.515-.172-.936-.514-1.256-.342-.323-.784-.568-1.326-.738a23.907 23.907 0 0 0-2.175-.541c-1.214-.26-2.231-.568-3.05-.918-.817-.35-1.468-.827-1.948-1.432-.48-.606-.72-1.357-.72-2.255 0-.857.252-1.616.76-2.28.508-.666 1.241-1.178 2.204-1.535.96-.357 2.09-.535 3.39-.535 1.037 0 1.935.119 2.692.355.757.237 1.384.552 1.884.945.5.393.866.804 1.096 1.236.23.43.346.853.346 1.26 0 .375-.143.716-.432 1.015-.288.3-.647.452-1.077.452-.394 0-.692-.09-.895-.271-.204-.18-.425-.476-.663-.886-.308-.587-.675-1.045-1.108-1.373-.43-.33-1.121-.494-2.075-.494-.883 0-1.596.177-2.138.535-.543.356-.814.787-.814 1.29 0 .309.094.58.278.806.183.227.437.42.76.583.323.162.65.29.98.383.33.092.876.225 1.639.402.952.206 1.814.433 2.587.68.773.248 1.43.548 1.972.9a3.83 3.83 0 0 1 1.269 1.345c.303.54.456 1.203.456 1.988 0 .94-.265 1.786-.79 2.536m7.133-5.83c0-7.393-5.987-13.386-13.373-13.386-.691 0-1.364.067-2.026.168a7.595 7.595 0 0 0-4.951-1.833c-4.211 0-7.626 3.418-7.626 7.636 0 1.72.576 3.302 1.536 4.579a13.502 13.502 0 0 0-.306 2.837c0 7.395 5.986 13.388 13.373 13.388.949 0 1.874-.103 2.767-.292a7.574 7.574 0 0 0 5.003 1.883c4.212 0 7.627-3.417 7.627-7.633a7.599 7.599 0 0 0-2.19-5.348c.099-.656.166-1.318.166-1.998" fill="#FFF"/></g></svg>