<svg xmlns="http://www.w3.org/2000/svg" viewBox="0 0 60 60"><g id="mixi"><g fill="none" fill-rule="evenodd"><circle fill="#CAA75A" cx="30" cy="30" r="30"/><path d="M46 27.09895599c0-1.37949292-.2084691-2.652871-.6254072-3.92624908-.6254071-1.80395227-1.7719869-3.07733035-3.5439739-3.71401939-.9381108-.31834452-1.8762215-.42445936-2.9185668-.42445936-2.3973941.10611484-4.4820847.95503356-6.2540716 2.652871-.4169382.31834452-.7296417.74280388-1.0423453 1.16726324-.1042345.21222968-.3127036.53057419-.3127036.53057419s-.2084691-.42445935-.3127036-.53057419c-.1042345-.21222968-.208469-.42445936-.3127036-.63668904-1.0423452-1.69783744-2.5016286-2.75898584-4.3778501-3.07733036-2.39739417-.42445936-4.48208472.10611484-6.35830622 1.69783744-.62540717.5305742-1.14657981 1.27337808-1.77198697 1.91006712-.10423453.10611484-.41693811.74280387-.41693811.74280387v-4.0323639H14V40.8938852h3.752443V30.0701715c0-1.27337808.10423452-2.54675615.62540716-3.71401939.52117264-1.27337808 1.25081434-2.22841164 2.29315961-2.97121552 1.56351792-.95503355 3.12703583-1.27337807 4.89902283-.74280387.9381107.31834452 1.6677524.84891871 2.0846905 1.80395227.3127036.74280388.5211727 1.48560776.6254072 2.22841164V41h3.752443V28.4784489c.1042345-.84891871.3127036-1.59172259.6254072-2.44064131.5211726-1.16726324 1.3550488-2.22841164 2.3973941-2.97121551 1.2508143-.84891872 2.7100977-.95503356 4.1693811-.74280388.9381107.10611484 1.6677524.63668904 2.1889251 1.48560775.5211726.63668904.7296417 1.48560776.8338762 2.22841164V40.7877703H46V27.09895599s0 .10611484 0 0z" fill="#FFF"/></g></g></svg>