<svg xmlns="http://www.w3.org/2000/svg" viewBox="5 3.002500057220459 15 17.997499465942383"><g id="gift-filled"><path d="M19.28,3.61c-0.96-0.81-2.51-0.81-3.47,0C15.13,4.19,14.34,6.27,14,7.25c-0.34-0.98-1.13-3.06-1.81-3.64 c-0.96-0.81-2.51-0.81-3.47,0c-0.96,0.81-0.96,2.13,0,2.94c0.62,0.53,2.7,1.12,3.94,1.45H5v6h8V8h2v6h4V8h-3.66 c1.24-0.32,3.32-0.92,3.94-1.45C20.24,5.74,20.24,4.42,19.28,3.61z M9.43,5.89c-0.58-0.43-0.58-1.13,0-1.57 C9.72,4.11,10.1,4,10.48,4s0.76,0.11,1.04,0.32C11.91,4.61,12.54,5.89,13,7C11.52,6.65,9.82,6.18,9.43,5.89z M18.57,5.89 C18.18,6.18,16.48,6.65,15,7c0.46-1.11,1.09-2.39,1.48-2.68C16.77,4.11,17.15,4,17.52,4c0.38,0,0.76,0.11,1.04,0.32 C19.14,4.76,19.14,5.46,18.57,5.89z M5,16h8v5H5V16z M15,16h4v5h-4V16z"/></g></svg>