<svg xmlns="http://www.w3.org/2000/svg" viewBox="1.4900000095367432 50.710838317871094 307.6900329589844 203.129150390625"><g viewBox="0 0 300 300" id="hashtag_landing_page_error"><defs><style>.hashtag_landing_page_error__cls-1{fill:none}.hashtag_landing_page_error__cls-2{clip-path:url(#hashtag_landing_page_error__a)}.hashtag_landing_page_error__cls-5{fill:#ff8780}.hashtag_landing_page_error__cls-10{fill:#e4e4e4}.hashtag_landing_page_error__cls-14{fill:#2d79ff}</style></defs><g class="hashtag_landing_page_error__cls-2" clip-path="url(#hashtag_landing_page_error__a)"><path d="M286.1 150.6c-7.88 45.31-57.87 77.57-109.2 68.65s-85.92-55.9-78-101.2c7.14-41.29 55.8-74.81 107.1-65.89s88 53.14 80.08 98.45" fill="#ffbebb"/><path d="M232.6 137.7a42.07 42.07 0 11-42.07-42.08 42.07 42.07 0 0142.07 42.08" fill="#ff8c34"/><path class="hashtag_landing_page_error__cls-5" d="M184.6 197.7c.92 1.26.46 2.45-.8 3.37s-2.83 1.25-3.76 0a2.82 2.82 0 01.88-3.9 2.5 2.5 0 013.68.54M146.73157003 69.19721195l1.37433444-.67238742 4.90886765 10.03353967-1.37433444.67238742z"/><path class="hashtag_landing_page_error__cls-5" d="M145.45139157 78.3317295l8.11104295-6.83981595.98632596 1.16964145-8.11104295 6.83981595z"/></g><g clip-path="url(#hashtag_landing_page_error__c)"><path class="hashtag_landing_page_error__cls-5" d="M97.84 141.7c-13.72 0-23.29-9.79-23.29-23.8 0-14.7 10.44-26.67 23.29-26.67 13.42 0 23.15 10.36 23.15 24.64 0 14.49-10.17 25.83-23.15 25.83m0-48.94c-12 0-21.76 11.28-21.76 25.14 0 13.11 8.94 22.27 21.76 22.27 12.12 0 21.62-10.67 21.62-24.3 0-13.39-9.09-23.11-21.62-23.11M262.6 72.57c0 5.93-6 10.15-11.94 10.15s-10.74-3.62-10.74-9.55a10.74 10.74 0 0110.74-10.75c5.94 0 11.94 4.21 11.94 10.15M171.8 253.8l-1.42-.58c6.93-16.6 15-33.65 29.94-43.66 7.41-4.94 16-7.72 24.32-10.41 6.25-2 12.72-4.12 18.61-7.11a63.07 63.07 0 0025.84-24.55 125.3 125.3 0 006.52-13.89 116.7 116.7 0 017.25-15.15c5.21-8.66 14.84-17.71 26.32-17l-.08 1.53c-10.76-.59-20 8-24.93 16.31a115.8 115.8 0 00-7.15 15 129.9 129.9 0 01-6.6 14.06A64.63 64.63 0 01244 193.4c-6 3.05-12.53 5.16-18.84 7.21-8.22 2.65-16.71 5.4-23.94 10.23-14.64 9.77-22.54 26.58-29.37 43"/></g><path class="hashtag_landing_page_error__cls-5" d="M258.3652172 155.30849565l1.3684145-.684355 4.2716276 8.54141075-1.3684145.684355z"/><path class="hashtag_landing_page_error__cls-5" d="M256.6 164.1l-1-1.1 10.2-9.9 1 1.1z"/><g class="hashtag_landing_page_error__cls-2" clip-path="url(#hashtag_landing_page_error__a)"><path d="M212.1 82.78c37.59 1.71 52.54 19.65 51.54 39.44-1 20.11-20 36.74-61.4 49.27-48 14.54-113.5 31.34-113.5 31.34L70.07 191.9s86.95-23.09 107-28.74c15.16-4.27 64.85-16.73 71.75-39.29 6.31-20.61-12.52-31.91-35.38-36.1-21.81-4-60.36 1.71-60.36 1.71s29.7-8 59.05-6.7" fill="#fff"/><path class="hashtag_landing_page_error__cls-10" d="M88.65489699 196.57848177l54.39567991-13.92596522.37946085 1.48219752-54.3956799 13.9259652zM89.70866435 190.9287484l35.59368744-9.38432283.39005742 1.47944422-35.59368743 9.38432283z"/><path fill="#6b9fff" d="M1.49 219.9l62.64-49.8L124.8 212z"/></g><g clip-path="url(#hashtag_landing_page_error__b)"><path d="M64.13 172l.85.6-7.85 4.27 7-4.87m0-1.87S38.29 188 36.9 189.62l31-16.87z" fill="#7c35dd"/><path class="hashtag_landing_page_error__cls-14" d="M124.8 212l-12.24-9.4-67.77 18.34c17.51-1.17 80-9 80-9M36.9 189.62l34.92-15.23-7.69-4.28S38.29 188 36.9 189.62"/></g><path class="hashtag_landing_page_error__cls-14" d="M56.44 196.7l41.4-32.7-7.79 24z"/><g class="hashtag_landing_page_error__cls-2" clip-path="url(#hashtag_landing_page_error__a)"><path class="hashtag_landing_page_error__cls-14" d="M42.11 197.8s-4.19 3.08-2 6.4c2.65 4 17 1.51 17 1.51s-18.72 7.27-22 1.69c-3-5.15 7-9.6 7-9.6"/></g></g></svg>