<svg xmlns="http://www.w3.org/2000/svg" viewBox="0 0 20 20"><g xmlns:xlink="http://www.w3.org/1999/xlink" width="24px" height="24px" viewBox="-2 -2 24 24" version="1.1" id="premium_standalone"><path d="M 0 1.4375 C 0 0.644531 0.644531 0 1.4375 0 L 18.5625 0 C 19.355469 0 20 0.644531 20 1.4375 L 20 18.5625 C 20 19.355469 19.355469 20 18.5625 20 L 1.4375 20 C 0.644531 20 0 19.355469 0 18.5625 Z M 0 1.4375 " fill="#CC0000"/><path d="M 7.886719 11.421875 L 7.886719 15.714844 L 5.375 15.714844 L 5.375 3.527344 L 10.128906 3.527344 C 11.042969 3.527344 11.847656 3.695312 12.542969 4.027344 C 13.238281 4.363281 13.769531 4.839844 14.144531 5.457031 C 14.519531 6.074219 14.707031 6.773438 14.707031 7.5625 C 14.707031 8.753906 14.296875 9.695312 13.480469 10.386719 C 12.664062 11.074219 11.53125 11.421875 10.085938 11.421875 Z M 7.886719 9.386719 L 10.128906 9.386719 C 10.792969 9.386719 11.300781 9.230469 11.648438 8.917969 C 11.996094 8.605469 12.171875 8.160156 12.171875 7.578125 C 12.171875 6.980469 11.996094 6.5 11.644531 6.128906 C 11.292969 5.761719 10.804688 5.574219 10.1875 5.5625 L 7.886719 5.5625 Z M 7.886719 9.386719 " fill="#FFF" fill-rule="nonzero"/></g></svg>