<svg xmlns="http://www.w3.org/2000/svg" viewBox="3.000000106112566e-7 -6.258487701416016e-7 60 59.999996185302734"><g fill="none" fill-rule="evenodd"><path d="M28.4863253 59.9692983c-6.6364044-.569063-11.5630204-2.3269561-16.3219736-5.8239327C4.44376366 48.4721168 3e-7 39.6467924 3e-7 29.9869344c0-14.8753747 10.506778-27.18854591 25.2744118-29.61975392 6.0281072-.9924119 12.7038532.04926445 18.2879399 2.85362966C57.1386273 10.0389054 63.3436516 25.7618627 58.2050229 40.3239688 54.677067 50.3216743 45.4153135 57.9417536 34.81395 59.5689067c-2.0856252.3201125-5.0651487.5086456-6.3276247.4003916z" fill="#F57D00" fill-rule="nonzero"/><path d="M35.8273333 36.7781555H24.045c-.944 0-1.592-.5735923-1.592-1.5222386 0-.9493136.648-1.5225723 1.592-1.5225723h11.7823333c.944 0 1.592.5732587 1.592 1.5225723 0 .9486463-.648 1.5222386-1.592 1.5222386M24.0446667 23.2381737h6.5086666c.8886667 0 1.6086667.6066264 1.6086667 1.4995484 0 .8932558-.72 1.5155651-1.6086667 1.5155651h-6.5086666c-.8886667 0-1.6086667-.6223093-1.6086667-1.5155651 0-.892922.72-1.4995484 1.6086667-1.4995484M42.742 26.2469473c-.2083333 0-.8533333.0106777-1.8556667.0106777-1.3863333 0-1.2346666-1.2973397-1.2346666-1.2973397 0-5.4276047-4.42-9.9602853-9.757-9.9602853h-5.2313334C19.3263333 15 15 19.3998768 15 24.8274815v10.3613661c0 5.4276047 4.3263333 9.8274815 9.6633333 9.8274815H35.243c5.337 0 9.6633333-4.3998768 9.6633333-9.8274815 0 0 .0936667-3.7829063.0936667-6.5711188 0-1.356067-1.039-2.3707815-2.258-2.3707815" fill="#FFF"/></g></svg>