<svg xmlns="http://www.w3.org/2000/svg" viewBox="2 3 18 17"><g id="web-traffic"><path d="M9,9c0.85,3.1,2.15,6.9,3,10l1.24-3.75L18,20l2-2l-4.7-4.7L19,12C15.9,11.15,12.1,9.9,9,9z"/><path d="M10,3c0.67,0,1.33,0,2,0c0,1.51,0,1.54,0,3c-0.67,0-1.33,0-2,0C10,4.54,10,4.46,10,3z"/><path d="M2,12c0-0.67,0-1.33,0-2c1.51,0,1.54,0,3,0c0,0.67,0,1.33,0,2C3.54,12,3.46,12,2,12z"/><path d="M6.12,14c0.47,0.47,0.94,0.94,1.41,1.41c-1.06,1.06-1.09,1.09-2.12,2.12C4.94,17.06,4.47,16.59,4,16.12 C5.03,15.09,5.09,15.03,6.12,14z"/><path d="M4,5.88c0.47-0.47,0.94-0.94,1.41-1.41c1.06,1.06,1.09,1.09,2.12,2.12C7.06,7.06,6.59,7.53,6.12,8 C5.09,6.97,5.03,6.91,4,5.88z"/><path d="M16.59,4.46c0.47,0.47,0.94,0.94,1.41,1.41C16.94,6.94,16.91,6.97,15.88,8c-0.47-0.47-0.94-0.94-1.41-1.41 C15.49,5.56,15.56,5.49,16.59,4.46z"/></g></svg>