<svg xmlns="http://www.w3.org/2000/svg" viewBox="0 0 48 48"><g id="pinterest"><rect fill="#CB2027" width="48" height="48"/><path fill="#FFFFFF" d="M24,7C14.6,7,7,14.6,7,24c0,7,4.2,12.9,10.2,15.6c0-1.2,0-2.6,0.3-3.9c0.3-1.4,2.2-9.3,2.2-9.3
    s-0.5-1.1-0.5-2.7c0-2.5,1.5-4.4,3.3-4.4c1.5,0,2.3,1.2,2.3,2.6c0,1.6-1,3.9-1.5,6c-0.4,1.8,0.9,3.3,2.7,3.3c3.2,0,5.4-4.1,5.4-9
    c0-3.7-2.5-6.5-7.1-6.5c-5.2,0-8.4,3.8-8.4,8.1c0,1.5,0.4,2.5,1.1,3.3c0.3,0.4,0.4,0.5,0.2,0.9c-0.1,0.3-0.3,1.1-0.3,1.4
    c-0.1,0.4-0.5,0.6-0.9,0.4c-2.4-1-3.5-3.6-3.5-6.5c0-4.8,4.1-10.6,12.1-10.6c6.5,0,10.8,4.7,10.8,9.7c0,6.7-3.7,11.6-9.2,11.6
    c-1.8,0-3.6-1-4.2-2.1c0,0-1,3.9-1.2,4.7c-0.4,1.3-1.1,2.6-1.7,3.6c1.5,0.5,3.1,0.7,4.8,0.7c9.4,0,17-7.6,17-17
    C41,14.6,33.4,7,24,7z"/></g></svg>