<svg xmlns="http://www.w3.org/2000/svg" viewBox="22.548452377319336 29.760000228881836 154.87860107421875 136.49000549316406"><g class="hashtag_landing_page_empty__cls-3" clip-path="url(#hashtag_landing_page_empty__a)"><path class="hashtag_landing_page_empty__cls-2" d="M177.3 91.43c1 8.51-4 17.36-11.59 21.17a15.22 15.22 0 01-1.35 5.46c-2.31 5.06-6.75 8.17-10.06 9.89a31.58 31.58 0 01-27.51.5l.3-.62a30.87 30.87 0 0026.89-.49c3.22-1.67 7.52-4.68 9.75-9.56a14.59 14.59 0 001.27-4.84c-.48.21-1 .41-1.47.58-3.71 1.29-7.26 1.24-10-.16h-.07c-3.28-1.72-5-5.6-3.92-8.69a7 7 0 016.72-4.32 9.43 9.43 0 017.11 4 12.6 12.6 0 012.36 7.53 20.82 20.82 0 0010.88-20.3zm-12.26 20.73a12 12 0 00-2.22-7.47 8.7 8.7 0 00-6.58-3.68 6.26 6.26 0 00-6 3.85c-.88 2.43.25 6.1 3.58 7.85h.08c3.46 1.76 7.41.83 9.45.12.59-.21 1.17-.45 1.74-.71"/><path fill="#ff4c3e" d="M55.29 65.57l-.34-.74-6.37 2.94-2.17-6.33-.77.26 2.2 6.41-5.02 2.31.34.73 4.94-2.27 1.83 5.31.77-.26-1.86-5.4z"/><path class="hashtag_landing_page_empty__cls-2" d="M30.89 48.18a4.21 4.21 0 11-3.32-4.94 4.21 4.21 0 013.32 4.94"/><path class="hashtag_landing_page_empty__cls-5" d="M77.48 31.28l-15.92-1.52 7.37 15.59z"/><path class="hashtag_landing_page_empty__cls-4" d="M29.41 165.5h114v.75h-114zM148.5 165.5h5.87v.75h-5.87zM159 165.5h17.84v.75H159z"/></g></svg>