<svg xmlns="http://www.w3.org/2000/svg" viewBox="1.4900000095367432 82.63713073730469 262.19683837890625 137.2628631591797"><g class="hashtag_landing_page_error__cls-2" clip-path="url(#hashtag_landing_page_error__a)"><path d="M212.1 82.78c37.59 1.71 52.54 19.65 51.54 39.44-1 20.11-20 36.74-61.4 49.27-48 14.54-113.5 31.34-113.5 31.34L70.07 191.9s86.95-23.09 107-28.74c15.16-4.27 64.85-16.73 71.75-39.29 6.31-20.61-12.52-31.91-35.38-36.1-21.81-4-60.36 1.71-60.36 1.71s29.7-8 59.05-6.7" fill="#fff"/><path class="hashtag_landing_page_error__cls-10" d="M88.65489699 196.57848177l54.39567991-13.92596522.37946085 1.48219752-54.3956799 13.9259652zM89.70866435 190.9287484l35.59368744-9.38432283.39005742 1.47944422-35.59368743 9.38432283z"/><path fill="#6b9fff" d="M1.49 219.9l62.64-49.8L124.8 212z"/></g></svg>