<svg xmlns="http://www.w3.org/2000/svg" viewBox="29.26096534729004 15.208869934082031 141.97740173339844 96.63407897949219"><g fill="#BD79FF"><path d="M164.33 92.07c2.266 2.426 2.012 5.775-.217 7.858-2.228 2.082-5.652 2.653-8.303-.183-2.266-2.426-1.621-5.97.609-8.053 2.228-2.082 5.432-2.275 7.911.378"/><path d="M169.264 87.026c-1.634 0-7.03 5.042-9.735 7.569-7.73 7.221-9.117 9.51-8.92 10.159 1.03 1.026 6.113-3.715 9.816-7.186l2.438-2.273c3.522-3.269 6.848-6.357 6.876-7.801a.439.439 0 00-.138-.349c-.081-.081-.194-.119-.337-.119m-18.335 19.338a1.89 1.89 0 01-1.397-.576c-.201-.2-.437-.555-.427-1.111.03-1.752 2.665-4.886 9.4-11.178 6.295-5.882 10.253-9.32 12.156-7.414.388.387.587.884.577 1.437-.038 2.082-3.108 4.93-7.355 8.872l-2.432 2.269c-4.63 4.339-8.217 7.701-10.522 7.701M113.169 17.511c.507 1.758-.456 3.34-2.071 3.806-1.616.465-3.44-.11-4.033-2.166-.506-1.759.698-3.338 2.313-3.804 1.615-.465 3.236.241 3.79 2.164M170.296 109.446c.308 1.065-.275 2.023-1.255 2.306-.978.28-2.084-.067-2.442-1.313-.308-1.065.422-2.021 1.4-2.304.979-.282 1.96.146 2.297 1.31M33.03 107.177c.306 1.065-.277 2.023-1.256 2.306-.978.281-2.083-.067-2.442-1.313-.307-1.065.422-2.022 1.4-2.304.98-.282 1.961.146 2.297 1.311"/></g></svg>