<svg xmlns="http://www.w3.org/2000/svg" viewBox="2 2 20 20"><g id="sad-filled"><path d="M12,2C6.48,2,2,6.48,2,12s4.48,10,10,10s10-4.48,10-10S17.52,2,12,2z M7,9.5C7,8.67,7.67,8,8.5,8S10,8.67,10,9.5
	S9.33,11,8.5,11S7,10.33,7,9.5z M16.35,16.85C16.26,16.95,16.13,17,16,17s-0.26-0.05-0.35-0.15c-2.01-2.01-5.28-2.01-7.29,0
	c-0.2,0.2-0.51,0.2-0.71,0s-0.2-0.51,0-0.71c2.4-2.4,6.31-2.4,8.71,0C16.55,16.34,16.55,16.66,16.35,16.85z M15.5,11
	c-0.83,0-1.5-0.67-1.5-1.5S14.67,8,15.5,8S17,8.67,17,9.5S16.33,11,15.5,11z"/></g></svg>