<svg xmlns="http://www.w3.org/2000/svg" viewBox="4 2 18 20"><g id="shield_overflow"><path clip-rule="evenodd" d="M19,6.31L12,3.1L5,6.31v4.84c0,1.3,0.25,2.6,0.74,3.86
	c0.15,0.38,0.33,0.76,0.55,1.17c0.15,0.27,0.31,0.54,0.48,0.81C8.09,19,9.94,20.41,12,20.97c1.28-0.35,2.48-1.02,3.52-1.97h1.42
	c-1.31,1.44-2.97,2.51-4.82,2.97L12,22l-0.12-0.02c-2.43-0.62-4.53-2.27-5.95-4.44c-0.18-0.28-0.36-0.58-0.52-0.88
	c-0.23-0.42-0.43-0.84-0.6-1.28C4.3,14.06,4,12.63,4,11.16V5.67L12,2l8,3.67v5.48c0,0.29-0.01,0.57-0.03,0.85h-1
	c0.02-0.28,0.04-0.57,0.04-0.85V6.31z M12.5,14c-0.83,0-1.5,0.67-1.5,1.5c0,0.83,0.67,1.5,1.5,1.5s1.5-0.67,1.5-1.5
	C14,14.67,13.33,14,12.5,14z M16.5,14c-0.83,0-1.5,0.67-1.5,1.5c0,0.83,0.67,1.5,1.5,1.5c0.83,0,1.5-0.67,1.5-1.5
	C18,14.67,17.33,14,16.5,14z M20.5,14c-0.83,0-1.5,0.67-1.5,1.5c0,0.83,0.67,1.5,1.5,1.5s1.5-0.67,1.5-1.5
	C22,14.67,21.33,14,20.5,14z"/></g></svg>