<svg xmlns="http://www.w3.org/2000/svg" viewBox="2 2 20 20"><g id="sad"><path d="M16,17c-0.13,0-0.26-0.05-0.35-0.15c-2.01-2.01-5.28-2.01-7.29,0c-0.2,0.2-0.51,0.2-0.71,0s-0.2-0.51,0-0.71
	c2.4-2.4,6.31-2.4,8.71,0c0.2,0.2,0.2,0.51,0,0.71C16.26,16.95,16.13,17,16,17z M12,3c-4.96,0-9,4.04-9,9s4.04,9,9,9s9-4.04,9-9
	S16.96,3,12,3 M12,2c5.52,0,10,4.48,10,10s-4.48,10-10,10S2,17.52,2,12S6.48,2,12,2L12,2z M8.5,8C7.67,8,7,8.67,7,9.5
	S7.67,11,8.5,11S10,10.33,10,9.5S9.33,8,8.5,8z M15.5,8C14.67,8,14,8.67,14,9.5s0.67,1.5,1.5,1.5c0.83,0,1.5-0.67,1.5-1.5
	S16.33,8,15.5,8z"/></g></svg>