<svg xmlns="http://www.w3.org/2000/svg" viewBox="0 0 60 60"><g fill="none" fill-rule="evenodd"><circle fill-opacity=".87" fill="#000" cx="30" cy="30" r="30"/><path d="M46.7269728 28.10124514c.9574319 1.18337743 1.3206537 2.73417898 1.1945836 4.25892606-.1469416 1.7834708-.9633152 3.531502-2.2799066 4.6152841-1.2709261 1.0463813-3.0465525 1.719035-5.2835953 1.719035-1.6195798 0-3.3020545-.3310039-4.7220234-1.1358911v.7435331H12.60457587v-5.6692296h1.12440467v-4.89417896h-1.12440467V22.0168249h8.65036576v4.07878599c1.44294167-.53733852 3.36298837-.48536964 4.60645917.49419456v-.66074708h2.1179766v-3.02315954h6.5322491v2.33089494l.5953307-3.21996887h11.89807c-.0928716 2.0280467-.1851828 4.05637354-.2780544 6.08442024" fill="#C8C6C1"/><path d="M46.1264591 27.14045136c.957432 1.18351751 1.3205137 2.73445915 1.1944436 4.25934634-.1469416 1.7827704-.9633152 3.5315019-2.2797665 4.6151439-1.2710662 1.0462413-3.0465525 1.7186148-5.2837354 1.7186148-1.6195798 0-3.3019144-.3311439-4.7214631-1.1356109v.7436732H12.00406226v-5.6696498h1.12440467v-4.89403894h-1.12440467v-5.72189883h8.65036576v4.07864591c1.44280158-.53733852 3.36312838-.48522957 4.60645918.49433463v-.660607h2.1179766v-3.02329961h6.5326693V24.276l.5947704-3.21996887h11.8982101c-.0928716 2.02804669-.1851829 4.05637354-.2780545 6.08442023" fill="#343B39"/><path d="M26.7621012 26.46961868h5.6479377V33.173463h1.1242646v2.6666615h-6.7461479V33.173463h1.0984903v-3.97470814h-1.1245447v-2.72913618zm-4.1858055-.16207004c2.3666148 0 2.7218522 2.0507393 2.7218522 2.86473152V33.173463h1.1990661v2.6666615h-6.19592217V33.173463h.59252918v-3.25722954c0-1.53553307-1.740607-.99287159-1.740607 1.54169654v1.715533h.5229105v2.6666615h-6.17084825V33.173463h1.12440467v-7.89674705h-1.12440467v-2.71947081h5.64793775v5.76476264c.74367315-1.19822568 1.75223346-2.01445914 3.42308169-2.01445914zm6.3037821-.48172763h3.5299611v-2.37950194h-3.5299611v2.37950194z" fill="#FFFFFE"/><path d="M41.3856654 26.64387549c2.5216809 0 4.5568716 1.27162646 4.4382257 4.59441241 0 2.5632841-2.0971051 4.9941946-6.0664903 4.9941946-2.5875175 0-4.7340701-.9631751-5.5065992-2.3883269-.7980234-1.4717976-.1720156-3.74301941 1.7717042-3.74652136 1.2679845-.0025214 2.0682491.56199222 1.8002802 2.01011676-.336607.9752218.3029883 1.2979611.9219922 1.2979611.9369806 0 1.6495564-1.0788794 1.6978833-2.1805915.0458054-1.035035-.3801712-2.04149414-1.3345214-2.05256029-.3867549-.00434241-.8469105.14133852-1.2853541.67671595l-3.3363735-.4496498 1.2643424-6.84238132h9.0868482l-.1634708 3.58221011h-5.9972918l-.1376965 1.14723736c.8627393-.38241245 1.8958132-.64281712 2.8465214-.64281712" fill="#E98C38"/></g></svg>