<svg xmlns="http://www.w3.org/2000/svg" viewBox="2 2 20 20"><g id="very_happy-filled"><path d="M12,2C6.48,2,2,6.48,2,12s4.48,10,10,10s10-4.48,10-10S17.52,2,12,2z M6.5,10c-0.08,0-0.16-0.02-0.23-0.06
	C6.03,9.82,5.93,9.52,6.06,9.27C6.35,8.69,7.02,8,8.5,8c1.41,0,2.1,0.68,2.43,1.25c0.14,0.24,0.06,0.54-0.18,0.68
	c-0.24,0.14-0.54,0.06-0.68-0.18C9.78,9.25,9.25,9,8.5,9C7.72,9,7.19,9.25,6.94,9.73C6.86,9.9,6.68,10,6.5,10z M12.05,18
	c-2.34,0-4.7-1.17-5.01-3.53C7,14.22,7.22,14,7.49,14h9.04c0.26,0,0.48,0.21,0.45,0.46C16.74,16.82,14.4,18,12.05,18z M17.75,9.93
	c-0.24,0.14-0.54,0.06-0.68-0.18C16.78,9.25,16.25,9,15.5,9c-0.78,0-1.31,0.25-1.56,0.73C13.86,9.9,13.68,10,13.5,10
	c-0.08,0-0.16-0.02-0.23-0.06c-0.25-0.13-0.34-0.43-0.21-0.67C13.35,8.69,14.02,8,15.5,8c1.41,0,2.1,0.68,2.43,1.25
	C18.07,9.49,17.99,9.79,17.75,9.93z"/></g></svg>