<svg xmlns="http://www.w3.org/2000/svg" viewBox="1 1 16 16"><g id="podcast"><path fill-rule="evenodd" clip-rule="evenodd" d="M10,10.72V17H8v-6.28C7.4,10.38,7,9.74,7,9c0-1.1,0.9-2,2-2s2,0.9,2,2
	C11,9.74,10.6,10.38,10,10.72z M6.14,11.79C5.44,11.07,5,10.08,5,9c0-2.21,1.79-4,4-4s4,1.79,4,4c0,1.08-0.44,2.07-1.14,2.79
	l0.71,0.71C13.45,11.59,14,10.36,14,9c0-2.76-2.24-5-5-5S4,6.24,4,9c0,1.36,0.55,2.59,1.43,3.5L6.14,11.79z M4.02,13.91
	C2.77,12.65,2,10.91,2,9c0-3.86,3.14-7,7-7s7,3.14,7,7c0,1.91-0.77,3.65-2.02,4.91l0.71,0.71C16.12,13.17,17,11.19,17,9
	c0-4.42-3.58-8-8-8S1,4.58,1,9c0,2.19,0.88,4.17,2.31,5.62L4.02,13.91z"/></g></svg>