<svg xmlns="http://www.w3.org/2000/svg" viewBox="0 0 48 48"><g id="skyblog"><rect fill="#00A4FE" width="48" height="48"/><path fill="#FFFFFF" d="M7,29.8c1.4,0,2.7,0,4,0c0.2,1.1,0.6,2.2,1.8,2.7c0.7,0.3,1.6,0.5,2.4,0.6c0.8,0.1,1.7-0.1,2.6-0.3
    c0.9-0.2,1.5-0.8,1.7-1.8c0.2-1-0.3-1.6-1.1-2.1c-1.4-0.9-3-1.2-4.5-1.6c-1-0.3-2-0.5-3-0.8c-2.1-0.6-3.3-2.1-3.6-4.2
    c-0.3-2,0.1-3.8,1.6-5.3c1-1,2.3-1.5,3.7-1.7c2-0.3,3.9-0.4,5.9,0.2c2.8,0.8,4.3,3.2,4.4,6c-1.2,0-2.5,0-3.7,0
    c-0.1-0.1-0.1-0.3-0.2-0.5c-0.5-1.3-1.3-2.2-2.7-2.3c-1-0.1-2.1-0.1-3.1,0.1c-1.1,0.2-1.6,1.1-1.8,2c-0.1,1,0.6,1.7,1.5,2
    c1.4,0.5,2.8,0.8,4.2,1.3c1.2,0.3,2.3,0.7,3.4,1.1c2,0.8,2.9,2.3,3.1,4.4c0.1,1.8-0.3,3.4-1.6,4.8c-1.1,1.2-2.5,1.7-4,2
    c-2.4,0.4-4.8,0.4-7.1-0.5C8.6,34.9,6.8,32.2,7,29.8z"/><path fill="#FFFFFF" d="M34,41.3c-3.2-2.3-6.2-4.5-9.2-6.6c-0.1-0.1-0.2-0.5-0.1-0.7c0.2-0.7,0.5-1.4,0.9-2.2c1,0.7,2,1.4,3.2,2.2
    c-0.7-2.2-1.3-4.1-2-6.1c-0.3-0.8-0.1-1.1,0.5-1.6c1.7-1.1,3.3-2.4,5-3.7c-2.4,0-4.8,0-7.1,0c-0.3-1.5-0.5-2.9-0.9-4.2
    c-0.6-1.8-1.8-3.2-3.5-4.1c-0.4-0.2-0.5-0.4-0.4-0.9c0.7-2.1,1.4-4.2,2.1-6.3c0-0.1,0.1-0.2,0.2-0.4c0.6,2,1.2,3.8,1.9,5.7
    c0.7,2.3,1.5,4.6,2.2,6.9c0.2,0.5,0.4,0.6,0.9,0.6c4.1,0,8.2,0,12.4,0c0.2,0,0.5,0,1,0c-0.6,0.4-1,0.8-1.4,1.1
    c-3.1,2.3-6.2,4.5-9.4,6.8c-0.4,0.3-0.5,0.5-0.3,0.9c1.3,4,2.6,8,3.9,12.1C33.8,40.8,33.9,41,34,41.3z"/></g></svg>