<svg xmlns="http://www.w3.org/2000/svg" viewBox="3 3 18 18"><g id="spotlight-filled"><path d="M17.17,13h-1.74H6.5c-0.93,0-1.78,0.28-2.5,0.76c-0.5,0.26-1,0.94-1,0.94V3L17.17,13z M20.85,16.55 c-0.05-0.19-0.12-0.37-0.2-0.55c-0.02-0.05-0.05-0.1-0.08-0.14c-0.1-0.18-0.21-0.36-0.34-0.52c-0.02-0.03-0.04-0.05-0.06-0.07 c-0.15-0.18-0.32-0.35-0.51-0.5c-0.02-0.02-0.04-0.03-0.06-0.05c-0.08-0.06-0.16-0.12-0.25-0.18C18.81,14.2,18.18,14,17.5,14h-0.65 H6.5c-0.24,0-0.48,0.03-0.71,0.07c-0.06,0.01-0.11,0.04-0.17,0.05c-0.17,0.04-0.34,0.09-0.49,0.16C5.08,14.3,5.04,14.33,5,14.35 c-0.16,0.08-0.32,0.16-0.47,0.26c-0.03,0.02-0.06,0.05-0.09,0.08c-0.15,0.11-0.3,0.23-0.43,0.36C3.39,15.68,3,16.55,3,17.5 C3,19.43,4.57,21,6.5,21h11c1.93,0,3.5-1.57,3.5-3.5c0-0.27-0.03-0.52-0.09-0.77C20.89,16.67,20.87,16.61,20.85,16.55z"/></g></svg>