<svg xmlns="http://www.w3.org/2000/svg" viewBox="0 0 48 48"><g id="livejournal"><rect fill="#F7F7F7" width="48" height="48"/><path fill="#00B0EA" d="M25.1,9.2c-2.2,0-4.4,0.5-6.3,1.3L15.3,7h0c-3.7,1.6-6.7,4.6-8.2,8.3l3.5,3.5 l0,0c-0.8,1.9-1.3,4.1-1.3,6.3c0,8.8,7.1,15.9,15.9,15.9C33.9,41,41,33.9,41,25.1S33.9,9.2,25.1,9.2"/><path fill="#15374C" d="M23.5,31.7C25,28,28,25,31.7,23.4h0L18.8,10.5l0,0c-3.7,1.6-6.7,4.6-8.3,8.3 L23.5,31.7z"/><path fill="#15374C" d="M32.6,27.8c-2.1,0.9-3.9,2.7-4.8,4.8l6,1.2L32.6,27.8z"/><path fill="#FFFFFF" d="M32.8,28.7l1.1,5.2C33.9,33.9,33.3,31.3,32.8,28.7"/><path fill="#FFFFFF" d="M32.6,27.8c-0.5-2.3-0.9-4.4-0.9-4.4l0,0C28,25,25,28,23.5,31.7l4.4,0.9 C28.8,30.5,30.5,28.8,32.6,27.8"/></g></svg>