<svg xmlns="http://www.w3.org/2000/svg" viewBox="0 5.960464477539063e-8 60 60"><g id="tumblr"><g fill="none" fill-rule="evenodd"><path d="M28.486325 59.969298c-6.636404-.569063-11.56302-2.326956-16.321973-5.823932C4.443764 48.472116 0 39.646792 0 29.986934 0 15.11156 10.506778 2.798388 25.274412.36718c6.028107-.992411 12.703853.049265 18.28794 2.85363 13.576275 6.818095 19.7813 22.541053 14.64267 37.103159-3.527955 9.997705-12.789708 17.617785-23.391072 19.244938-2.085625.320112-5.065149.508645-6.327625.400391z" fill="#35465C" fill-rule="nonzero"/><path d="M25.96539 14c0 6.948267-5.96539 8.206933-5.96539 8.206933v4.750934h4.023219v11.788089C24.023219 42.70791 27.676687 46 32.121159 46c4.444828 0 6.882486-1.768533 6.882486-1.768533v-5.240178s-1.341547 1.7664-4.08147 1.7664c-2.739568 0-3.924832-2.132622-3.924832-3.778133v-9.992178h7.00325v-5.025422h-7.00325V14H25.96539z" fill="#FFF"/></g></g></svg>