<svg xmlns="http://www.w3.org/2000/svg" viewBox="2 2 32 32"><g width="36" height="36" viewBox="0 0 36 36" fill="none" id="face_happy_v2-filled"><circle cx="18" cy="18" r="16" fill="#FFD61D"/><path d="M15 14.5C15 15.88 13.88 17 12.5 17C11.12 17 10 15.88 10 14.5C10 13.12 11.12 12 12.5 12C13.88 12 15 13.12 15 14.5ZM23.5 12C22.12 12 21 13.12 21 14.5C21 15.88 22.12 17 23.5 17C24.88 17 26 15.88 26 14.5C26 13.12 24.88 12 23.5 12ZM24.77 22.27C24.92 22.04 24.85 21.73 24.61 21.58C24.38 21.43 24.07 21.5 23.92 21.74C22.63 23.78 20.42 25 18 25C15.58 25 13.37 23.78 12.08 21.73C11.93 21.5 11.62 21.43 11.39 21.57C11.16 21.72 11.09 22.03 11.23 22.26C12.71 24.6 15.24 26 18 26C20.76 26 23.29 24.6 24.77 22.27Z" fill="black"/></g></svg>