<svg xmlns="http://www.w3.org/2000/svg" viewBox="2 2 32 32"><g width="36" height="36" viewBox="0 0 36 36" fill="none" id="face_sad_v2-filled"><circle cx="18" cy="18" r="16" fill="#FFD61D"/><path d="M11.65 25.5C11.56 25.5 11.47 25.48 11.38 25.42C11.15 25.27 11.08 24.96 11.22 24.73C12.71 22.4 15.24 21 18 21C20.76 21 23.29 22.4 24.77 24.73C24.92 24.96 24.85 25.27 24.61 25.42C24.38 25.57 24.07 25.5 23.92 25.26C22.63 23.22 20.42 22 18 22C15.58 22 13.37 23.22 12.08 25.27C11.98 25.42 11.82 25.5 11.65 25.5ZM12.5 12C11.12 12 10 13.12 10 14.5C10 15.88 11.12 17 12.5 17C13.88 17 15 15.88 15 14.5C15 13.12 13.88 12 12.5 12ZM23.5 12C22.12 12 21 13.12 21 14.5C21 15.88 22.12 17 23.5 17C24.88 17 26 15.88 26 14.5C26 13.12 24.88 12 23.5 12Z" fill="black"/></g></svg>