<svg xmlns="http://www.w3.org/2000/svg" viewBox="0 0 60 59.999996185302734"><g id="ameba"><g fill-rule="nonzero" fill="none"><path d="M28.486325 59.9692983c-6.6364044-.569063-11.5630204-2.3269562-16.3219736-5.8239328C4.44376336 48.4721167 0 39.6467923 0 29.9869344 0 15.1115596 10.506778 2.79838844 25.2744118.36718043 31.302519-.62523147 37.978265.41644488 43.5623517 3.2208101 57.138627 10.0389054 63.3436513 25.7618627 58.2050226 40.3239688c-3.5279559 9.9977054-12.7897094 17.6177847-23.3910729 19.2449379-2.0856252.3201125-5.0651487.5086455-6.3276247.4003916z" fill="#40B14A"/><path d="M44.0690432 48.6900794c.6178376-.2133332.8763502-.3884595 1.5290941-1.0358741.6421654-.636923.8538628-.9410708 1.1598081-1.6663101.3429133-.8128734.3747639-.9851562.3803005-2.0571357.0058537-1.1333833-.0069374-1.1962076-.4092429-2.0094048-.3100793-.6267835-.6125142-1.0252689-1.1938217-1.5729697-.9978663-.9401748-1.631428-1.2533904-3.1870173-1.5755727-1.7962852-.3720317-2.1434692-.6308512-2.1434692-1.5979108 0-.4940854.3668974-1.0099101.8582615-1.2066399.1691751-.0677339.8862722-.243923 1.5935513-.3915335 2.4277701-.506678 3.7431407-1.2092322 4.4377504-2.3702546.5680208-.9494342.811782-1.9989113.7481261-3.220949-.087339-1.6767202-.7363104-2.5807773-2.6708367-3.720645-1.1763717-.693144-1.3961923-.9020307-1.8024711-1.7128077-.2283257-.4556513-.3258931-.8906173-.4353855-1.9409834-.1544885-1.4820184-.3033986-1.88804216-.9369355-2.55468277-.630737-.66369609-1.0234385-.80959262-2.3959088-.89012754-1.4170541-.08315209-1.9828774-.2994609-2.5047207-.95752876-.5024169-.63357034-.8290633-1.460721-1.146764-2.90388307-.3350094-1.52178868-.6514976-2.20006369-1.345362-2.88328291C33.6201975 11.45287267 32.3967858 11 30.7636701 11c-2.2258765 0-3.4713208.91271231-4.3238291 3.16868033-.6214395 1.64449362-1.1867919 2.01457972-3.5515749 2.3249005-1.5441645.20263392-1.7131699.24279005-2.33650412.55517439-.69228599.34693886-.92060466.62568959-1.45014216 1.77046069-.25303651.54702216-.55816906 1.13218567-.67807104 1.30036355-.34046963.47755827-1.0311674.81660749-2.53519458 1.24447434-.76335544.2171596-1.65261401.5239964-1.97612926.6818583-.72339226.3529876-1.82249885 1.3521629-2.20559824 2.0050674-1.24133875 2.115572-.80703603 5.1725723.98759163 6.951548.70184198.6957204 1.01829995.8635514 2.32530925 1.2332161 1.2299094.3478571 1.74966085.993226 1.59542641 1.9810224-.09176165.5876875-.25673703.874775-1.1511209 2.0031653-.94858067 1.1967657-1.18570474 1.833568-1.18026143 3.1696128.00817206 2.0070503 1.25766956 3.8978179 2.90256984 4.3922493.28272421.0849823.92162884.1545136 1.41978827.1545136 2.25517248 0 2.95938083.3540309 4.19113513 2.1070365.633408.9014514.9017512 1.1510656 1.5411008 1.4335309.9344972.4128629 1.9508208.5180684 3.077644.3185839 2.0822418-.3686222 3.4808786-1.4237604 4.5002409-3.3950017.832134-1.6091788 1.4048192-2.1275994 2.350298-2.1275994.9113338 0 1.3839245.5170845 2.0516942 2.2448579.5679489 1.4695005 1.1546305 2.3643957 1.9780862 3.0172754 1.7725133 1.4053436 3.8463814 1.8202994 5.7729142 1.1550889zM23.0443977 24.1462938c-.6107123-.6111834-.1753498-1.6130415.7009539-1.6130415.5557217 0 .9551638.3941977.9551638.9426216 0 .8532939-1.0490463 1.2779633-1.6561177.6704199zm10.3264336-.0212327c-.5829917-.6282828-.1578488-1.5918088.7023634-1.5918088.557104 0 .9573381.3940815.9573381.9426216 0 .8673068-1.069227 1.2855326-1.6597015.6491863v9e-7z" fill="#FFF"/></g></g></svg>