<svg xmlns="http://www.w3.org/2000/svg" viewBox="1 1 14 14"><g id="podcast"><path fill-rule="evenodd" clip-rule="evenodd" d="M9,9.72V15H7V9.72C6.4,9.38,6,8.74,6,8c0-1.1,0.9-2,2-2s2,0.9,2,2
	C10,8.74,9.6,9.38,9,9.72z M5.17,10.83C4.45,10.1,4,9.1,4,8c0-2.21,1.79-4,4-4s4,1.79,4,4c0,1.1-0.45,2.1-1.17,2.83l0.71,0.71
	C12.44,10.63,13,9.38,13,8c0-2.76-2.24-5-5-5S3,5.24,3,8c0,1.38,0.56,2.63,1.46,3.54L5.17,10.83z M3.76,12.24C2.67,11.15,2,9.65,2,8
	c0-3.31,2.69-6,6-6s6,2.69,6,6c0,1.65-0.67,3.15-1.76,4.24l0.71,0.71C14.22,11.68,15,9.93,15,8c0-3.87-3.13-7-7-7S1,4.13,1,8
	c0,1.93,0.78,3.68,2.05,4.95L3.76,12.24z"/></g></svg>