<svg xmlns="http://www.w3.org/2000/svg" viewBox="0 0 60 60"><g fill="none" fill-rule="evenodd"><circle fill="#4FA4CA" cx="30" cy="30" r="30"/><g fill="#FFF"><path d="M10.07905138 27.7213439c-.21384016-8.4391984 3.30826952-12.62274583 6.40316206-13.96553856 2.46173277-1.06808132 7.79011236-1.68663538 14.61246296-1.68663538 7.7583816 0 12.0884306.86212649 14.7764328 3.36632288C50.2663675 19.530203 49.9833251 26.119062 49.9833251 27.7213439c0 2.5821872-.4532331 7.9242836-1.7264699 10.132164-.8488245 1.4719203-2.2662426 2.9320292-4.2522542 4.3803267-.6585556.6757967-1.0957571 1.4220243-1.3116045 2.2386827-.323771 1.2249876.2751359 2.6673666.5972085 3.1879941.3220727.5206274-.465178.2752478-1.138062 0-.7336083-.3000877-2.1581645-.8223969-3.8949018-1.3938211-1.7367372-.5714241-2.7406281-.755234-5.8585258-1.2414309-2.4853318-.3875562-5.6181685-.6970278-8.4867527-1.0225729-2.3979766-.2721375-4.52197455-.4321964-6.31515563-1.134974-2.52130682-.9881423-4.39368207-2.6984005-5.85767664-5.2898037-1.23068134-2.1784176-1.53762192-5.0237968-1.66007905-9.8565649zm20.00000002 9.1798419c4.9771116 0 9.0118577-4.0347462 9.0118577-9.0118577 0-4.9771116-4.0347461-9.01185774-9.0118577-9.01185774-4.9771116 0-9.0118577 4.03474614-9.0118577 9.01185774 0 4.9771115 4.0347461 9.0118577 9.0118577 9.0118577zM16.2055336 16.2687747c-.93866578 0-1.69960475.76093897-1.69960475 1.69960475s.76093897 1.69960474 1.69960475 1.69960474h.71146245c.93866578 0 1.69960474-.76093896 1.69960474-1.69960474s-.76093896-1.69960475-1.69960474-1.69960475h-.71146245z"/><path d="M30.0790514 34.687747c-3.7546631 0-6.798419-3.0437558-6.798419-6.7984189 0-3.7546632 3.0437559-6.79841901 6.798419-6.79841901s6.798419 3.04375581 6.798419 6.79841901c0 3.7546631-3.0437559 6.7984189-6.798419 6.7984189zm1.1857707-6.2450593c1.4844017 0 2.6877471-1.2033453 2.6877471-2.687747 0-1.4844017-1.2033454-2.687747-2.6877471-2.687747-1.4844017 0-2.687747 1.2033453-2.687747 2.687747 0 1.4844017 1.2033453 2.687747 2.687747 2.687747z"/></g></g></svg>