<svg xmlns="http://www.w3.org/2000/svg" viewBox="0 0 48 48"><g id="tuenti"><rect fill="#0C78BD" width="48" height="48"/><path fill="#FFFFFF" d="M38.9,34.6c-0.1-0.1-0.1-0.2-0.1-0.3c0-4.8,0-9.5,0-14.3c0-0.1,0-0.2,0.1-0.3c0,0.3,0.1,0.6,0.1,1
    c0,4.2,0,8.3,0,12.5C39,33.6,39,34.1,38.9,34.6z"/><path fill="#FFFFFF" d="M28,9c-0.1,0.1-0.2,0.1-0.3,0.1c-2.5,0-5,0-7.5,0c-0.1,0-0.2,0-0.3-0.1c0.2,0,0.4,0,0.6,0
    c2.3,0,4.6,0,6.9,0C27.6,9,27.8,9,28,9z"/><path fill="#FFFFFF" d="M9,20.1c0.1,0.1,0.1,0.2,0.1,0.3c0,2.4,0,4.8,0,7.2c0,0.1,0,0.2-0.1,0.3c0-0.3,0-0.6,0-0.9
    c0-2.1,0-4.2,0-6.3C9,20.5,9,20.3,9,20.1z"/><path fill="#FFFFFF" d="M20.2,39c0.1-0.1,0.2-0.1,0.3-0.1c4.2,0,8.5,0,12.7,0c0.1,0,0.2,0,0.3,0.1l-0.2,0c-4.3,0-8.6,0-12.9,0
    L20.2,39z"/><path fill="#FFFFFF" d="M38.9,20.5c0-0.3-0.1-0.6,0-0.8c0-0.3,0-0.5-0.1-0.8c-0.7-4.1-2.9-7.1-6.7-8.9c-1.3-0.6-2.7-1-4.2-1
    c-0.2,0.1-0.4,0-0.5,0c-2.3,0-4.6,0-7,0c-0.2,0-0.4,0.1-0.6,0c-0.3,0-0.7,0-1,0.1c-4.2,0.7-7.2,3-9,6.8c-0.6,1.3-0.9,2.7-0.9,4.1
    c0.1,0.2,0,0.4,0,0.6c0,2.2,0,4.5,0,6.7c0,0.2,0.1,0.4,0,0.6c0,0.4,0,0.8,0.1,1.2c0.7,4,2.9,7,6.5,8.8c1.4,0.7,2.9,1.1,4.5,1.1
    c0.1,0,0.2,0,0.3,0c4.3,0,8.5,0,12.8,0c0.1,0,0.2,0,0.3,0c0.9,0,1.9,0,2.8-0.2c1.2-0.2,2-0.8,2.3-2c0.2-0.7,0.3-1.5,0.3-2.2
    c-0.1-0.5,0-0.9,0-1.4C38.9,29,38.9,24.7,38.9,20.5z M22.3,27.3c-0.7,1.4-1.4,2.9-2.1,4.3c-0.3,0.7-1.1,1-1.8,0.8
    c-0.7-0.2-1.2-0.8-1.2-1.6c0-0.2,0.1-0.5,0.2-0.7c0.7-1.4,1.4-2.8,2-4.2c0.4-0.8,1.3-1.2,2.1-0.8C22.4,25.5,22.7,26.5,22.3,27.3z
     M20.9,21.4c-1.1,0-2-0.9-2-2c0-1.1,0.9-2,2-2c1.1,0,2,0.9,2,2C22.9,20.6,22,21.4,20.9,21.4z M28.6,31.8c-0.4,0.6-1.1,0.9-1.8,0.6
    c-0.7-0.2-1.1-0.9-1-1.6c0-0.3,0.1-0.5,0.3-0.7c2.5-4.1,2.5-8.1,0-12.2c-0.3-0.5-0.4-1.1-0.1-1.6c0.3-0.5,0.8-0.8,1.4-0.8
    c0.5,0,0.9,0.3,1.2,0.7c1.3,2,2.1,4.2,2.3,6.6c0,0.4,0.1,0.8,0.1,1.2C31,26.8,30.2,29.5,28.6,31.8z"/></g></svg>