<svg xmlns="http://www.w3.org/2000/svg" viewBox="-0.100006103515625 0 323.5 315.5"><g viewBox="0 0 323.4 315.6" id="certified"><path style="fill:#006635" d="M131.2,323.3s-24.7-2.3-41.9,22c13.2,8.2,19,10.2,19,10.2l-7.7,41.7s33.9-23,53.2-20C149.7,364.1,131.2,323.3,131.2,323.3Z" transform="translate(-89.4 -81.7)"/><path style="fill:#006635" d="M370.9,323.3s24.7-2.3,41.9,22c-13.2,8.2-19,10.2-19,10.2l7.7,41.7s-33.9-23-53.2-20C352.5,364.1,370.9,323.3,370.9,323.3Z" transform="translate(-89.4 -81.7)"/><path style="fill:#f3ea24" d="M139.7,314.9c-3.3-4.4-13.4.4-16.1-4.4a146.2,146.2,0,0,1-20.1-74.3c0-81.2,65.8-150.8,147-150.8s147,69.6,147,150.8a146.3,146.3,0,0,1-20.7,75.3c-1.8,3-42.8,8.8-44.8,11.6" transform="translate(-89.4 -81.7)"/><path style="fill:#5b5423" d="M334.3,326.1l-1.2-2-4.4-3.1c1.6-2.3,5-3.3,24.3-7.2,7.2-1.5,18-3.7,20.8-4.9a143,143,0,0,0,19.8-72.7c0-79.7-65.6-147-143.2-147s-143.2,67.3-143.2,147a143,143,0,0,0,19.6,72.4c0.5,0.5,3.3.5,4.7,0.4,3.8-.1,8.4-0.1,11.2,3.6l-6.1,4.6c-0.5-.6-3.4-0.5-5-0.5-3.8.1-8.9,0.1-11.4-4.2a150.7,150.7,0,0,1-20.6-76.2c0-83.8,69.1-154.6,150.8-154.6s150.8,70.8,150.8,154.6a150.7,150.7,0,0,1-21.3,77.3c-1.5,2.6-4.9,3.6-25.4,7.8C346.8,322.9,336.1,325.1,334.3,326.1Zm39.9-17.4h0Z" transform="translate(-89.4 -81.7)"/><path style="fill:#006635" d="M374.3,369.4s4.4-50.6,5.9-69.3c-6.1-4.6-59.6-12.9-140.2-15.3-51.3,1.3-65.5,0-119.3,18.9,1.3,19.7,4.8,53.6,5.9,65.1,10.7-3,133.2-21.4,247.7.7" transform="translate(-89.4 -81.7)"/><path style="fill:#cd2127" d="M345.1,245.5c0,44.4-42.4,80.4-94.7,80.4s-94.7-36-94.7-80.4S198.1,165,250.4,165s94.7,36,94.7,80.4" transform="translate(-89.4 -81.7)"/><path style="fill:#669941" d="M126.6,368.8c13.4,4.3,22,6.2,27.3,8.4-0.9-2.9-4.5-12.1-4.5-12.1A143.8,143.8,0,0,0,126.6,368.8Z" transform="translate(-89.4 -81.7)"/><path style="fill:#669941" d="M375.4,369.9c-13.8,3.3-21.8,5-27.1,7.3,2-5.9,4.2-11.5,4.2-11.5A186.2,186.2,0,0,1,375.4,369.9Z" transform="translate(-89.4 -81.7)"/><path style="fill:#669941" d="M271.4,157.4c-1.6-5.8-8.2-5-9.4-6.7,10.5,14.8-2.3,8.5-6.1,1.8-2.8-5,2-8.1,5-9.9-5.1.2-10.6,1.7-16,7.5,1.1,3.9,2.1,7.6,2.9,10.1l7.8-5c-2.8,3-3.5,5.1-3.1,8,4.7,1.5,9.3,6.1,16.4,10.5-8.4-5.2-15.4-5-19.2-2.9,0.2,3-.3,7-2,13-1.7-4.8-5.6-7.3-11.5-8.9-4.1-1.1-8.2-.5-14.3,3.8,4-5.1,5.9-7.5,7.4-9.9s-0.4-4.8-6.2-7.7c5.6,2.8,8,1.1,9.9-3.1-2.3,4.9-1.5,7.4-.6,8.7a5.3,5.3,0,0,0,4.3,2.2c3.4-.4,5.1-2.8,4.9-6.7-0.8-1.7-.9-5.6-0.4-11.6a37.4,37.4,0,0,1,4.4-15.6c2.4-4.4,4.5-1.7,1.1-6.1l-6.8-2.4c-1.7,5.9-.7,15.1-6,27.4-6.5-3.2-11.4-4.4-15.4-7.5l6.7,9.1q-9.2-.1-13.5,2.3c-2.9,1.5-4.3,4.5-8.4,5.2s-7.2,2.8-15.8-3c3.2,2.1,8.2,8.6,13.8,10.2,7.8,1.6,13.5-5.9,13.7-1.5,0,1.6-1.5,1.5-3.7,1.9-22,4-33.8,24.5-36.8,25.9,22.8-10.4,39.1-20.1,46.9-7.4,1.7,2.8,4.6,6.9-.4,12.6-2.8,3.1-8.9,2.5-28.7,8.2,10.3-3,42.6,14.5,49.4-21.8-0.6,2.9,14.6,7,22,16.1s11.7,16.3,14.1,30.8c1,5.9,2.4-27.6-.8-36.4-4.3-11.7-7.7-12.9-14-16.4,1.2,0.6,2.2-.6,2.8-0.8a53.5,53.5,0,0,1,10.1-1h0.1a60.5,60.5,0,0,1,13.5,1.6h0.8l0.8,0.2,2.1,0.6,1.5,0.4a109.7,109.7,0,0,1,12,4.2c3.8,1.6,7.8,3.4,11.9,5.6s5.3,2.9,8.1,4.4a60.9,60.9,0,0,0-5.6-6.8l-0.9-1c-11-11.2-35.3-23.7-56.8-23.7,5.3,0,10.7,1.2,8-8.6" transform="translate(-89.4 -81.7)"/><path style="fill:#006635" d="M240.3,126.8a14.8,14.8,0,0,0,3.9.4s2.8-.3,4,1,1.3,1.3.8,5.2a50,50,0,0,1-1.6,7.2l-2.3,9.5,2.9,9.4,8.6-5.1s-4.9,4-3.9,8.7c0,0,6.5,1.2,16.4,10.8,0,0-12.5-6.6-19-2.8,0,0,.7,3.4-2.4,13.6,0,0-2.2-8.1-12.4-9.7,0,0-6.1-1.1-14.7,4.9,0,0,4.7-5.9,8.2-11.1,0,0,1.2-1.2-.1-3.1,0,0-.9-1.9-6.8-5.1,0,0,3.9,1.9,6.8,1.1,0,0,3-.3,4.9-4.9,0,0-2.2,6.8-1.1,9.2a4.4,4.4,0,0,0,3.7,2.5,4.4,4.4,0,0,0,4.7-3.1s0.7-1.1-.1-4.8c0,0-.4-2.6,0-9.4a29.3,29.3,0,0,1,1.8-9.7s1.5-3.4,3.2-8.6c0,0,.9-2.5,0-3.6a2.7,2.7,0,0,0-1.5-.5,6.5,6.5,0,0,1-3.1-1S239.9,126.9,240.3,126.8Z" transform="translate(-89.4 -81.7)"/></g></svg>