<svg xmlns="http://www.w3.org/2000/svg" viewBox="97.92654418945312 51.08839416503906 188.65780639648438 169.38404846191406"><g class="hashtag_landing_page_error_dark_mode__cls-2" clip-path="url(#hashtag_landing_page_error_dark_mode__a)"><path d="M285.6 150.6c-7.85 45.14-57.66 77.28-108.8 68.39s-85.61-55.69-77.76-100.8c7.16-41.14 55.64-74.54 106.7-65.66s87.64 53 79.78 98.1" fill="#005d7b"/><path d="M232.3 137.7a41.92 41.92 0 11-41.92-41.92 41.92 41.92 0 0141.92 41.92" fill="#00b8e6"/><path class="hashtag_landing_page_error_dark_mode__cls-5" d="M184.4 197.6c.92 1.25.46 2.44-.79 3.36s-2.83 1.24-3.75 0a2.81 2.81 0 01.88-3.88 2.48 2.48 0 013.66.54M146.72832894 69.49907133l1.36523526-.66823102 4.89742999 10.00573733-1.36523526.66823102z"/><path class="hashtag_landing_page_error_dark_mode__cls-5" d="M145.4554491 78.53813682l8.08046408-6.81402965.98632596 1.16964144-8.08046409 6.81402965z"/></g></svg>