<svg xmlns="http://www.w3.org/2000/svg" viewBox="4.930000305175781 2 14.139999389648438 20"><g id="settings_remote"><path d="M5.64,5.64L4.93,4.93C6.74,3.12,9.24,2,12,2s5.26,1.12,7.07,2.93l-0.71,0.71C16.73,4.01,14.48,3,12,3S7.27,4.01,5.64,5.64z
	 M12,6c1.65,0,3.15,0.67,4.24,1.76l0.71-0.71C15.68,5.78,13.93,5,12,5c-1.93,0-3.68,0.78-4.95,2.05l0.71,0.71
	C8.85,6.67,10.35,6,12,6z M14,11h-4v10h4V11 M15,10v12H9V10H15L15,10z M12,12c-0.55,0-1,0.45-1,1s0.45,1,1,1s1-0.45,1-1
	S12.55,12,12,12L12,12z"/></g></svg>