<svg xmlns="http://www.w3.org/2000/svg" viewBox="74.54999542236328 62.41999816894531 234.63003540039062 191.4199981689453"><g clip-path="url(#hashtag_landing_page_error__c)"><path class="hashtag_landing_page_error__cls-5" d="M97.84 141.7c-13.72 0-23.29-9.79-23.29-23.8 0-14.7 10.44-26.67 23.29-26.67 13.42 0 23.15 10.36 23.15 24.64 0 14.49-10.17 25.83-23.15 25.83m0-48.94c-12 0-21.76 11.28-21.76 25.14 0 13.11 8.94 22.27 21.76 22.27 12.12 0 21.62-10.67 21.62-24.3 0-13.39-9.09-23.11-21.62-23.11M262.6 72.57c0 5.93-6 10.15-11.94 10.15s-10.74-3.62-10.74-9.55a10.74 10.74 0 0110.74-10.75c5.94 0 11.94 4.21 11.94 10.15M171.8 253.8l-1.42-.58c6.93-16.6 15-33.65 29.94-43.66 7.41-4.94 16-7.72 24.32-10.41 6.25-2 12.72-4.12 18.61-7.11a63.07 63.07 0 0025.84-24.55 125.3 125.3 0 006.52-13.89 116.7 116.7 0 017.25-15.15c5.21-8.66 14.84-17.71 26.32-17l-.08 1.53c-10.76-.59-20 8-24.93 16.31a115.8 115.8 0 00-7.15 15 129.9 129.9 0 01-6.6 14.06A64.63 64.63 0 01244 193.4c-6 3.05-12.53 5.16-18.84 7.21-8.22 2.65-16.71 5.4-23.94 10.23-14.64 9.77-22.54 26.58-29.37 43"/></g></svg>