<svg xmlns="http://www.w3.org/2000/svg" viewBox="0.3900001049041748 -1.399999976158142 28.296001434326172 34.08000183105469"><g transform="translate(29.56 69.795)"><path fill="#FFAE47" fill-rule="nonzero" d="M5.16 13.8h7.4v18.88h-7.4z"/><path d="M.86 25.3l3.37 3.02c.36.32.9.26 1.2-.12l12.44-16.52c.27-.36.2-.88-.18-1.15L14 7.9c-.36-.27-.86-.2-1.13.16L.74 24.2c-.25.34-.2.82.1 1.1z" fill="#404040" fill-rule="nonzero"/><circle fill="#67C0FF" fill-rule="nonzero" cx="18.37" cy="6.64" r="6.46"/><g transform="translate(11.906)"><path d="M7.83-1.4L4.55 15.43M9.48-1.4l-3.3 16.83M11.12-1.4l-3.3 16.83M12.76-1.4L9.48 15.43M6.2-1.4L2.9 15.43M4.55-1.4l-3.3 16.83M2.9-1.4L-.37 15.43m-.55-3.63L13.3 2.22m-15.4 8.42l14.24-9.58m-15.4 8.42L11-.1M-4.4 8.32L9.8-1.26M.24 12.96l14.22-9.58M1.4 14.12l14.23-9.58M2.56 15.3l14.22-9.6" mask="url(#artwork__p)" stroke="#2F82FF" stroke-width=".5"/></g><g transform="translate(11.906)"><path d="M0 .8c1.84 6.25 6.15 10.23 12.43 12.43" stroke="#2F82FF" stroke-width="1.23" mask="url(#artwork__r)"/></g><ellipse fill="#FFAE47" fill-rule="nonzero" cx="12.26" cy="19.36" rx="2.86" ry="3.39"/><circle fill="#FFAE47" fill-rule="nonzero" cx="3.25" cy="18.42" r="2.86"/><circle fill="#FFAE47" fill-rule="nonzero" cx="6.1" cy="14.66" r="2.86"/><circle fill="#FFAE47" fill-rule="nonzero" cx="8.98" cy="11.01" r="2.86"/></g></svg>