<svg xmlns="http://www.w3.org/2000/svg" viewBox="2.004141330718994 3.9999990463256836 19.99418067932129 16"><g height="24" style="enable-background:new 0 0 24 24" width="24" id="youtube_kids"><path d="M14.98 11.86c-.02.02-.05.03-.07.05-.19.13-.38.26-.58.39l-3.02 2.06c-.22.17-.63.43-.79.34-.16-.08-.21-.65-.25-.93l-.01-.06c-.05-.33-.42-3.48-.46-3.83-.01-.1-.07-.46.04-.54.12-.09.42.01.52.05.6.19 3.58 1.23 4.5 1.69.03.01.06.03.09.04.13.06.31.13.32.35 0 .21-.16.31-.29.39zm7.01 1.4c0-.08 0-.16-.01-.24-.01-.92-.54-5.32-.83-6.11-.34-.91-.81-1.59-1.4-2.03-.94-.71-1.76-.86-2.75-.88h-.02c-.43 0-3.21.34-5.54.66s-5.25.75-5.95 1c-.96.35-1.73.82-2.33 1.42-1.12 1.1-1.25 2.25-1.11 3.74.11 1.16.73 5.71 1.08 6.75.48 1.41 1.41 2.25 2.63 2.38.3.03.58.05.87.05 1.07 0 1.91-.23 2.89-.49 1.54-.41 3.46-.93 7.41-.93H17.05c.97 0 3.34-.21 4.42-2.2.57-1.06.54-2.35.52-3.12zm-1.4 2.65c-.82 1.51-2.75 1.68-3.56 1.68h-.1c-4.09 0-6.07.53-7.67.96-.95.25-1.7.45-2.63.45-.25 0-.5-.01-.76-.04-1.04-.11-1.54-.99-1.79-1.71-.3-.88-.91-5.21-1.04-6.53-.14-1.47.06-2.18.82-2.93.5-.5 1.15-.89 1.97-1.19.17-.06 1.1-.32 5.74-.95 2.63-.36 5.07-.64 5.42-.65.83.02 1.43.13 2.17.69.43.32.79.86 1.06 1.58.22.58.76 4.78.77 5.77l.01.25c.01.67.04 1.79-.41 2.62z"/></g></svg>