<svg xmlns="http://www.w3.org/2000/svg" viewBox="1 1 18 18"><g id="heart_circle"><path d="M12.24,6.46c0.25,0.02,0.47,0.07,0.68,0.17c0.22,0.11,0.42,0.25,0.59,0.44c0.17,0.19,0.29,0.4,0.38,0.64
	C13.97,7.95,14.01,8.2,14,8.45l0,0.03V8.5c0,0.75-0.3,1.5-0.97,2.41c-0.47,0.64-1.97,2.22-3.02,3.29c-1.05-1.07-2.55-2.65-3.02-3.29
	C6.3,10,6,9.26,6,8.51V8.48l0-0.03C5.99,8.2,6.03,7.95,6.11,7.71c0.08-0.24,0.21-0.45,0.38-0.64c0.17-0.19,0.36-0.33,0.58-0.44
	c0.21-0.1,0.43-0.16,0.66-0.17c0.29,0.01,0.56,0.08,0.81,0.2C8.8,6.79,9.03,6.99,9.2,7.22L10,8.26l0.8-1.04
	c0.18-0.23,0.41-0.42,0.66-0.55C11.7,6.54,11.97,6.47,12.24,6.46 M12.26,5.46C11.82,5.47,11.39,5.57,11,5.77h0
	c-0.39,0.2-0.74,0.49-1,0.84C9.73,6.26,9.39,5.97,9,5.77c-0.39-0.2-0.82-0.31-1.28-0.31C7.34,5.48,6.98,5.57,6.64,5.73
	C6.3,5.89,5.99,6.12,5.74,6.41C5.49,6.69,5.29,7.02,5.17,7.38C5.04,7.74,4.98,8.12,5,8.51c0,0.98,0.36,1.91,1.17,3
	c0.73,1,3.42,3.71,3.53,3.82l0.3,0.3l0.3-0.3c0.11-0.12,2.8-2.83,3.53-3.82C14.64,10.41,15,9.48,15,8.5
	c0.02-0.38-0.04-0.76-0.16-1.12c-0.13-0.36-0.32-0.69-0.57-0.97c-0.25-0.29-0.56-0.51-0.9-0.68C13.02,5.57,12.66,5.48,12.26,5.46
	L12.26,5.46z M10,2c4.41,0,8,3.59,8,8s-3.59,8-8,8s-8-3.59-8-8S5.59,2,10,2 M10,1c-4.97,0-9,4.03-9,9c0,4.97,4.03,9,9,9
	c4.97,0,9-4.03,9-9C19,5.03,14.97,1,10,1L10,1z"/></g></svg>