<svg xmlns="http://www.w3.org/2000/svg" viewBox="2 2 20 20"><g id="circles_6-filled"><path d="M18,4c0,1.1-0.9,2-2,2s-2-0.9-2-2s0.9-2,2-2S18,2.9,18,4z M8,2C6.9,2,6,2.9,6,4s0.9,2,2,2s2-0.9,2-2S9.1,2,8,2z M4,10
		c-1.1,0-2,0.9-2,2s0.9,2,2,2s2-0.9,2-2S5.1,10,4,10z M12,10c-1.1,0-2,0.9-2,2s0.9,2,2,2s2-0.9,2-2S13.1,10,12,10z M20,10
		c-1.1,0-2,0.9-2,2s0.9,2,2,2s2-0.9,2-2S21.1,10,20,10z M16,18c-1.1,0-2,0.9-2,2s0.9,2,2,2s2-0.9,2-2S17.1,18,16,18z M8,18
		c-1.1,0-2,0.9-2,2s0.9,2,2,2s2-0.9,2-2S9.1,18,8,18z"/></g></svg>