<svg xmlns="http://www.w3.org/2000/svg" viewBox="0 0 60 60"><g fill="none" fill-rule="evenodd"><circle fill="#000" cx="30" cy="30" r="30"/><g fill="#FFF"><path d="M22.30890433 29.00246849v-3.95942196c0-.77613479.05733334-1.34405458.17133334-1.70409303.11433333-.35970478.30066666-.6326533.55933333-.81884557.25833333-.18652594.534-.27962208.82733333-.27962208.40266667 0 .616.1554939.80966667.46581435 0 1.58096589.04666667 6.29616829.04666667 6.29616829h1.92500003v-5.27110978c0-1.3921042-.2036667-2.23263883-1.1183334-2.79121563-.4023333-.24592061-.4703333-.36871408-1.05166663-.36871408-.45733334 0-.88733334.108779-1.28966667.3260033-.40266667.217558-.77766667.54623073-1.12566667.9860182-.23833333-.43978747-.544-.7684602-.91666666-.9860182-.373-.2172243-.81266667-.3260033-1.31966667-.3260033-.954 0-1.77666667.43745173-2.46733333 1.3120215v-1.12582923H15.428571v8.24484722h2.09466667v-4.00613686c0-.79148398.056-1.35840273.16766666-1.7000889.11166667-.34135249.297-.60295597.55533334-.78380939.25833333-.1811871.549-.27194749.87233333-.27194749.26833333 0 .48066667.05705892.63733333.17084309.15633334.11411784.52633334.28729667.601.52020384.07433334.23290718.112.75077528.112 1.55260327v4.51833244h1.84zM29.5693805 30.11528428c-.2426666 0-.7493333-.03270043-1.0513333-.09776762l.0153333 1.74013024c.357.0850879.9553334.0423771 1.326.0423771.366 0 .8506667-.0427108 1.1413334-.1277986.2906666-.0854216.5356666-.2045446.7346666-.3573691.199-.1531581.3753334-.3523638.5286667-.5979508.1533333-.2455869.3146667-.60162122.484-1.06776924l.46-1.39143684 2.5743333-7.68627042h-1.9976666l-1.7026667 5.6708559-1.7436667-5.6708559h-2.0526666l2.7733333 8.0096043c-.1143333.44612735-.279.81350672-.4943333 1.10180442-.215.28829771-.5466667.43244656-.9953334.43244656M43.5402377 34.2900525v2.8135721H17.306571l-.00433333-2.8179099H15.448571l-.02 4.6801662h30l-.0143333-4.6758284z"/></g></g></svg>