<svg xmlns="http://www.w3.org/2000/svg" viewBox="1 1 16 16"><g id="heart_circle"><path d="M10.99,5.96c0.21,0.01,0.39,0.06,0.56,0.14c0.18,0.09,0.35,0.21,0.49,0.37c0.14,0.15,0.24,0.33,0.31,0.53
	c0.07,0.2,0.1,0.41,0.09,0.62l0,0.03v0.03c0,0.65-0.25,1.27-0.84,2.08c-0.41,0.55-1.67,1.88-2.6,2.83c-0.93-0.95-2.19-2.28-2.6-2.83
	c-0.59-0.8-0.84-1.43-0.84-2.08V7.65l0-0.03C5.55,7.41,5.58,7.2,5.65,7c0.07-0.2,0.17-0.38,0.31-0.53c0.14-0.15,0.3-0.28,0.48-0.36
	C6.62,6.02,6.8,5.98,6.99,5.96c0.24,0.01,0.47,0.07,0.67,0.17C7.87,6.24,8.06,6.4,8.2,6.59L9,7.64l0.8-1.04
	c0.15-0.19,0.34-0.35,0.55-0.46C10.55,6.03,10.77,5.97,10.99,5.96 M11.01,4.96c-0.38,0.01-0.77,0.1-1.11,0.28h0
	C9.55,5.42,9.24,5.68,9,5.99C8.76,5.68,8.45,5.42,8.11,5.24C7.76,5.07,7.38,4.97,6.97,4.96C6.64,4.98,6.32,5.06,6.01,5.2
	c-0.3,0.15-0.57,0.35-0.8,0.6C4.99,6.06,4.82,6.35,4.7,6.67c-0.11,0.32-0.16,0.66-0.14,1c0,0.87,0.32,1.69,1.04,2.67
	c0.65,0.89,3.04,3.3,3.14,3.4L9,14.01l0.26-0.27c0.1-0.1,2.49-2.51,3.14-3.4c0.72-0.98,1.04-1.8,1.04-2.67
	c0.02-0.34-0.03-0.68-0.14-1c-0.11-0.32-0.28-0.61-0.51-0.87c-0.23-0.25-0.5-0.46-0.8-0.6C11.68,5.06,11.36,4.98,11.01,4.96
	L11.01,4.96z M9,2c3.86,0,7,3.14,7,7s-3.14,7-7,7s-7-3.14-7-7S5.14,2,9,2 M9,1C4.58,1,1,4.58,1,9s3.58,8,8,8c4.42,0,8-3.58,8-8
	S13.42,1,9,1L9,1z"/></g></svg>