<svg xmlns="http://www.w3.org/2000/svg" viewBox="0 0 60 60"><g id="cyworld"><g fill="none" fill-rule="evenodd"><circle fill="#F15623" cx="30" cy="30" r="30"/><path d="M29.9934915 38.3940442c-3.6424799 0-7.1037358-3.0281835-6.9503002-6.8518872.0279729-.6982151.4468281-1.2286849 1.2003427-1.2286849.6837208 0 1.2140061.5445025 1.2140061 1.2141907.0279729 2.4843272 2.0514394 4.4937612 4.5359514 4.4937612 2.4978982 0 4.5213648-2.009434 4.54943-4.4937612 0-.6696882.5297313-1.2141907 1.2138215-1.2141907.7536992 0 1.1723698.5304698 1.2001581 1.2286849.1533432 3.8237037-3.3072665 6.8518872-6.9634096 6.8518872zm-.5864158-8.2196982l-2.3305223-2.330707-.4190399-.4050072c-.3626323-.376665-.4462741-.9207059-.2510176-1.3673493.0558535-.139403.1397722-.2654196.2510176-.3770343l2.7495622-2.7491929c.4744318-.4742471 1.2559193-.4742471 1.7308127 0 .4738778.474801.4738778 1.2560116 0 1.7309972l-1.8842483 1.8836943 1.8842483 1.8836943c.4738778.4746164.4738778 1.2561963 0 1.7308126-.4748934.4749857-1.2563809.4749857-1.7308127.0000923zm-7.4104223-3.9775085c0 .6700575-.5582581 1.214006-1.228131 1.214006-.6837208 0-1.2279464-.5440409-1.2279464-1.214006v-3.8936822c0-.6696882.5442256-1.2279464 1.2279464-1.2279464.6698729 0 1.228131.5582582 1.228131 1.2279464v3.8936822zm16.0071548 0v-3.8936822c0-.6696882.5582581-1.2279464 1.2283156-1.2279464.6696883 0 1.2275771.5582582 1.2275771 1.2279464v3.8936822c0 .6700575-.5578888 1.214006-1.2275771 1.214006-.6700575 0-1.2283156-.5440409-1.2283156-1.214006zM14 29.9931222c0 8.8470115 7.1593123 16.0072471 15.9934915 16.0072471C38.8408723 46.0003693 46 38.8401337 46 29.9931222 46 21.1589431 38.8408723 14 29.9934915 14 21.15922 13.9999077 14 21.1588507 14 29.9931222z" fill="#FFF"/></g></g></svg>