<svg xmlns="http://www.w3.org/2000/svg" viewBox="4 2 16 20"><g id="message_bubble_question"><path d="M19,3H5v16.59L8.59,16H19V3z M20,2v15H9l-5,5V2H20z M14.75,7.73c0,0.88-0.53,1.35-1.03,1.81c-0.42,0.38-0.81,0.73-0.91,1.29 L12.77,11h-1.38l0.02-0.23c0.11-0.95,0.63-1.42,1.16-1.84c0.41-0.32,0.8-0.62,0.8-1.21c0-0.41-0.18-0.78-0.5-1.04 c-0.32-0.25-0.73-0.34-1.12-0.23C11.29,6.58,10.93,7,10.82,7.54l-0.04,0.23H9.4l0.05-0.34c0.16-1.13,0.91-2.05,1.91-2.32 c0.83-0.23,1.69-0.06,2.35,0.46C14.37,6.08,14.75,6.87,14.75,7.73z M12.1,14c0.43,0,0.79-0.35,0.79-0.79c0-0.43-0.35-0.79-0.79-0.79 c-0.43,0-0.79,0.35-0.79,0.79C11.32,13.65,11.67,14,12.1,14z"/></g></svg>