<svg xmlns="http://www.w3.org/2000/svg" viewBox="0 0 60 60"><g fill="none" fill-rule="evenodd"><circle fill="#E35615" cx="30" cy="30" r="30"/><path d="M22.0296292 16.5908518c1.5360178-1.2704239 3.3553358-1.8901429 5.294171-2.2309884 3.0366232-.5400409 5.9094634.0531188 8.6893459 1.2571443 1.4253537.619719 2.8064418 1.3456756 4.2804877 1.859157.3231392.1150907.6551315.2169017.995977.2611673.619719.0885313 1.1243474-.1239438 1.5315913-.5798799.5311877-.6020128.7171034-1.3235428.7171034-2.1070447.1505032-.0088531.1814892.1062376.2301814.1947689.4515095.8321941.3231392 2.1911493-.2921533 2.8949731-.6462784.7392362-1.5006053.8720332-2.408051.7657956-1.0358161-.1195172-2.0185134-.4205236-2.956945-.8720332-1.7706258-.8454738-3.5678109-1.6245491-5.4933664-2.0583524-2.4124776-.5444674-4.8028224-.4515096-7.1400484.3275658-3.404028 1.1287739-5.1967865 4.5150956-4.267208 7.9899487.5356143 2.0052336 1.6643882 3.5810905 3.4217342 4.6965848.7613691.4824955 1.6024164.6329987 2.4877292.6241455.8985926-.0132796 1.7706258-.1859157 2.6470855-.3541251.1505032-.0265594.3010064-.0663985.5356143.0044266-.7657956.4736424-1.5271647.7436628-2.3327994.9118722-1.1818927.2478876-2.3637854.2478876-3.5456781.0221328-1.0181098-.1947688-1.8547305-.7436628-2.5275682-1.5094584-1.3368225-1.5183116-2.2973869-3.2358186-2.5851136-5.2720382-.3983908-2.7975887.5798799-5.0551365 2.7179105-6.8257623zm9.5525259 29.7730721c-1.5758569.1283703-3.1561404.1991954-4.7364239.2213282-2.2265618.0354125-4.4619769.0486922-6.6575528-.3187127-3.5678109-.6020127-6.329987-2.377065-7.6756626-5.882904-.72153-1.8812899-.6285722-3.8378313-.0486922-5.7501071.8676066-2.8639872 2.1822962-5.4933664 4.3247534-7.6446767.5533205-.5577471 1.1774661-1.0358161 1.788332-1.5271647.0619719-.0486922.1150907-.1239438.2390345-.0841048-.0265594.1814892-.132797.3187127-.2301814.4603627-1.6643882 2.3726385-3.0853154 4.8736474-4.1609705 7.5738517-.7480894 1.8812898-.9295785 3.7979922-.4338033 5.7633868.6108659 2.4301839 2.2309884 3.9307892 4.5106691 4.8116755 1.6511085.6418518 3.3774686.9472848 5.1259615 1.1509067 2.4301839.2877267 4.8736474.4824955 7.3082578.7171035.2346079.0221328.4692158.0885312.6949706.1505031.1106641.0265594.2523142.0752516.2346079.2213283-.0132796.1770625-.172636.1239438-.2833001.1372235zm1.199599-.1283704c-.0752516.1062375-.1593563.2346079-.3142861.1814891-.1372235-.0486922-.1195172-.1947688-.1239438-.3098595-.0354125-.8233409.0973844-1.6378288.1770626-2.4523166.1062375-1.168613.3054329-2.337226.1947688-3.5191187-.0354125-.376258-.203622-.6020128-.5400408-.7613691-.9826973-.4692158-2.0406462-.6241456-3.1074482-.7303831-1.3058365-.1283704-2.6160996-.1150907-3.9219361-.1903423-.0841047-.0044265-.1637829-.0221328-.243461-.0354125 2.5231417-.4116705 5.0418568-.6418518 7.5782782-.3364189 1.2084521.1460766 1.4386334.3939642 1.4651928 1.6112694.0486922 1.9299821-.2213282 3.8201251-.7702222 5.670429-.0885313.305433-.203622.6108659-.3939642.8720332zm13.0937774-24.0805102c-.9118723.8676066-2.0273665 1.4032209-3.129581 1.9653946-.995977.5046283-2.0229399.9517113-2.9613716 1.5670037-1.0225364.6684113-1.8680101 1.4828991-2.1513103 2.7311903-.2301813 1.0136832-.0442656 2.0140868.1593563 3.0056372.4470831 2.1778697 1.3323959 4.2096627 2.2044291 6.2414558.4515096 1.0490957.9295785 2.0849118 1.2881302 3.1694201.57988 1.7484929.0973845 3.0941685-1.4607662 4.0768657-1.1199208.7038238-2.3726385 1.0136833-3.6607687 1.2217318-.752516.1195173-1.5138851.1549298-2.2929604.2080485-.1637829-.0531187-.4692158.1283704-.517908-.1018109-.0486922-.2257548.2700204-.2965799.4559361-.376258 1.1287739-.4692158 2.266401-.9162988 3.3996014-1.3855147.7038238-.2921532 1.3899413-.6241455 2.02294-1.0535223.2169016-.1505032.416097-.3187126.5931596-.5134815.2788736-.314286.345272-.6418518.1814891-1.0490957-.8543269-2.1468837-1.8148914-4.2583549-2.5674073-6.4539309-.6064393-1.7706257-1.0889348-3.5633843-1.2173052-5.4491007-.1505032-2.2177088.619719-3.9440689 2.5319948-5.1348147.9030192-.5621737 1.8724368-.9782707 2.8462809-1.3987944 1.199599-.517908 2.3903448-1.0490957 3.4438671-1.8547304 1.5758569-1.2040255 2.093765-2.815295 1.9565415-4.7142911-.0619719-.8543269-.203622-1.6953741-.3983908-2.5319948-.0221329-.0929579-.1505032-.2346079.0177062-.305433.1549298-.0663984.2346079.0531188.3010064.1726361.5134815.934005.9118723 1.8989961 1.0402426 2.9702247.2434611 2.062779-.6595581 3.6342093-2.0849118 4.9931646z" fill="#FFF" fill-rule="nonzero"/></g></svg>