<svg xmlns="http://www.w3.org/2000/svg" viewBox="2 2 32 32"><g width="36" height="36" viewBox="0 0 36 36" id="face_meh_v2"><path d="M15,14.5c0,1.38-1.12,2.5-2.5,2.5S10,15.88,10,14.5s1.12-2.5,2.5-2.5S15,13.12,15,14.5z M23.5,12c-1.38,0-2.5,1.12-2.5,2.5  s1.12,2.5,2.5,2.5s2.5-1.12,2.5-2.5S24.88,12,23.5,12z M18,3C9.73,3,3,9.73,3,18s6.73,15,15,15s15-6.73,15-15S26.27,3,18,3 M18,2  c8.84,0,16,7.16,16,16s-7.16,16-16,16S2,26.84,2,18S9.16,2,18,2L18,2z M25,24.5c0-0.28-0.22-0.5-0.5-0.5h-13  c-0.28,0-0.5,0.22-0.5,0.5s0.22,0.5,0.5,0.5h13C24.78,25,25,24.78,25,24.5z"/></g></svg>