<svg xmlns="http://www.w3.org/2000/svg" viewBox="1 0.39999866485595703 73.9000015258789 24.63562774658203"><g transform="translate(28 115.7)"><mask fill="#fff"><path d="M1 .4h74V25H1z"/></mask><path d="M40.3 25c8.7-.3 16.8-1.9 24-4.6 1.7-.6 1-1.4 2.7-2.2 1.4-.6 5.2-1.3 6.5-2.1l1.4-.9c-2.2-1-5.7-2.7-9.5-4.8-1.2-.6-4.1-.9-5.4-1.6-1.3-.7-.9-2-2.2-2.7a100.6 100.6 0 0 1-8-5.7H6.3c-1 5.3-3 9.7-5.3 13.1 1.2 1 2.5 1.8 3.9 2.6s5.3 1.4 6.8 2.1c1.4.7.4 1.6 1.8 2.2 8 3.3 17.1 4.9 26.8 4.6" fill="#00D4B5" mask="url(#account_settings__b)"/></g></svg>