<svg xmlns="http://www.w3.org/2000/svg" viewBox="0.800000011920929 0.16088151931762695 130.59999084472656 69.87401580810547"><g transform="translate(13 71)"><mask fill="#fff"><path d="M.8.3h130.6V70H.8z"/></mask><path d="M26.7 69.7c17 1 39 0 72.9-6.3A40.2 40.2 0 0 0 131.4 38c-3.1-7.7-6.5-14.7-9.9-21.7-5-10.3-9.8-15.8-12.7-15-2 .5-2.3 2.2-1.8 6-1.5-3.2-5-7.6-7.1-7.1-2 .5-2.7 2.3-1.6 7C96.1 3 93.1.9 91.1 1.7c-1.9.9-1.8 4.2-.7 7.4-1.7-2.5-4.8-4.7-6.6-3.7-1.8 1-2.7 3.6 0 10.7 2.7 7.3 9.1 17.5 11 22.8 1.8 5.3-6.6 8.2-13.6 2.2-7.1-6-14.2-14-31.8-12.4C33.2 30.1 9.2 39.5.8 53.5a29.6 29.6 0 0 0 26 16.2" fill="#FFF" mask="url(#account_sharing__b)"/></g></svg>