<svg xmlns="http://www.w3.org/2000/svg" viewBox="29.83999252319336 39.04999923706055 128.35000610351562 127.05000305175781"><g class="hashtag_landing_page_empty_dark_mode__cls-3" clip-path="url(#hashtag_landing_page_empty_dark_mode__a)"><path class="hashtag_landing_page_empty_dark_mode__cls-4" d="M29.84 115a7.83 7.83 0 117.83 7.83 7.82 7.82 0 01-7.83-7.83M107 63c0-13.22 11.46-23.95 25.6-23.95s25.59 10.7 25.59 23.95-11.46 24-25.59 24S107 76.28 107 63"/><path class="hashtag_landing_page_empty_dark_mode__cls-5" d="M124.1 63a8.56 8.56 0 118.55 8 8.29 8.29 0 01-8.55-8"/><path class="hashtag_landing_page_empty_dark_mode__cls-5" d="M132.6 81.61c-11 0-19.89-8.36-19.89-18.64s8.92-18.64 19.89-18.64S152.49 52.7 152.49 63s-8.93 18.64-19.89 18.64m0-36.28c-10.41 0-18.89 7.92-18.89 17.64s8.48 17.64 18.89 17.64S151.49 72.7 151.49 63s-8.48-17.64-18.89-17.64M128.7 166.1l-37.92-60.3-29.01 60.3-.9-.5 29.8-61.9 38.93 61.9z"/><path class="hashtag_landing_page_empty_dark_mode__cls-5" d="M84.8549784 165.83839492l5.40121727-61.1218165.99611826.08802505-5.40121727 61.1218165z"/><path class="hashtag_landing_page_empty_dark_mode__cls-6" d="M59.52 88.34L70.3 111.4l39.1-14.29-17.05-34.09z"/></g></svg>