<svg xmlns="http://www.w3.org/2000/svg" viewBox="0 0 48 48"><g id="wykop"><rect fill="#337EAD" width="48" height="48"/><path fill="#FFFFFF" d="M40.5,16.6c-0.4-2.9-1.8-5.2-4.7-6.3c-1.3-0.5-2.7-0.8-4.1-0.9c-2.6-0.3-5.2-0.3-7.6-0.3
    c-3.2,0-6.2,0-9.2,0.4c-4.8,0.7-7.2,3.4-7.7,7.9C7,20,7,22.6,7,25.2c0.1,2.3,0.1,4.5,0.6,6.8c0.6,3,2.3,5.1,5.3,6
    c1.5,0.5,3.1,0.7,4.7,0.8c3.1,0.3,6.3,0.1,9.4,0.1c2.3,0,4.6-0.1,6.8-0.6c3.4-0.7,5.7-2.5,6.5-6c0.4-1.6,0.6-3.2,0.6-4.8
    C41,24,41.1,20.3,40.5,16.6z M37.1,28.9c-0.1,1.2-0.3,2.4-0.9,3.5c-0.7,1.4-1.9,2-3.4,2.2C30,35.1,27,35,24,35.1
    c-2.7,0-5.3-0.1-8-0.3c-3.1-0.2-4.7-1.9-5.1-5.1c-0.4-3.5-0.4-7-0.1-10.5c0.1-0.9,0.2-1.8,0.5-2.7c0.6-1.9,1.9-2.9,3.7-3.2
    C17.1,13,19,13,21,13c3.3-0.1,6.5,0,9.8,0.1c0.8,0,1.6,0.2,2.4,0.3c2.2,0.4,3.2,1.9,3.7,3.9c0.3,1.3,0.4,2.7,0.4,4
    C37.3,23.8,37.3,26.4,37.1,28.9z"/><path fill="#FFFFFF" d="M35,25.8c0,0.2-0.2,0.2-0.4,0.3c-2.5,1.2-5,2.5-7.5,3.7c-2.5,1.2-5,2.4-7.4,3.7c-0.4,0.2-0.6,0.2-0.8-0.2
    c-1.8-3.7-3.6-7.4-5.4-11c-0.2-0.3-0.1-0.5,0.2-0.6c1-0.5,2.1-1,3.1-1.5c0.4-0.2,0.5-0.1,0.7,0.3c1.4,3,2.9,5.9,4.3,8.9
    c0.3,0.5,0.5,0.5,0.9,0.3c1.4-0.7,1.4-0.7,0.7-2.1c-1.3-2.7-2.6-5.4-4-8.1c-0.2-0.4-0.2-0.5,0.2-0.7c1-0.5,2-0.9,3-1.5
    c0.4-0.2,0.6-0.2,0.8,0.3c1.4,2.9,2.9,5.9,4.3,8.8c0.2,0.5,0.4,0.6,0.9,0.3c1.4-0.7,1.4-0.7,0.7-2.1c-1.3-2.7-2.6-5.4-4-8.1
    c-0.2-0.4-0.2-0.5,0.2-0.7c1.1-0.5,2.1-1,3.1-1.5c0.3-0.1,0.4-0.2,0.6,0.2c1.8,3.7,3.7,7.5,5.5,11.2C34.9,25.7,34.9,25.7,35,25.8z"/></g></svg>