<svg xmlns="http://www.w3.org/2000/svg" viewBox="74.79000091552734 62.73999786376953 233.79000854492188 190.66000366210938"><g clip-path="url(#hashtag_landing_page_error_dark_mode__c)"><path class="hashtag_landing_page_error_dark_mode__cls-5" d="M98 141.7c-13.67 0-23.21-9.75-23.21-23.71.03-14.65 10.44-26.58 23.21-26.58 13.37 0 23.07 10.33 23.07 24.56 0 14.43-10.13 25.73-23.07 25.73m0-48.76c-12 0-21.68 11.24-21.68 25 0 13.06 8.91 22.18 21.68 22.18 12.08 0 21.55-10.63 21.55-24.2 0-13.34-9.07-23-21.55-23M262.2 72.85c0 5.92-6 10.11-11.9 10.11s-10.7-3.6-10.7-9.51a10.7 10.7 0 0110.7-10.71c5.92 0 11.9 4.2 11.9 10.11M171.7 253.4l-1.41-.59c6.9-16.54 14.89-33.53 29.83-43.49 7.38-4.93 15.94-7.7 24.22-10.38 6.24-2 12.68-4.1 18.56-7.08a62.89 62.89 0 0025.73-24.46 125.3 125.3 0 006.5-13.84 117.2 117.2 0 017.22-15.1c5.2-8.63 14.84-17.63 26.23-17l-.08 1.52c-10.77-.6-19.88 8-24.84 16.25a117.6 117.6 0 00-7.13 14.9 126.2 126.2 0 01-6.57 14 64.35 64.35 0 01-26.37 25c-6 3-12.49 5.15-18.78 7.18-8.18 2.65-16.64 5.39-23.85 10.19-14.58 9.74-22.45 26.49-29.26 42.82"/></g></svg>