<svg xmlns="http://www.w3.org/2000/svg" viewBox="2 6 20 12"><g width="24" height="24" style="enable-background:new 0 0 24 24" id="people_group"><path d="M12.62 12.03C13.98 11.73 15 10.45 15 9c0-1.66-1.34-3-3-3S9 7.34 9 9c0 1.45 1.02 2.73 2.38 3.03C8.36 12.34 6 14.89 6 18h12c0-3.11-2.36-5.66-5.38-5.97zM10 9c0-1.1.9-2 2-2s2 .9 2 2-.9 2-2 2-2-.9-2-2zm2 4c2.41 0 4.43 1.72 4.9 4H7.1c.47-2.28 2.49-4 4.9-4zm5.7.35c.96 1.35 1.41 3 1.26 4.65H22c0-2.5-1.65-4.55-3.8-4.92 1.01-.11 1.8-1.04 1.8-2.08 0-1.1-.9-2-2-2s-2 .9-2 2c0 .91.62 1.74 1.45 2.01l.25.34zm-11.15-.34C7.38 12.74 8 11.91 8 11c0-1.1-.9-2-2-2s-2 .9-2 2c0 1.04.79 1.97 1.8 2.08C3.65 13.45 2 15.5 2 18h3.04c-.15-1.65.3-3.3 1.26-4.65l.25-.34z"/></g></svg>