<svg xmlns="http://www.w3.org/2000/svg" viewBox="2 5 20 14"><g id="point_8x"><path d="M19.5,14.5L22,19h-1l-2-3.6L17,19h-1l2.5-4.5L16,10h1l2,3.6l2-3.6h1L19.5,14.5z M4,17H2v2h2V17z M13.31,11.5 C13.73,11.87,14,12.4,14,13v4c0,1.1-0.9,2-2,2H8c-1.1,0-2-0.9-2-2v-4c0-0.6,0.27-1.13,0.69-1.5C6.27,11.13,6,10.6,6,10V7 c0-1.1,0.9-2,2-2h4c1.1,0,2,0.9,2,2v3C14,10.6,13.73,11.13,13.31,11.5z M12,12H8c-0.55,0-1,0.45-1,1v4c0,0.55,0.45,1,1,1h4 c0.55,0,1-0.45,1-1v-4C13,12.45,12.55,12,12,12z M12,11c0.55,0,1-0.45,1-1V7c0-0.55-0.45-1-1-1H8C7.45,6,7,6.45,7,7v3 c0,0.55,0.45,1,1,1H12z"/></g></svg>