<svg xmlns="http://www.w3.org/2000/svg" viewBox="2 2 20 20"><g id="very_sad-filled"><path d="M12,2C6.48,2,2,6.48,2,12c0,5.52,4.48,10,10,10s10-4.48,10-10C22,6.48,17.52,2,12,2z M7,11.5c0-0.68,0.45-1.24,1.07-1.43
	c-1.12-0.14-1.71-0.81-2-1.32C5.93,8.51,6.01,8.21,6.25,8.07c0.24-0.14,0.54-0.06,0.68,0.18C7.22,8.75,7.75,9,8.5,9
	c0.78,0,1.31-0.25,1.56-0.73c0.13-0.25,0.43-0.34,0.67-0.22c0.25,0.13,0.34,0.43,0.22,0.67c-0.27,0.52-0.84,1.2-2.01,1.34
	C9.55,10.26,10,10.82,10,11.5c0,0.83-0.67,1.5-1.5,1.5S7,12.33,7,11.5z M16.26,17.43c-0.08,0.05-0.17,0.07-0.26,0.07
	c-0.17,0-0.33-0.08-0.43-0.24c-0.77-1.25-2.11-2-3.57-2s-2.8,0.75-3.57,2c-0.14,0.23-0.45,0.31-0.69,0.16
	c-0.23-0.14-0.31-0.45-0.16-0.69c0.95-1.55,2.61-2.47,4.43-2.47s3.47,0.92,4.43,2.47C16.57,16.97,16.5,17.28,16.26,17.43z
	 M17.94,8.73c-0.27,0.52-0.84,1.2-2.01,1.34C16.55,10.26,17,10.82,17,11.5c0,0.83-0.67,1.5-1.5,1.5S14,12.33,14,11.5
	c0-0.68,0.45-1.24,1.07-1.43c-1.12-0.14-1.71-0.81-2-1.32c-0.14-0.24-0.06-0.54,0.18-0.68c0.24-0.14,0.54-0.06,0.68,0.18
	C14.22,8.75,14.75,9,15.5,9c0.78,0,1.31-0.25,1.56-0.73c0.13-0.25,0.43-0.34,0.67-0.22C17.97,8.18,18.07,8.48,17.94,8.73z"/></g></svg>