<svg xmlns="http://www.w3.org/2000/svg" viewBox="2 2 20 20"><g id="happy"><path d="M12,17c-1.82,0-3.47-0.92-4.43-2.47c-0.14-0.24-0.07-0.54,0.16-0.69c0.23-0.14,0.54-0.07,0.69,0.16c0.77,1.25,2.11,2,3.57,2
	s2.8-0.75,3.57-2c0.15-0.24,0.46-0.31,0.69-0.16c0.24,0.14,0.31,0.45,0.16,0.69C15.47,16.08,13.82,17,12,17z M12,3
	c-4.96,0-9,4.04-9,9s4.04,9,9,9s9-4.04,9-9S16.96,3,12,3 M12,2c5.52,0,10,4.48,10,10s-4.48,10-10,10S2,17.52,2,12S6.48,2,12,2L12,2z
	 M8.5,8C7.67,8,7,8.67,7,9.5S7.67,11,8.5,11S10,10.33,10,9.5S9.33,8,8.5,8z M15.5,8C14.67,8,14,8.67,14,9.5s0.67,1.5,1.5,1.5
	c0.83,0,1.5-0.67,1.5-1.5S16.33,8,15.5,8z"/></g></svg>