<svg xmlns="http://www.w3.org/2000/svg" viewBox="0 0 48 48"><g id="cyworld"><rect fill="#FF6500" width="48" height="48"/><path fill="#FFFFFF" d="M41,24c0,9.4-7.6,17-17,17c-9.4,0-17-7.6-17-17c0-9.4,7.6-17,17-17C33.4,7,41,14.6,41,24z M24,15
    c-5,0-9,4-9,9c0,5,4,9,9,9c5,0,9-4,9-9C33,19,29,15,24,15z"/><path fill="#FFFFFF" d="M18,19.6v2.3c0,0.4,0.3,0.7,0.7,0.7c0.4,0,0.7-0.3,0.7-0.7v-2.3c0-0.4-0.3-0.7-0.7-0.7
    C18.3,18.9,18,19.2,18,19.6z"/><path fill="#FFFFFF" d="M28.4,19.6v2.3c0,0.4,0.3,0.7,0.7,0.7c0.4,0,0.7-0.3,0.7-0.7v-2.3c0-0.4-0.3-0.7-0.7-0.7
    C28.7,18.9,28.4,19.2,28.4,19.6z"/><path fill="#FFFFFF" d="M26.3,24.8c0,1.4-1.1,2.6-2.6,2.6c-1.4,0-2.6-1.1-2.6-2.6c0-0.4-0.3-0.7-0.7-0.7c-0.4,0-0.7,0.3-0.7,0.7
    c0,2.2,1.8,4,4,4c2.2,0,4-1.8,4-4c0-0.4-0.3-0.7-0.7-0.7C26.6,24.1,26.3,24.4,26.3,24.8z"/><path fill="#FFFFFF" d="M23.5,19.9l-1.6,1.6c-0.1,0.1-0.2,0.3-0.2,0.5c0,0.2,0.1,0.4,0.2,0.5l1.6,1.6c0.3,0.3,0.7,0.3,1,0
    c0.1-0.1,0.2-0.3,0.2-0.5c0-0.2-0.1-0.4-0.2-0.5c0,0-0.6-0.6-1.1-1.1c0.5-0.5,1.1-1.1,1.1-1.1c0.1-0.1,0.2-0.3,0.2-0.5
    c0-0.2-0.1-0.4-0.2-0.5C24.2,19.6,23.7,19.6,23.5,19.9z"/></g></svg>