<svg xmlns="http://www.w3.org/2000/svg" viewBox="0 0 48 48"><g id="meneame"><rect fill="#FF6400" width="48" height="48"/><path fill="#FFFFFF" d="M38.3,15.7c-2.4,2.4-6.7,2.3-8.2,5.6c-1.4,3.9,1.8,10,3.2,13.5c0.9,1.8-7.1,3.6-6.1,4
    c5.6-0.1,8-2.1,7.3-4.6c-0.6-2.4-3.6-7.2-3.6-11.1c0.1-2.9,3.3-3.8,5.4-5c2.4-1.1,4.7-3.5,4.1-6.4c0-1-1.8-4.4-1.1-1.8
    C39.7,11.9,39.9,14.2,38.3,15.7z"/><path fill="#FFFFFF" d="M30.9,11.3c-3.1-1.6-6.5-2.5-10-1.7C19,10,16.8,11,15.5,12.8c-1.7,2-1.7,4.9-0.6,7.2c0.9,1.8,2.2,3.7,4.3,4
    c1.8,0.3,3.8,0,5.3-1c-1.8,0.3-4,1-5.6-0.3c-2.8-1.8-4.1-5.8-2.4-8.7c1.3-2.5,4.1-3.3,6.9-3.4c3.8-0.2,7.5,2,8.9,2.5
    c1.4,0.4,3.3,1,4.3-0.5c0.6-0.7,0.3-2.5-0.1-2.7c0.1,1.3-0.8,2.9-2.3,2.5C33,12.3,32,11.8,30.9,11.3z"/><path fill="#FFFFFF" d="M10.4,22.7c-1.8,2.8-3.4,6.1-2.8,9.5c0.6,3.6,4,6.1,7.4,6.5c3.5,0.4,7,0.3,10.6,0.1
    c0.6-0.6-2.9-0.6-4.3-0.8c-3.3-0.4-7-0.4-9.8-2.4c-2.7-2-3-5.9-1.7-8.8c1.1-2.7,2.7-5.3,4.4-7.6C12.8,20.3,11.6,21.1,10.4,22.7z"/><path fill="#FFFFFF" d="M19.2,31.5c2.1,0.2,5.5-0.1,7.1,1.1c0.6,0.9-0.5,5.7-0.1,6.3c0.8,0.2,1.8-5.7,1.2-7.1
    C27.1,30.6,20,31.2,19.2,31.5z"/></g></svg>