<svg xmlns="http://www.w3.org/2000/svg" viewBox="0 0 48 48"><g id="odnoklassniki"><rect fill="#F6881F" width="48" height="48"/><path fill="#FFFFFF" d="M24,24.2c4.8,0,8.6-3.9,8.6-8.6c0-4.8-3.9-8.6-8.6-8.6c-4.8,0-8.6,3.9-8.6,8.6C15.4,20.4,19.2,24.2,24,24.2
    z M24,11.4c2.3,0,4.2,1.9,4.2,4.2c0,2.3-1.9,4.2-4.2,4.2c-2.3,0-4.2-1.9-4.2-4.2C19.8,13.3,21.7,11.4,24,11.4z M33.9,25.3
    c-0.5-1-1.8-1.8-3.6-0.4c-2.4,1.9-6.3,1.9-6.3,1.9s-3.9,0-6.3-1.9c-1.8-1.4-3.1-0.6-3.6,0.4c-0.8,1.7,0.1,2.5,2.3,3.9
    c1.8,1.2,4.4,1.6,6,1.8L21,32.3c-1.9,1.9-3.8,3.8-5.1,5.1c-0.8,0.8-0.8,2,0,2.8l0.2,0.2c0.8,0.8,2,0.8,2.8,0l5.1-5.1
    c1.9,1.9,3.8,3.8,5.1,5.1c0.8,0.8,2,0.8,2.8,0l0.2-0.2c0.8-0.8,0.8-2,0-2.8L27,32.3L25.7,31c1.6-0.2,4.1-0.6,6-1.8
    C33.8,27.8,34.8,27,33.9,25.3z"/></g></svg>