<svg xmlns="http://www.w3.org/2000/svg" viewBox="-2.022399425506592 -3.880000114440918 18.64278793334961 24.28000259399414"><g transform="translate(47.625)"><path fill="#FF9BEA" fill-rule="nonzero" d="M8.45 19.94V10.9h3.7l.27 9.5"/><path d="M4.3 4.34c9.85 3.52 11.97 10.07 12.3 11.4.04.14.02.3-.05.43l-.16.3c-.1.18-.4.27-.6.2-1.7-.56-8.9-3.45-11.6-12.33z" fill="#6F38D4" fill-rule="nonzero"/><g transform="translate(4.106 4.106)"><path fill="#00D4B5" fill-rule="nonzero" mask="url(#artwork__j)" d="M1.12 5.27L5.1 1.3.2-.58"/></g><path d="M.17.27S7.42.9 5.7 4.77l-.32.45c-.37.5-.9.86-1.53.93C.85 6.5.17.27.17.27z" fill="#CE4115" fill-rule="nonzero"/><path d="M.5 4.78c3.33.52 2.47-1.25 1.72-1.56-.6-.83.44-1.4 1.57-.35 1.1 1.06 1.9-1.7 1.9-1.7L.1-3.88l-1.98 5s-1 3.12 2.3 3.65z" fill="#FFC100" fill-rule="nonzero" mask="url(#artwork__l)"/><ellipse fill="#FF9BEA" fill-rule="nonzero" cx="8.21" cy="11.85" rx="1.72" ry="2.04"/><circle fill="#FF9BEA" fill-rule="nonzero" cx="9.49" cy="6.99" r="1.68"/><circle fill="#FF9BEA" fill-rule="nonzero" cx="11.71" cy="8.68" r="1.68"/><circle fill="#FF9BEA" fill-rule="nonzero" cx="13.86" cy="10.37" r="1.68"/></g></svg>