<svg xmlns="http://www.w3.org/2000/svg" viewBox="2 2 32 32"><g width="36" height="36" viewBox="0 0 36 36" id="face_unhappy_v2"><path d="M24.88,26.5c-0.19,0-0.38-0.11-0.46-0.3C23.3,23.65,20.78,22,18,22s-5.3,1.65-6.42,4.2c-0.11,0.25-0.4,0.37-0.66,0.26  c-0.25-0.11-0.37-0.41-0.26-0.66C11.94,22.88,14.82,21,18,21s6.06,1.88,7.33,4.8c0.11,0.25,0,0.55-0.26,0.66  C25.01,26.49,24.94,26.5,24.88,26.5z M18,3C9.73,3,3,9.73,3,18s6.73,15,15,15s15-6.73,15-15S26.27,3,18,3 M18,2  c8.84,0,16,7.16,16,16s-7.16,16-16,16S2,26.84,2,18S9.16,2,18,2L18,2z M16.46,12.71c0.11-0.25,0-0.55-0.25-0.66  c-0.25-0.11-0.55,0-0.66,0.25C15.03,13.43,14.01,14,12.5,14c-1.45,0-2.47-0.58-3.05-1.73c-0.12-0.25-0.42-0.35-0.67-0.22  c-0.25,0.12-0.34,0.43-0.22,0.67C9.31,14.21,10.67,15,12.5,15C14.41,15,15.78,14.21,16.46,12.71z M27.46,12.71  c0.11-0.25,0-0.55-0.25-0.66c-0.25-0.11-0.55,0-0.66,0.25C26.03,13.43,25.01,14,23.5,14c-1.45,0-2.47-0.58-3.05-1.73  c-0.13-0.25-0.43-0.35-0.67-0.22c-0.25,0.12-0.34,0.43-0.22,0.67C20.31,14.21,21.67,15,23.5,15C25.41,15,26.78,14.21,27.46,12.71z"/></g></svg>