<svg xmlns="http://www.w3.org/2000/svg" viewBox="2 4 20 16"><g id="person_2"><path d="M9.06,12C11.24,11.97,13,10.19,13,8c0-2.21-1.79-4-4-4C6.79,4,5,5.79,5,8c0,2.19,1.76,3.97,3.94,4C5.1,12.04,2,15.61,2,20
	h14C16,15.61,12.9,12.04,9.06,12z M6,8c0-1.65,1.35-3,3-3s3,1.35,3,3c0,1.66-1.35,3.01-3,3.01S6,9.66,6,8z M9,13
	c3.02,0,5.52,2.61,5.94,6H3.06C3.48,15.61,5.98,13,9,13z"/><path d="M18,20h4c0-4.39-3.1-7.96-6.94-8C17.24,11.97,19,10.19,19,8c0-2.21-1.79-4-4-4c-0.47,0-0.91,0.09-1.33,0.24
	c0.22,0.27,0.41,0.56,0.58,0.87C14.49,5.04,14.74,5,15,5c1.65,0,3,1.35,3,3s-1.35,3-3,3c-0.26,0-0.51-0.04-0.75-0.11
	c-0.17,0.31-0.37,0.6-0.58,0.87C14.07,11.9,14.5,12,14.95,12c-0.17,0-0.34,0.03-0.51,0.04c0.35,0.3,0.69,0.62,1,0.98
	c2.82,0.24,5.11,2.75,5.5,5.98H18V20z"/></g></svg>