<svg xmlns="http://www.w3.org/2000/svg" viewBox="0 0.9000000357627869 118.5999984741211 42.2001953125"><g transform="translate(16 97.2)"><mask fill="#fff"><path d="M0 .9h118.6V43H0z"/></mask><path d="M5.2.9C1.9.9 0 2.5 0 6.7v17.4c0 2.5 1.3 4.5 5.2 4.5h5.6c2 0 3.3 1 3.3 4V39c0 1.8-.3 4.1 4 4.1h82.1c5 0 6.5.1 6.5-4.2V32c0-2.5.3-4.1 2.8-4.1h4c2 0 5.1-1 5.1-4.6V.9H47.8c-3.7 0-7.6.9-7.6 4.2v4.3c0 2-1.2 3.4-4.4 3.4h-8c-2 0-3.7-1.4-3.7-3.8V5C24 3 22.9 1 20.5 1H5.2z" fill="#00D4B5" mask="url(#account_privacy__b)"/></g></svg>