<svg xmlns="http://www.w3.org/2000/svg" viewBox="2 2 44 44"><g id="broadcast"><path d="M28,24c0,1.86-1.28,3.41-3,3.86V46h-2V27.86c-1.72-0.45-3-2-3-3.86c0-2.21,1.79-4,4-4S28,21.79,28,24z M24,11
	c-7.18,0-13,5.82-13,13c0,3.59,1.45,6.84,3.8,9.19l0.71-0.71C13.34,30.31,12,27.31,12,24c0-6.62,5.38-12,12-12s12,5.38,12,12
	c0,3.31-1.34,6.31-3.52,8.48l0.71,0.71c2.35-2.35,3.8-5.6,3.8-9.19C37,16.82,31.18,11,24,11z M24,2C11.85,2,2,11.85,2,24
	c0,6.07,2.46,11.57,6.44,15.55l0.71-0.71C5.35,35.04,3,29.79,3,24C3,12.42,12.42,3,24,3c11.58,0,21,9.42,21,21
	c0,5.79-2.35,11.04-6.15,14.84l0.71,0.71C43.54,35.57,46,30.07,46,24C46,11.85,36.15,2,24,2z"/></g></svg>