<svg xmlns="http://www.w3.org/2000/svg" viewBox="0 0 60 60"><g id="bebo"><g fill="none" fill-rule="evenodd"><path d="M30 0C13.4313793 0 0 13.4313793 0 30s13.4313793 30 30 30 30-13.4313793 30-30S46.5686207 0 30 0z" fill="#FF001A" fill-rule="nonzero"/><path d="M39.3367626 44.2374102c-4.9047301 2.7167565-8.3747532 2.0760984-9.7761257 2.0760984-7.1335922.1421143-13.8054936-5.8272584-13.8054936-14.7455743V16.5946055C15.7551433 15.67844 15.5103473 13 18.398411 13s2.9369642 2.5203128 2.9369642 3.5946055v14.9733288c-.029076.9837913-.2029443 3.4610695 1.2183995 5.4152126 1.6169456 2.2227879 3.9991173 4.1825069 7.0051001 4.1825069 3.7601951 0 6.0574885-.1787151 8.3703477-2.4305263 2.1253341-1.9229752 2.6432678-4.6124241 2.6432678-6.1478019 0-1.9361286-.603693-4.8015762-3.3775088-6.8626625-2.2428127-1.5485312-3.7328814-1.7156656-6.6081693-1.7156656-4.4904713 0-4.479164-5.4329412 0-5.4329412 2.790997 0 6.2110918.4843896 8.9577406 2.2875542C43.2987272 23.3281642 46 28.3487737 46 31.5354796c-.0071956 5.4593911-2.3939195 10.2137865-6.6632374 12.7019306z" fill="#FFF"/></g></g></svg>