<svg xmlns="http://www.w3.org/2000/svg" viewBox="0.4300000071525574 0.33000001311302185 21.209999084472656 15.069999694824219"><g viewBox="0 0 22 16" id="red"><path d="M2.6 7.03h.77C4.55 7.03 5 6.5 5 4.73c0-1.78-.45-2.3-1.63-2.3H2.6v4.6zM.43 15.26V.33h3.05c2.44 0 3.68 1.22 3.68 4.4 0 2.4-.8 3.37-1.52 3.77l1.84 6.76h-2.2L3.7 9.06c-.28.05-.73.08-1.12.08v6.12H.43zm17.34-7.9c0-1 .3-1.5.88-1.5.32 0 .66.16 1 .5v6.73c-.34.3-.68.46-1 .46-.58 0-.88-.5-.88-1.5V7.4zm-2 .17v4.4c0 1.02.07 1.76.2 2.23.27.82.8 1.24 1.6 1.24.72 0 1.4-.4 2.07-1.22v1.07h2V.4h-2v4.86c-.64-.8-1.33-1.2-2.06-1.2-.8 0-1.34.42-1.6 1.25-.14.47-.2 1.2-.2 2.25zM10.3 7.4c0-1.02.34-1.54 1-1.54.67 0 1 .52 1 1.54v1.02h-2V7.4zm4 2.7V7.8c0-1.18-.2-2.05-.6-2.6-.57-.76-1.37-1.14-2.37-1.14-1.02 0-1.82.38-2.4 1.13-.42.53-.62 1.4-.62 2.6v3.85c0 1.18.25 2.05.68 2.6.58.75 1.37 1.13 2.42 1.13 1.03 0 1.85-.4 2.4-1.2.25-.36.4-.76.48-1.2 0-.2.04-.65.04-1.3v-.3H12.3c0 .8-.04 1.26-.06 1.37-.1.53-.4.8-.9.8-.68 0-1-.5-1-1.53V10.1h4z"/></g></svg>