<svg xmlns="http://www.w3.org/2000/svg" viewBox="1.9966078996658325 4 20.043392181396484 16"><g id="person_setting"><path d="M10.5 4A3.5 3.5 0 1 0 14 7.5 3.5 3.5 0 0 0 10.5 4Zm0 6A2.5 2.5 0 1 1 13 7.5a2.5 2.5 0 0 1-2.5 2.5Zm1.5 9v1H2a8.76 8.76 0 0 1 8.5-9 8.1 8.1 0 0 1 3.73.92 7.47 7.47 0 0 0-.73.76 6.73 6.73 0 0 0-1.88-.58h-.2a7 7 0 0 0-.92-.1 7.69 7.69 0 0 0-7.44 7Zm9.13-3a2.32 2.32 0 0 0 0-.46l.91-.85-.83-1.38-1.21.33a3 3 0 0 0-.83-.46L18.83 12h-1.66l-.3 1.18a3 3 0 0 0-.83.46l-1.21-.33-.83 1.38.91.85a2.66 2.66 0 0 0 0 .92l-.91.85.83 1.38 1.17-.33a3 3 0 0 0 .83.46l.3 1.18h1.66l.3-1.18a3 3 0 0 0 .83-.46l1.21.33.87-1.38-.91-.85a2.32 2.32 0 0 0 .04-.46Zm-3.13.93a1 1 0 1 1 1-1 1 1 0 0 1-1 1Z"/></g></svg>