<svg xmlns="http://www.w3.org/2000/svg" viewBox="22.97845458984375 29.760000228881836 154.94960021972656 136.63999938964844"><g class="hashtag_landing_page_empty_dark_mode__cls-3" clip-path="url(#hashtag_landing_page_empty_dark_mode__a)"><path class="hashtag_landing_page_empty_dark_mode__cls-6" d="M177.8 91.43c1 8.51-3.95 17.36-11.59 21.17a15 15 0 01-1.35 5.46c-2.31 5.06-6.74 8.17-10.05 9.89a31.58 31.58 0 01-27.51.5l.29-.62a30.89 30.89 0 0026.9-.49c3.21-1.67 7.51-4.68 9.74-9.56a14.35 14.35 0 001.27-4.84c-.48.21-1 .41-1.47.58-3.71 1.29-7.26 1.24-10-.16h-.08c-3.27-1.72-5-5.6-3.92-8.69a7 7 0 016.73-4.32 9.41 9.41 0 017.1 4 12.54 12.54 0 012.36 7.53 20.83 20.83 0 0010.89-20.3zm-12.26 20.73a12 12 0 00-2.22-7.47 8.68 8.68 0 00-6.57-3.69 6.27 6.27 0 00-6.06 3.85c-.87 2.43.25 6.1 3.58 7.85h.08c3.46 1.76 7.41.83 9.45.12.6-.21 1.18-.45 1.74-.71M55.72 65.57l-.34-.74-6.37 2.94-2.17-6.33-.77.26 2.2 6.41-5.02 2.31.34.73 4.95-2.27 1.83 5.31.76-.26-1.86-5.4z"/><path class="hashtag_landing_page_empty_dark_mode__cls-4" d="M31.32 48.18A4.21 4.21 0 1128 43.24a4.2 4.2 0 013.32 4.94"/><path class="hashtag_landing_page_empty_dark_mode__cls-5" d="M77.91 31.28L62 29.76l7.36 15.59zM29.84 165.4h114v1h-114zM148.9 165.4h5.87v1h-5.87zM159.4 165.4h17.84v1H159.4z"/></g></svg>