<svg xmlns="http://www.w3.org/2000/svg" viewBox="0 0 60 60"><g id="tuenti"><g fill="none" fill-rule="evenodd"><circle fill-opacity=".87" fill="#000" cx="30" cy="30" r="30"/><g fill="#FFF"><path d="M23.659429 32.884887c-1.728 3.054857-3.133715 6.281142-4.659429 9.456 0 1.299428.802286 2.372571 2.074286 2.773714 1.138285.36 2.52-.133715 3.161143-1.368 1.285714-2.489143 2.502857-5.022857 3.682285-7.580572.562286-1.230857.109715-2.622857-.884571-3.36-1.083429-.802285-2.784-.990857-3.373714.078857zM34.019023 15.445437c-1.446857.912-1.676571 2.598857-.562285 4.354285 1.885714 3.013715 2.811428 6.294858 2.811428 9.857143-.096 1.004572-.133714 2.022857-.281143 3.024-.377143 2.653715-1.515428 4.998857-2.866285 7.275429-.805715 1.364571-.36343 2.945143.88457 3.774857 1.244572.805714 2.797715.497143 3.802287-.802286.202285-.253714.373714-.524571.534857-.805714 4.848-8.461714 4.834286-16.913143-.133714-25.309714-1.056-1.782857-2.746286-2.276572-4.189715-1.368zM22.655552 18.428658c-1.968-.013714-3.603429 1.604571-3.654857 3.6-.041143 1.875429 1.752 3.672 3.627428 3.644571 1.930286-.027428 3.644572-1.728 3.658286-3.617142 0-1.926858-1.686857-3.617143-3.630857-3.627429z"/></g></g></g></svg>