<svg xmlns="http://www.w3.org/2000/svg" viewBox="0 0 60 60"><g fill-rule="nonzero"><path d="M30,0 L30,0 C46.625,0 60,13.375 60,30 L60,30 C60,46.625 46.625,60 30,60 L30,60 C13.375,60 0,46.625 0,30 L0,30 C0,13.375 13.375,0 30,0 Z" fill="#ff0000"/><path d="M40,27.125 L42.5,24.625 L42.5,40 C42.5,41.375 41.375,42.5 40,42.5 L20,42.5 C18.625,42.5 17.5,41.375 17.5,40 L17.5,20 C17.5,18.625 18.625,17.5 20,17.5 L35.375,17.5 L32.875,20 L20,20 L20,40 L40,40 L40,27.125 Z M23.75,32.625 L34.5,21.875 L38.125,25.5 L27.375,36.25 L23.75,36.25 L23.75,32.625 Z M41,22.75 L39.25,24.5 L35.625,20.875 L37.375,19.125 C37.75,18.75 38.375,18.75 38.75,19.125 L41,21.375 C41.375,21.75 41.375,22.375 41,22.75 Z" fill="#FFFFFF"/></g></svg>