<svg xmlns="http://www.w3.org/2000/svg" viewBox="2 2 32 32"><g width="36" height="36" viewBox="0 0 36 36" fill="none" id="face_meh_v2-filled"><circle cx="18" cy="18" r="16" fill="#FFD61D"/><path d="M15 14.5C15 15.88 13.88 17 12.5 17C11.12 17 10 15.88 10 14.5C10 13.12 11.12 12 12.5 12C13.88 12 15 13.12 15 14.5ZM23.5 12C22.12 12 21 13.12 21 14.5C21 15.88 22.12 17 23.5 17C24.88 17 26 15.88 26 14.5C26 13.12 24.88 12 23.5 12ZM25 24.5C25 24.22 24.78 24 24.5 24H11.5C11.22 24 11 24.22 11 24.5C11 24.78 11.22 25 11.5 25H24.5C24.78 25 25 24.78 25 24.5Z" fill="black"/></g></svg>