<svg xmlns="http://www.w3.org/2000/svg" viewBox="2.4000000953674316 1 11.200000762939453 14"><g id="fire"><path d="M6.16,8.68L9,7v3.33c0,1.06-0.84,1.92-1.87,1.92s-1.87-0.86-1.87-1.92C5.26,9.63,5.62,9.02,6.16,8.68z M12.6,2.85v6.3
	C12.6,11.82,10.54,14,8,14c-2.54,0-4.6-2.18-4.6-4.86V9.05c0-0.7,0.14-1.41,0.41-2.05c0.33-0.78,0.85-1.46,1.5-1.96
	C5.88,4.6,6.56,4.27,7.27,3.92C7.51,3.8,7.76,3.68,8,3.56V4v1.85l1.55-1.01L12.6,2.85 M13.6,1L9,4V2C8.41,2.31,8.21,2.32,7.62,2.63
	C6.63,3.14,5.59,3.57,4.7,4.25C3.91,4.86,3.28,5.69,2.89,6.61C2.57,7.38,2.4,8.21,2.4,9.05c0,0.02,0,0.08,0,0.1
	C2.4,12.38,4.91,15,8,15c3.09,0,5.6-2.62,5.6-5.85V1L13.6,1z"/></g></svg>