<svg xmlns="http://www.w3.org/2000/svg" viewBox="0 0 60 60"><g fill="none" fill-rule="evenodd"><path d="M28.486325 59.9692983c-6.6364044-.569063-11.5630204-2.3269562-16.3219736-5.8239328C4.44376336 48.4721167 0 39.6467923 0 29.9869344 0 15.1115596 10.506778 2.79838844 25.2744118.36718043 31.302519-.62523147 37.978265.41644488 43.5623517 3.2208101 57.138627 10.0389054 63.3436513 25.7618627 58.2050226 40.3239688c-3.5279559 9.9977054-12.7897094 17.6177847-23.3910729 19.2449379-2.0856252.3201125-5.0651487.5086455-6.3276247.4003916z" fill="#44A836" fill-rule="nonzero"/><circle fill="#00AFF0" cx="30" cy="30" r="30"/><path d="M36.2719048 35.4523242c-.5263334.7487732-1.2973334 1.3370473-2.3126667 1.7594835-1.0146667.4264404-2.2176667.6379922-3.609.6379922-1.6686667 0-3.044-.2896324-4.129-.8695646-.7673333-.4170974-1.3926667-.9753405-1.8736667-1.6717263-.4796666-.6957184-.72-1.3737519-.72-2.0327658 0-.3810601.1436667-.7083982.432-.9796783.288-.2739495.6556667-.4097564 1.101-.4097564.3613334 0 .668.1054422.917.318996.2506667.2125528.464.5258764.6396667.9439748.216.4948443.448.9092723.6986667 1.2409481.249.3326769.6016666.6076275 1.0536666.8228497.4543334.2145549 1.0506667.3236676 1.7883334.3236676 1.0143333 0 1.8393333-.2162233 2.4736666-.652674.6336667-.4334476.9523334-.9776762.9523334-1.6286818 0-.5158661-.172-.9363002-.5136667-1.2562973-.3426667-.3226665-.7846667-.5682535-1.3266667-.7377619-.542-.1705094-1.2663333-.3510291-2.1743333-.5415592-1.2146667-.2602687-2.2313333-.5682534-3.0493333-.9176142-.8183334-.3506955-1.469-.8275212-1.9486667-1.4321455-.481-.6059591-.7206667-1.3574017-.7206667-2.2546616 0-.8568849.2526667-1.6166694.7613334-2.2810221.507-.6653538 1.2403333-1.176882 2.2026666-1.534251.961-.3573691 2.0906667-.5352194 3.39-.5352194 1.0373334 0 1.9353334.119123 2.6923334.3546996.757.237245 1.3843333.5525706 1.8843333.9449758.5.3930726.866.8044975 1.0956667 1.2362767.231.4297771.3463333.8532144.3463333 1.2609687 0 .3747203-.1436667.7147381-.4323333 1.0143809-.2876667.3006438-.647.4521335-1.0773334.4521335-.3933333 0-.6913333-.0910941-.8946666-.2716138-.2036667-.1805197-.4253334-.475491-.6626667-.8859148-.308-.5866058-.6756667-1.0450792-1.108-1.3730846-.4306667-.3300074-1.1213333-.4938433-2.0753333-.4938433-.8826667 0-1.5963334.1768493-2.1383334.5352194-.5423333.356368-.8133333.7871462-.8133333 1.2893314 0 .3096531.0933333.5802659.2773333.8064995.183.2272346.4376667.4197668.7613334.5829353.3216666.1621674.6486666.2896324.979.3830622.3306666.0917614.8763333.2255663 1.639.4024155.952.2052119 1.8143333.4324466 2.5873333.6790346.7726667.2482563 1.43.5489001 1.972.9009303.542.3546996.9653333.802829 1.2686667 1.3443883.3033333.5398908.456 1.2035761.456 1.9887202 0 .9403044-.2646667 1.7855105-.79 2.5359521m7.1333333-5.8296866c0-7.3933012-5.9876667-13.3868237-13.3736667-13.3868237-.6906666 0-1.3633333.0667356-2.026.1685074-1.333-1.1391764-3.0596666-1.8328927-4.9506666-1.8328927-4.211 0-7.6263334 3.417529-7.6263334 7.6352177 0 1.7201095.5763334 3.3027438 1.5366667 4.5793955-.1963333.9156121-.3066667 1.8622563-.3066667 2.8365958 0 7.3949696 5.9863334 13.3888257 13.373 13.3888257.9493334 0 1.8746667-.1037738 2.7676667-.2923018 1.3393333 1.1712094 3.0873333 1.883278 5.003 1.883278 4.212 0 7.6263333-3.417529 7.6263333-7.6332156 0-2.0851532-.8353333-3.9721017-2.1896666-5.3485231.0986666-.6553433.1663333-1.3180277.1663333-1.9980632" fill="#FFF"/></g></svg>