<svg xmlns="http://www.w3.org/2000/svg" viewBox="1 3.6399998664855957 18 12.729999542236328"><g id="mix-filled"><path d="M8.27,12V8l3.46,2L8.27,12z M5.76,5.76C4.67,6.84,4,8.34,4,10s0.67,3.16,1.76,4.24l1.42-1.42C6.45,12.1,6,11.1,6,10 c0-1.1,0.45-2.1,1.17-2.83L5.76,5.76z M12.83,7.17C13.55,7.9,14,8.9,14,10c0,1.1-0.45,2.1-1.17,2.83l1.42,1.42 C15.33,13.16,16,11.66,16,10s-0.67-3.16-1.76-4.24L12.83,7.17z M3.64,3.64C2.01,5.26,1,7.51,1,10s1.01,4.74,2.64,6.36l1.42-1.42 C3.79,13.68,3,11.93,3,10c0-1.93,0.79-3.68,2.05-4.95L3.64,3.64z M14.95,5.05C16.21,6.32,17,8.07,17,10c0,1.93-0.79,3.68-2.05,4.95 l1.42,1.42C17.99,14.74,19,12.49,19,10s-1.01-4.74-2.64-6.36L14.95,5.05z"/></g></svg>