<svg xmlns="http://www.w3.org/2000/svg" viewBox="2 2 32 32"><g width="36" height="36" viewBox="0 0 36 36" fill="none" id="face_unhappy_v2-filled"><circle cx="18" cy="18" r="16" fill="#FFD61D"/><path d="M24.88 26.5C24.69 26.5 24.5 26.39 24.42 26.2C23.3 23.65 20.78 22 18 22C15.22 22 12.7 23.65 11.58 26.2C11.47 26.45 11.18 26.57 10.92 26.46C10.67 26.35 10.55 26.05 10.66 25.8C11.94 22.88 14.82 21 18 21C21.18 21 24.06 22.88 25.33 25.8C25.44 26.05 25.33 26.35 25.07 26.46C25.01 26.49 24.94 26.5 24.88 26.5ZM16.46 12.71C16.57 12.46 16.46 12.16 16.21 12.05C15.96 11.94 15.66 12.05 15.55 12.3C15.03 13.43 14.01 14 12.5 14C11.05 14 10.03 13.42 9.44998 12.27C9.32998 12.02 9.02998 11.92 8.77998 12.05C8.52998 12.17 8.43998 12.48 8.55998 12.72C9.30998 14.21 10.67 15 12.5 15C14.41 15 15.78 14.21 16.46 12.71ZM27.46 12.71C27.57 12.46 27.46 12.16 27.21 12.05C26.96 11.94 26.66 12.05 26.55 12.3C26.03 13.43 25.01 14 23.5 14C22.05 14 21.03 13.42 20.45 12.27C20.32 12.02 20.02 11.92 19.78 12.05C19.53 12.17 19.44 12.48 19.56 12.72C20.31 14.21 21.67 15 23.5 15C25.41 15 26.78 14.21 27.46 12.71Z" fill="black"/></g></svg>