<svg xmlns="http://www.w3.org/2000/svg" viewBox="3.1500000953674316 3.1500000953674316 17.71000099182129 17.850000381469727"><g id="rss_off"><path d="M7.95,18.59C7.98,18.72,8,18.86,8,19c0,1.1-0.9,2-2,2c-0.14,0-0.28-0.02-0.41-0.05L7.95,18.59z M20.15,3.15l-5.89,5.89
		C11.49,6.64,7.92,5.14,4,5.02v1c3.64,0.12,6.96,1.51,9.55,3.72l-3.54,3.54C8.34,11.96,6.27,11.13,4,11.02v1
		c1.99,0.1,3.81,0.83,5.29,1.98l-3.03,3.03C6.18,17.02,6.09,17,6,17c-1.1,0-2,0.9-2,2c0,0.09,0.02,0.18,0.03,0.26l-0.88,0.88
		l0.71,0.71l17-17L20.15,3.15z M15.62,11.91c2,2.52,3.25,5.65,3.36,9.09h1c-0.11-3.71-1.47-7.1-3.64-9.8L15.62,11.91z M11.35,16.18
		c0.94,1.39,1.53,3.04,1.63,4.82h1c-0.1-2.06-0.79-3.96-1.9-5.54L11.35,16.18z"/></g></svg>