<svg xmlns="http://www.w3.org/2000/svg" viewBox="1 1 14 14"><g id="heart_circle"><path d="M9.74,5.47c0.16,0.01,0.3,0.05,0.44,0.11c0.15,0.07,0.28,0.17,0.39,0.29c0.11,0.12,0.19,0.27,0.25,0.42
	c0.06,0.16,0.08,0.32,0.07,0.49l0,0.03v0.03c0,0.54-0.21,1.06-0.71,1.75C9.83,9.04,8.8,10.13,8,10.95c-0.8-0.82-1.83-1.91-2.17-2.37
	c-0.5-0.68-0.71-1.2-0.71-1.74V6.81l0-0.03C5.1,6.62,5.13,6.45,5.18,6.29c0.06-0.16,0.14-0.3,0.25-0.42
	c0.11-0.12,0.24-0.22,0.38-0.29c0.13-0.06,0.28-0.1,0.42-0.11C6.43,5.48,6.61,5.52,6.77,5.6C6.94,5.69,7.09,5.82,7.2,5.97L8,7.01
	l0.8-1.04C8.91,5.82,9.06,5.69,9.23,5.6C9.39,5.52,9.57,5.48,9.74,5.47 M9.76,4.47C9.42,4.47,9.08,4.56,8.78,4.71h0
	C8.48,4.87,8.21,5.09,8,5.36c-0.21-0.27-0.48-0.5-0.78-0.65c-0.3-0.15-0.64-0.24-1-0.24C5.93,4.48,5.65,4.55,5.39,4.68
	c-0.27,0.13-0.5,0.3-0.7,0.53c-0.2,0.22-0.35,0.48-0.45,0.76C4.14,6.24,4.1,6.54,4.11,6.84c0,0.76,0.28,1.48,0.91,2.34
	c0.57,0.78,2.66,2.88,2.75,2.97L8,12.38l0.23-0.23c0.09-0.09,2.18-2.2,2.75-2.97c0.63-0.85,0.91-1.58,0.91-2.34
	c0.02-0.3-0.03-0.59-0.13-0.87c-0.1-0.28-0.25-0.54-0.45-0.76c-0.2-0.22-0.43-0.4-0.7-0.53C10.35,4.55,10.07,4.48,9.76,4.47
	L9.76,4.47z M8,2c3.31,0,6,2.69,6,6s-2.69,6-6,6s-6-2.69-6-6S4.69,2,8,2 M8,1C4.13,1,1,4.13,1,8s3.13,7,7,7c3.87,0,7-3.13,7-7
	S11.87,1,8,1L8,1z"/></g></svg>