<svg xmlns="http://www.w3.org/2000/svg" xmlns:xlink="http://www.w3.org/1999/xlink" fill="none" height="26" viewBox="0 0 77 26" width="77"><clipPath id="a"><path d="m0 0h77v26h-77z"/></clipPath><g clip-path="url(#a)" fill="#fff"><path d="m30.1121 21.8671h2.32v-7.29c0-2.04-.04-4.21-.2-7.10996h.26l.43 1.78 2.74 12.61996h2.36l2.69-12.61996.47-1.78h.24c-.12 2.56996-.19 4.88996-.19 7.10996v7.29h2.33v-16.79996h-3.96l-1.42 6.20996c-.6 2.58-1.03 5.78-1.28 7.41h-.19c-.18-1.66-.63-4.85-1.22-7.39l-1.46-6.22996h-3.92z"/><path d="m48.2021 22.0571c1.46 0 2.37-.61 3.12-1.71h.11l.11 1.52h1.99v-12.35996h-2.64v9.92996c-.28.49-.93.85-1.54.85-.77 0-1.01-.61-1.01-1.63v-9.14996h-2.63v9.26996c0 2.01.58 3.28 2.49 3.28z"/><path d="m58.7536 22.1271c2.42 0 3.77-1.07 3.77-3.26 0-1.99-1-2.8-3.38-4.42-1.09-.72-1.68-1.17-1.68-2.23 0-.79.49-1.21 1.38-1.21.97 0 1.3.64 1.34 2.46l2.16-.12c.18-2.85-.84-4.06996-3.46-4.06996-2.48 0-3.67 1.06996-3.67 3.18996 0 1.96.93 2.85 2.68 4.07 1.55 1.07 2.4 1.74 2.4 2.63 0 .73-.51 1.26-1.4 1.26-1.02 0-1.6-.88-1.5-2.21l-2.19.04c-.34 2.56.86 3.87 3.55 3.87z"/><path d="m65.3871 7.93714c.9 0 1.32-.3 1.32-1.54 0-1.16-.45-1.52-1.32-1.52-.88 0-1.31.32-1.31 1.52 0 1.24.41 1.54 1.31 1.54zm-1.22 13.92996h2.53v-12.35996h-2.53z"/><path d="m72.3428 22.0671c1.26 0 1.97-.15 2.54-.69.85-.74 1.2-1.89 1.14-3.83l-2.31-.12c0 2.12-.34 2.92-1.33 2.92-1.09 0-1.27-1.19-1.27-3.35v-2.56c0-2.36.23-3.48 1.29-3.48.88 0 1.23.74 1.23 3.1l2.29-.16c.16-1.69-.01-3.07-.81-3.84-.6-.55996-1.49-.77996-2.67-.77996-3.03 0-3.97 1.91996-3.97 5.56996v1.69c0 3.65.71 5.53 3.87 5.53z"/><g clip-rule="evenodd" fill-rule="evenodd"><path d="m13 20c3.8677 0 7-3.1323 7-7 0-3.86772-3.1323-7-7-7-3.86772 0-7 3.13228-7 7 0 3.8677 3.13228 7 7 7zm-2.75-11.25 7.5 4.25-7.5 4.25z"/><path d="m13 26c7.176 0 13-5.824 13-13s-5.824-13-13-13-13 5.824-13 13 5.824 13 13 13zm0-5c4.42 0 8-3.58 8-8s-3.58-8-8-8-8 3.58-8 8 3.58 8 8 8z"/></g></g></svg>