<svg xmlns="http://www.w3.org/2000/svg" viewBox="0.5 0.5 59 59"><g fill="none" fill-rule="evenodd"><circle cx="30" cy="30" r="29.5" stroke="#E7E7E7" fill="#F4F4F4" stroke-width="1"/><path d="M 37.2 34.8 c -0.948 0.0 -1.8 0.372 -2.436 0.972 L 26.292 30.84 c 0.06 -0.276 0.108 -0.552 0.108 -0.84 s -0.048 -0.564 -0.108 -0.84 l 8.46 -4.932 c 0.636 0.6 1.5 0.972 2.448 0.972 c 1.992 0.0 3.6 -1.608 3.6 -3.6 s -1.608 -3.6 -3.6 -3.6 s -3.6 1.608 -3.6 3.6 c 0.0 0.288 0.048 0.576 0.108 0.84 L 25.248 27.372 C 24.6 26.772 26.748 26.4 22.8 26.4 c -1.992 0.0 -3.6 1.608 -3.6 3.6 s 1.608 3.6 3.6 3.6 c 0.948 0.0 1.8 -0.372 2.448 -0.972 l 8.46 4.944 c -0.06 0.264 -0.108 0.54 -0.108 0.828 c 0.0 1.992 1.608 3.6 3.6 3.6 s 3.6 -1.608 3.6 -3.6 s -1.608 -3.6 -3.6 -3.6 Z m 0.0 -14.4 c 0.66 0.0 1.2 0.54 1.2 1.2 s -0.54 1.2 -1.2 1.2 s -1.2 -0.54 -1.2 -1.2 s 0.54 -1.2 1.2 -1.2 Z M 22.8 31.2 c -0.66 0.0 -1.2 -0.54 -1.2 -1.2 s 0.54 -1.2 1.2 -1.2 s 1.2 0.54 1.2 1.2 s -0.54 1.2 -1.2 1.2 Z m 14.4 8.4 c -0.66 0.0 -1.2 -0.54 -1.2 -1.2 s 0.54 -1.2 1.2 -1.2 s 1.2 0.54 1.2 1.2 s -0.54 1.2 -1.2 1.2 Z" fill="#6F6F6F" fill-rule="nonzero"/></g></svg>