<svg xmlns="http://www.w3.org/2000/svg" viewBox="22.548452377319336 29.760000228881836 154.87860107421875 136.49000549316406"><g viewBox="0 0 200 200" id="hashtag_landing_page_empty"><defs><style>.hashtag_landing_page_empty__cls-1{fill:none}.hashtag_landing_page_empty__cls-2{fill:#ffac73}.hashtag_landing_page_empty__cls-3{clip-path:url(#hashtag_landing_page_empty__a)}.hashtag_landing_page_empty__cls-4{fill:#006}.hashtag_landing_page_empty__cls-5{fill:#a4c5ff}</style></defs><path class="hashtag_landing_page_empty__cls-2" d="M33.29 108.2l82.31-63.48 26.5 40.27L40.49 122.1z"/><g class="hashtag_landing_page_empty__cls-3" clip-path="url(#hashtag_landing_page_empty__a)"><path class="hashtag_landing_page_empty__cls-4" d="M29.41 115a7.83 7.83 0 117.82 7.83 7.82 7.82 0 01-7.82-7.83M106.6 63c0-13.22 11.46-23.95 25.6-23.95s25.59 10.7 25.59 23.95-11.46 24-25.59 24-25.6-10.72-25.6-24"/><path class="hashtag_landing_page_empty__cls-5" d="M123.7 63a8.56 8.56 0 118.55 8 8.29 8.29 0 01-8.55-8"/><path class="hashtag_landing_page_empty__cls-5" d="M132.22 81.61c-11 0-19.89-8.36-19.89-18.64s8.92-18.64 19.89-18.64S152.1 52.7 152.1 63s-8.92 18.64-19.88 18.64m0-36.28c-10.42 0-18.89 7.92-18.89 17.64s8.47 17.64 18.89 17.64S151.1 72.7 151.1 63s-8.47-17.64-18.88-17.64"/><path class="hashtag_landing_page_empty__cls-4" d="M128.4 166l-38.06-60.5L61.22 166l-.67-.3 29.7-61.7L129 165.6z"/><path class="hashtag_landing_page_empty__cls-4" d="M84.51673945 165.77552827l5.40121727-61.1218165.7470887.0660188-5.40121727 61.1218165z"/><path fill="#ff8d40" d="M59.09 88.34l10.77 23.06L109 97.11 91.92 63.02z"/></g><g class="hashtag_landing_page_empty__cls-3" clip-path="url(#hashtag_landing_page_empty__a)"><path class="hashtag_landing_page_empty__cls-2" d="M177.3 91.43c1 8.51-4 17.36-11.59 21.17a15.22 15.22 0 01-1.35 5.46c-2.31 5.06-6.75 8.17-10.06 9.89a31.58 31.58 0 01-27.51.5l.3-.62a30.87 30.87 0 0026.89-.49c3.22-1.67 7.52-4.68 9.75-9.56a14.59 14.59 0 001.27-4.84c-.48.21-1 .41-1.47.58-3.71 1.29-7.26 1.24-10-.16h-.07c-3.28-1.72-5-5.6-3.92-8.69a7 7 0 016.72-4.32 9.43 9.43 0 017.11 4 12.6 12.6 0 012.36 7.53 20.82 20.82 0 0010.88-20.3zm-12.26 20.73a12 12 0 00-2.22-7.47 8.7 8.7 0 00-6.58-3.68 6.26 6.26 0 00-6 3.85c-.88 2.43.25 6.1 3.58 7.85h.08c3.46 1.76 7.41.83 9.45.12.59-.21 1.17-.45 1.74-.71"/><path fill="#ff4c3e" d="M55.29 65.57l-.34-.74-6.37 2.94-2.17-6.33-.77.26 2.2 6.41-5.02 2.31.34.73 4.94-2.27 1.83 5.31.77-.26-1.86-5.4z"/><path class="hashtag_landing_page_empty__cls-2" d="M30.89 48.18a4.21 4.21 0 11-3.32-4.94 4.21 4.21 0 013.32 4.94"/><path class="hashtag_landing_page_empty__cls-5" d="M77.48 31.28l-15.92-1.52 7.37 15.59z"/><path class="hashtag_landing_page_empty__cls-4" d="M29.41 165.5h114v.75h-114zM148.5 165.5h5.87v.75h-5.87zM159 165.5h17.84v.75H159z"/></g></g></svg>