<svg xmlns="http://www.w3.org/2000/svg" viewBox="2 4 20 16"><g id="book"><path d="M20.18 4.47C19.17 4.14 18.06 4 17 4C15.23 4 13.32 4.38 12 5.41C10.68 4.38 8.77 4 7 4C5.23 4 3.32 4.38 2 5.41V20C2 20 2.59 19.62 2.68 19.62C3.91 19.01 5.68 18.58 7 18.58C8.77 18.58 10.68 18.96 12 19.99C13.23 19.19 15.45 18.58 17 18.58C18.5 18.58 20.05 18.86 21.32 19.57C21.41 19.62 22 20 22 20V5.41C21.45 4.99 20.86 4.71 20.18 4.47ZM3 18.39V5.93C3.98 5.33 5.38 5 7 5C8.63 5 10.02 5.35 11 5.96V18.3C9.86 17.84 8.49 17.59 7 17.59C5.78 17.59 4.26 17.9 3 18.39ZM21 18.32C19.84 17.84 18.47 17.59 17 17.59C15.45 17.59 13.45 18.1 12.05 18.82C12.04 18.81 12.02 18.8 12 18.8V6.68L12.62 6.19C13.6 5.43 15.16 5 17 5C18.03 5 19.03 5.15 19.86 5.42C20.31 5.58 20.68 5.74 21 5.94V18.32Z"/><path d="M19.34 8.97001C17.51 8.36001 15.49 8.36001 13.66 8.97001L13.34 8.02001C15.38 7.34001 17.62 7.34001 19.66 8.02001L19.34 8.97001Z"/><path d="M19.34 11.97C17.51 11.36 15.49 11.36 13.66 11.97L13.34 11.02C15.38 10.34 17.62 10.34 19.66 11.02L19.34 11.97Z"/><path d="M19.34 14.97C17.51 14.36 15.49 14.36 13.66 14.97L13.34 14.02C15.38 13.34 17.62 13.34 19.66 14.02L19.34 14.97Z"/></g></svg>