<svg xmlns="http://www.w3.org/2000/svg" viewBox="2.9915850162506104 1 10.003469467163086 14"><g width="24" height="24" viewBox="0 0 16 16" id="youtube_shorts_no_triangle"><path d="M10.65,2c0.48,0,0.93,0.32,1.17,0.82c0.38,0.81,0.12,1.85-0.58,2.26l-2.54,1.5l2.45,1.13c0.48,0.24,0.81,0.8,0.84,1.42  c0.03,0.65-0.27,1.25-0.76,1.54l-5.31,3.15C5.74,13.94,5.55,14,5.35,14c-0.48,0-0.93-0.32-1.17-0.83c-0.38-0.81-0.12-1.85,0.58-2.26  l2.53-1.5L4.84,8.28C4.36,8.04,4.03,7.48,4,6.86C3.97,6.21,4.27,5.6,4.76,5.32l5.31-3.15C10.25,2.06,10.45,2,10.65,2 M10.65,1  C10.65,1,10.65,1,10.65,1c-0.37,0-0.75,0.1-1.09,0.31L4.25,4.46C3.44,4.93,2.96,5.89,3,6.9C3.05,7.9,3.58,8.77,4.39,9.18  c0.02,0.01,0.75,0.35,0.75,0.35l-0.9,0.53c-1.14,0.68-1.58,2.27-0.98,3.55C3.69,14.49,4.5,15,5.35,15c0.37,0,0.74-0.1,1.09-0.31  l5.31-3.15c0.8-0.48,1.29-1.43,1.24-2.45c-0.04-0.99-0.58-1.87-1.39-2.27c-0.02-0.01-0.75-0.35-0.75-0.35l0.9-0.53  c1.14-0.68,1.58-2.27,0.97-3.55C12.31,1.51,11.49,1,10.65,1L10.65,1z"/></g></svg>