<svg xmlns="http://www.w3.org/2000/svg" viewBox="2 1 13 16"><g id="music"><path fill-rule="evenodd" d="M15,1L6,5v7.52C5.58,12.19,5.07,12,4.5,12C3.12,12,2,13.12,2,14.5
	C2,15.88,3.12,17,4.5,17c1.37,0,2.48-1.1,2.5-2.47l0-5.88l7-3.11v3.98C13.58,9.19,13.07,9,12.5,9c-1.38,0-2.5,1.12-2.5,2.5
	c0,1.38,1.12,2.5,2.5,2.5c1.38,0,2.5-1.12,2.5-2.5C15,11.47,15,1,15,1z M4.5,16C3.67,16,3,15.33,3,14.5S3.67,13,4.5,13
	S6,13.67,6,14.5S5.33,16,4.5,16z M12.5,13c-0.83,0-1.5-0.67-1.5-1.5s0.67-1.5,1.5-1.5s1.5,0.67,1.5,1.5S13.33,13,12.5,13z M14,4.44
	L7,7.55V5.65l7-3.11V4.44z"/></g></svg>