<svg xmlns="http://www.w3.org/2000/svg" viewBox="2 5 20 14"><g id="1_point_8x"><path d="M19.5,14.5L22,19h-1l-2-3.6L17,19h-1l2.5-4.5L16,10h1l2,3.6l2-3.6h1L19.5,14.5z M6,17H4v2h2V17z M2,5v14h1V5H2z M15,10V7 c0-1.1-0.9-2-2-2h-3C8.9,5,8,5.9,8,7v3c0,0.6,0.27,1.13,0.69,1.5C8.27,11.87,8,12.4,8,13v4c0,1.1,0.9,2,2,2h3c1.1,0,2-0.9,2-2v-4 c0-0.6-0.27-1.13-0.69-1.5C14.73,11.13,15,10.6,15,10z M14,13v4c0,0.55-0.45,1-1,1h-3c-0.55,0-1-0.45-1-1v-4c0-0.55,0.45-1,1-1h3 C13.55,12,14,12.45,14,13z M10,11c-0.55,0-1-0.45-1-1V7c0-0.55,0.45-1,1-1h3c0.55,0,1,0.45,1,1v3c0,0.55-0.45,1-1,1H10z"/></g></svg>