<svg xmlns="http://www.w3.org/2000/svg" viewBox="6 8.999811172485352 35.99995803833008 30.00018882751465"><g fill-rule="nonzero"><path d="M9 29c0 4.419 5.598 8 12.5 8S34 33.419 34 29c0-4.419-5.598-8-12.5-8S9 24.581 9 29" fill="#FFF"/><path d="M20.931 36.783c-5.884.614-10.964-2.186-11.347-6.244-.382-4.063 4.08-7.847 9.96-8.46 5.884-.614 10.964 2.185 11.341 6.243.388 4.063-4.075 7.853-9.954 8.46M32.695 23.3c-.5-.16-.844-.263-.584-.954.569-1.5.628-2.794.01-3.722-1.152-1.733-4.31-1.64-7.929-.047 0 0-1.138.521-.843-.422.554-1.882.47-3.455-.393-4.368-1.961-2.067-7.183.078-11.66 4.785C7.946 22.094 6 25.832 6 29.064 6 35.241 13.537 39 20.907 39 30.57 39 37 33.096 37 28.41c.005-2.836-2.265-4.445-4.305-5.11" fill="#E6162D"/><path d="M39.664 12.048a8.956 8.956 0 0 0-8.628-2.845c-.709.154-1.158.867-1.007 1.584.152.722.846 1.18 1.555 1.025a6.368 6.368 0 0 1 6.133 2.022 6.654 6.654 0 0 1 1.347 6.421 1.339 1.339 0 0 0 .846 1.68 1.306 1.306 0 0 0 1.649-.857v-.004c.964-3.028.354-6.49-1.895-9.026" fill="#F93"/><path d="M35.906 15.554c-1.056-1.297-2.612-1.791-4.045-1.448-.587.136-.96.782-.838 1.433.128.65.706 1.064 1.288.923.701-.167 1.465.076 1.98.706.514.636.655 1.499.432 2.256-.182.63.127 1.311.7 1.518.574.202 1.184-.141 1.37-.777.45-1.549.169-3.315-.887-4.611" fill="#F93"/><path d="M21.23 30.284c-.202.358-.647.528-.992.378-.344-.144-.45-.548-.253-.897.2-.349.627-.518.967-.378.344.13.469.533.277.897m-1.833 2.442c-.555.921-1.747 1.325-2.642.902-.88-.42-1.144-1.49-.589-2.393.55-.897 1.7-1.295 2.59-.907.9.404 1.187 1.466.641 2.398m2.087-6.529c-2.733-.743-5.82.678-7.008 3.185-1.21 2.556-.038 5.397 2.72 6.324 2.862.962 6.231-.514 7.404-3.27 1.158-2.7-.287-5.476-3.116-6.239" fill="#000"/></g></svg>