<svg xmlns="http://www.w3.org/2000/svg" viewBox="0 0 192 192"><g fill="none" fill-rule="evenodd" viewBox="0 0 192 192" xmlns:xlink="http://www.w3.org/1999/xlink" id="chrome_icon"><defs/><g clip-path="url(#chrome_icon__b)"><path fill="#DB4437" d="M21.97 8v108h39.39L96 56h88V8z"/><path fill="url(#chrome_icon__c)" d="M21.97 8v108h39.39L96 56h88V8z"/></g><path fill="#3E2723" fill-opacity=".15" d="M62.31 115.65L22.48 47.34l-.58 1 39.54 67.8z" clip-path="url(#chrome_icon__b)"/><g clip-path="url(#chrome_icon__b)"><path fill="#0F9D58" d="M8 184h83.77l38.88-38.88V116H61.36L8 24.48z"/><path fill="url(#chrome_icon__d)" d="M8 184h83.77l38.88-38.88V116H61.36L8 24.48z"/></g><path fill="#263238" fill-opacity=".15" d="M129.84 117.33l-.83-.48L90.62 184h1.15l38.1-66.64z" clip-path="url(#chrome_icon__b)"/><g clip-path="url(#chrome_icon__b)"><defs/><g clip-path="url(#chrome_icon__f)"><path fill="#FFCD40" d="M96 56l34.65 60-38.88 68H184V56z"/><path fill="url(#chrome_icon__g)" d="M96 56l34.65 60-38.88 68H184V56z"/></g></g><g clip-path="url(#chrome_icon__b)"><path fill="#FFCD40" d="M96 56l34.65 60-38.88 68H184V56z"/><path fill="url(#chrome_icon__h)" d="M96 56l34.65 60-38.88 68H184V56z"/></g><g clip-path="url(#chrome_icon__b)"><defs/><g clip-path="url(#chrome_icon__j)"><path fill="#DB4437" d="M21.97 8v108h39.39L96 56h88V8z"/><path fill="url(#chrome_icon__k)" d="M21.97 8v108h39.39L96 56h88V8z"/></g></g><path fill="url(#chrome_icon__l)" d="M96 56v20.95L174.4 56z" clip-path="url(#chrome_icon__b)"/><g clip-path="url(#chrome_icon__b)"><defs/><g clip-path="url(#chrome_icon__n)"><path fill="#0F9D58" d="M8 184h83.77l38.88-38.88V116H61.36L8 24.48z"/><path fill="url(#chrome_icon__o)" d="M8 184h83.77l38.88-38.88V116H61.36L8 24.48z"/></g></g><path fill="url(#chrome_icon__p)" d="M21.97 48.45l57.25 57.24L61.36 116z" clip-path="url(#chrome_icon__b)"/><path fill="url(#chrome_icon__q)" d="M91.83 183.89l20.96-78.2L130.65 116z" clip-path="url(#chrome_icon__b)"/><g clip-path="url(#chrome_icon__b)"><circle cx="96" cy="96" r="40" fill="#F1F1F1"/><circle cx="96" cy="96" r="32" fill="#4285F4"/></g><g clip-path="url(#chrome_icon__b)"><path fill="#3E2723" fill-opacity=".2" d="M96 55c-22.09 0-40 17.91-40 40v1c0-22.09 17.91-40 40-40h88v-1H96z"/><path fill="#FFF" fill-opacity=".1" d="M130.6 116c-6.92 11.94-19.81 20-34.6 20-14.8 0-27.69-8.06-34.61-20h-.04L8 24.48v1L61.36 117h.04c6.92 11.94 19.81 20 34.61 20 14.79 0 27.68-8.05 34.6-20h.05v-1h-.06z"/><path fill="#3E2723" d="M97 56c-.17 0-.33.02-.5.03C118.36 56.3 136 74.08 136 96s-17.64 39.7-39.5 39.97c.17 0 .33.03.5.03 22.09 0 40-17.91 40-40s-17.91-40-40-40z" opacity=".1"/><path fill="#FFF" fill-opacity=".2" d="M131 117.33c3.4-5.88 5.37-12.68 5.37-19.96 0-4.22-.66-8.28-1.87-12.09.95 3.42 1.5 7.01 1.5 10.73 0 7.28-1.97 14.08-5.37 19.96l.02.04-38.88 68h1.16l38.09-66.64-.02-.04z"/></g><g clip-path="url(#chrome_icon__b)"><path fill="#FFF" fill-opacity=".2" d="M96 9c48.43 0 87.72 39.13 87.99 87.5 0-.17.01-.33.01-.5 0-48.6-39.4-88-88-88S8 47.4 8 96c0 .17.01.33.01.5C8.28 48.13 47.57 9 96 9z"/><path fill="#3E2723" fill-opacity=".15" d="M96 183c48.43 0 87.72-39.13 87.99-87.5 0 .17.01.33.01.5 0 48.6-39.4 88-88 88S8 144.6 8 96c0-.17.01-.33.01-.5C8.28 143.87 47.57 183 96 183z"/></g><circle cx="96" cy="96" r="88" fill="url(#chrome_icon__r)"/><path fill="none" d="M0 0h192v192H0z"/></g></svg>