<svg xmlns="http://www.w3.org/2000/svg" viewBox="0 0 48 48"><g id="ameba"><rect fill="#46AE38" width="48" height="48"/><path fill="#FFFFFF" d="M35.1,29.1c0.7-0.1,1.4-0.2,2-0.5c0.8-0.3,1.7-0.6,2.3-1.3c0.6-0.8,0.9-1.7,1.1-2.7c0.1-0.5,0-1.1-0.2-1.6
    c-0.3-0.8-0.9-1.5-1.6-1.9c-0.4-0.3-1-0.5-1.4-0.8c-0.9-0.7-1.3-1.8-1.3-2.9c0-0.8-0.3-1.7-0.9-2.3c-0.6-0.6-1.5-0.8-2.3-0.7
    c-0.6,0.1-1.3-0.2-1.7-0.6c-0.8-0.7-1.2-1.6-1.3-2.6c-0.2-1-0.5-2.1-1.2-2.8c-0.6-0.7-1.5-1.1-2.4-1.2c-0.7-0.1-1.4-0.2-2.1-0.1
    c-0.4,0.1-0.9,0.3-1.2,0.5c-0.9,0.7-1.4,1.7-1.7,2.8c-0.2,0.5-0.7,0.9-1.2,1.1c-0.8,0.3-1.7,0.4-2.5,0.5c-1,0.1-1.9,0.6-2.4,1.4
    c-0.3,0.5-0.5,1-0.7,1.5c-0.4,0.7-1.2,1-1.9,1.2c-0.9,0.3-1.9,0.5-2.7,1c-1.1,0.6-1.9,1.7-2.1,2.9c-0.2,1.1-0.1,2.3,0.4,3.4
    c0.5,1,1.3,1.9,2.3,2.3c0.6,0.2,1.4,0.3,1.9,0.8c0.5,0.5,0.4,1.4,0.1,2c-0.3,0.5-0.6,0.8-0.9,1.2c-0.5,0.7-0.9,1.5-0.9,2.4
    c-0.3,2.2,1.6,4.4,3.9,4.4c0.9,0,1.8,0,2.6,0.5c0.7,0.4,0.9,1.2,1.5,1.8c0.5,0.6,1.2,0.9,1.9,1.1c1.2,0.2,2.4,0.1,3.5-0.5
    c1.1-0.5,1.9-1.5,2.4-2.6c0.3-0.6,0.5-1.2,1-1.6c0.6-0.5,1.6-0.4,2.2,0.2c0.5,0.6,0.7,1.4,1,2.1c0.4,1.1,1.3,2.1,2.3,2.7
    c1.3,0.7,2.9,0.9,4.3,0.4c1.1-0.4,1.9-1.2,2.3-2.3c0.3-0.8,0.6-1.7,0.4-2.6c-0.3-1.7-1.6-3.1-3.2-3.6C36,32,35.4,32,34.8,31.9
    c-0.4-0.1-0.8-0.3-1.1-0.7c-0.3-0.4-0.2-1,0-1.4C34,29.4,34.6,29.2,35.1,29.1z M19.8,18.5c-0.2,0.6-1.1,0.8-1.5,0.3
    c-0.5-0.5-0.2-1.3,0.4-1.5C19.4,17.1,20,17.8,19.8,18.5z M29,18.4c-0.1,0.6-0.9,0.9-1.4,0.5c-0.5-0.4-0.4-1.3,0.2-1.5
    C28.5,17.1,29.2,17.7,29,18.4z"/></g></svg>