<svg xmlns="http://www.w3.org/2000/svg" viewBox="2 5.179999828338623 20 13.639999389648438"><g height="24" width="24" id="eye"><path d="M12 8.91c1.7 0 3.09 1.39 3.09 3.09S13.7 15.09 12 15.09 8.91 13.7 8.91 12 10.3 8.91 12 8.91m0-1c-2.25 0-4.09 1.84-4.09 4.09s1.84 4.09 4.09 4.09 4.09-1.84 4.09-4.09S14.25 7.91 12 7.91zm0-1.73c3.9 0 7.35 2.27 8.92 5.82A9.69 9.69 0 0 1 12 17.82c-3.9 0-7.35-2.27-8.92-5.82C4.65 8.45 8.1 6.18 12 6.18m0-1C7.45 5.18 3.57 8.01 2 12c1.57 3.99 5.45 6.82 10 6.82s8.43-2.83 10-6.82c-1.57-3.99-5.45-6.82-10-6.82z"/></g></svg>