<svg xmlns="http://www.w3.org/2000/svg" viewBox="0.1861591339111328 -1.5650098323822021 21.673200607299805 25.19780731201172"><g transform="translate(84.575 32.023)"><path d="M17.7 12.32L4.25 10.67c-1.13-.13-1.93-1.16-1.8-2.28l.8-6.4C3.35.8 4.4 0 5.5.2l13.46 1.66c1.12.13 1.93 1.16 1.8 2.28l-.8 6.4c-.13 1.1-1.16 1.92-2.28 1.78z" fill="#FF9BEA" fill-rule="nonzero"/><g transform="translate(2.053)"><path fill="#91D5FF" fill-rule="nonzero" mask="url(#artwork__f)" transform="rotate(6.973 9.634 1.937)" d="M-.35-.37H19.6v4.62H-.34z"/></g><circle fill="#CC26A1" fill-rule="nonzero" transform="rotate(-83.027 11.616 6.268)" cx="11.62" cy="6.27" r="4.06"/><circle fill="#FFC100" fill-rule="nonzero" transform="rotate(-83.027 11.616 6.268)" cx="11.62" cy="6.27" r="3.35"/><circle fill="#404040" fill-rule="nonzero" transform="rotate(-83.027 11.616 6.268)" cx="11.62" cy="6.27" r="1.98"/><path d="M11.76 5.1c.65.06 1.1.66 1.03 1.3" stroke="#EEE" stroke-width=".5" stroke-linecap="round" stroke-linejoin="round"/><circle fill="#91D5FF" fill-rule="nonzero" transform="rotate(-83.027 5.45 7.803)" cx="5.45" cy="7.8" r="1"/><path d="M18.98 15.4L2 13.3C.87 13.18.07 12.16.2 11.04.36 9.9 1.38 9.1 2.5 9.24l16.98 2.07c1.13.2 1.93 1.2 1.8 2.3-.15 1.2-1.17 2-2.3 1.8z" fill="#FF8983" fill-rule="nonzero"/><path d="M4.57 12.18l12.22 1.5" stroke="#404040" stroke-width=".82" stroke-linecap="round" stroke-linejoin="round"/><g transform="translate(1.232 11.496)"><g mask="url(#artwork__h)"><path d="M14.64-.15L5.08-1.7c-.2-.02-.42.12-.45.33L2.8 9.93c-.02.2.1.4.32.44l9.53 1.76c.22.04.42-.1.46-.33L15 .3c.04-.2-.1-.4-.32-.45z" fill="#FFF" fill-rule="nonzero"/><path fill="#3EA6FF" fill-rule="nonzero" d="M13.8.98L5.53-.35l-1.6 9.83 8.25 1.54"/><path d="M8.03 8.05c-1.1-.48-1.6-1.53-1.68-2.66C6.28 4.2 7.7-.4 7.7-.4c.26-1.2 1.5-2.37 2.7-2.1 1.2.3 1.95 1.47 1.67 2.67 0 0-1 4.95-1.3 5.33-.3.38-1.17 2.84-2.74 2.5z" fill="#FF534F" fill-rule="nonzero"/><path d="M9.8.9s-.88 2.33-1.04 3.9" stroke="#D90A17" stroke-width=".62" stroke-linecap="round" stroke-linejoin="round"/></g></g></g></svg>