<svg xmlns="http://www.w3.org/2000/svg" viewBox="2.797842264175415 -2.5392191410064697 12.208968162536621 14.67601490020752"><g transform="translate(1.232 11.496)"><g mask="url(#artwork__h)"><path d="M14.64-.15L5.08-1.7c-.2-.02-.42.12-.45.33L2.8 9.93c-.02.2.1.4.32.44l9.53 1.76c.22.04.42-.1.46-.33L15 .3c.04-.2-.1-.4-.32-.45z" fill="#FFF" fill-rule="nonzero"/><path fill="#3EA6FF" fill-rule="nonzero" d="M13.8.98L5.53-.35l-1.6 9.83 8.25 1.54"/><path d="M8.03 8.05c-1.1-.48-1.6-1.53-1.68-2.66C6.28 4.2 7.7-.4 7.7-.4c.26-1.2 1.5-2.37 2.7-2.1 1.2.3 1.95 1.47 1.67 2.67 0 0-1 4.95-1.3 5.33-.3.38-1.17 2.84-2.74 2.5z" fill="#FF534F" fill-rule="nonzero"/><path d="M9.8.9s-.88 2.33-1.04 3.9" stroke="#D90A17" stroke-width=".62" stroke-linecap="round" stroke-linejoin="round"/></g></g></svg>