<svg xmlns="http://www.w3.org/2000/svg" viewBox="1.7099990844726562 25 197.365478515625 150"><g viewBox="0 0 200 200" id="no-held-comments"><path fill="#FFF771" d="M121.33,115.44l41.17-53.91C149.39,39.65,125.46,25,98.11,25c-8.44,0-16.55,1.42-24.13,3.99l-26.24,96.16 c1.9-0.68,3.98-1.05,6.26-1.05c9.64,0,14.06,4.66,18.98,12.82c1.96-19.37,7.08-37.74,25.35-37.74 C109.29,99.18,116.69,105.43,121.33,115.44z"/><path fill="#FFE855" d="M73.98,28.99C44.4,39.04,23.11,67.02,23.11,100c0,14.56,4.17,28.13,11.36,39.63 c2.88-6.77,7.11-12.27,13.27-14.48L73.98,28.99z"/><path fill="#FFAE47" d="M121.33,115.44c3.04,6.57,4.9,14.75,5.79,23.87c2.61-3.4,6.12-5.87,10.88-5.91 c10.2-0.09,16.45,4.73,20.21,11.49C144.52,163.17,122.7,175,98.11,175c-6.99,0-13.74-0.98-20.16-2.76 c-14.47-4.03-27.16-12.28-36.69-23.35c-2.5-2.9-4.76-6-6.8-9.26c2.88-6.77,7.11-12.27,13.27-14.48c1.9-0.68,3.98-1.05,6.26-1.05 c9.64,0,14.06,4.66,18.98,12.82c1.96-19.37,7.08-37.74,25.35-37.74C109.29,99.18,116.69,105.43,121.33,115.44z"/><path fill="#FFE855" d="M158.2,144.88c-3.76-6.75-10.01-11.58-20.21-11.49c-4.75,0.04-8.27,2.51-10.88,5.91 c-0.89-9.12-2.75-17.3-5.79-23.87l41.17-53.91c6.74,11.25,10.62,24.4,10.62,38.47C173.11,116.83,167.56,132.37,158.2,144.88z"/><path fill="#FFF771" d="M171.83,113.79l26.03,0.2c0,0,1.31-4.18,1.21-5.7c-0.17-2.58-1.71-4.35-4.22-4.88 c-1.2-0.26-2.45-0.23-3.66-0.13c-1.25,0.11-3.2,0.91-4.3,0.19c-0.99-0.65-0.86-2.01-1.17-3.01c-0.31-1.02-0.68-2.03-1.2-2.96 c-0.01-0.02-0.02-0.04-0.03-0.06c-1.67-2.97-4.88-4.68-8.28-4.87c-1.36-0.08-2.49,0.03-3.47,0.26c0.23,2.38,0.35,4.79,0.35,7.23 C173.09,104.74,172.66,109.34,171.83,113.79z"/><path fill="#FFF" d="M171.83,113.79c0.82-4.45,1.26-9.04,1.26-13.74c0-2.44-0.12-4.85-0.35-7.23 c-4.61,1.08-5.64,4.87-9.04,5.38c-1.68,0.47-3.08-0.89-4.67-1.11c-1.76-0.24-3.73,0.78-4.87,2.08c-1.87,2.11-1.76,5.11-5.03,5.77 c-2.52,0.51-4.75,0.13-7.58,0.33c-1.88,0.13-4.26,0.61-5.54,2.13c-1.38,1.62-0.87,4.25-0.28,6.11L171.83,113.79z"/><path fill="#FFF" d="M25.18,117.51l19.33-0.4c0,0-0.21-4.37-0.37-5.1c-0.48-2.21-1.83-4.43-3.75-5.36 c-1.87-0.91-3.79-0.03-5.72-0.25c-0.06-0.01-0.11-0.02-0.16-0.03c-3.66-0.52-4.76-4.07-7.59-5.92c-1.22-0.8-2.55-0.81-3.82-0.41 C23.11,106.05,23.83,111.9,25.18,117.51z"/><path fill="#FFF771" d="M25.18,117.51l-3.03,0.06l-10.81,0.22c0,0,0,0,0,0l-0.2,0l-9.43,0.2c0,0,0.77-4.8,1.61-6.15 c2.44-3.92,5.94-2.09,9.35-2.99h0.21c0.36-0.1,0.71-0.22,1.06-0.38c2.91-1.36,4.1-5.46,6.88-7.31c0.7-0.47,1.48-0.87,2.28-1.12 C23.11,106.05,23.83,111.9,25.18,117.51z"/><path fill="#FFF771" d="M46.48,45.64c-1.18-1.05-2.81-1.92-5.84-1.82c-3.02,0.11-6.22,1.53-8.39,4.12 c-0.01,0.02-0.03,0.03-0.04,0.05c-0.7,0.83-1.27,1.74-1.81,2.67c-0.5,0.87-0.74,2.04-1.67,2.68c-0.06,0.04-0.11,0.09-0.18,0.12 c-1.23,0.68-2.86-0.1-4-0.22c-1.12-0.11-2.3-0.14-3.51,0.09c-2.57,0.49-4.62,2.2-5.65,4.77c-0.62,1.55-0.78,5.94-0.78,5.94 l17.77-0.14C36.12,57.1,40.89,50.94,46.48,45.64z"/><path fill="#FFF" d="M46.48,45.64c1.48,1.31,2.27,2.9,4.24,3.23c1.42,0.43,2.83-0.75,4.24-0.92c1.56-0.19,3.16,0.73,4.03,1.89 c1.45,1.91,1.06,4.68,3.93,5.32c2.21,0.49,4.23,0.15,6.73,0.36c1.66,0.14,3.74,0.6,4.84,2.04c1.19,1.57,0.69,4.15,0.11,6.01 l-37.9,0.3l-4.34,0.03C36.12,57.1,40.89,50.94,46.48,45.64z"/><path d="M94.49,58.88c0.93,0.88,2.65,1.31,3.44,1.42c1.15,0.17,3.11-0.34,3.69-0.88c0.43-0.4,2.61-0.77,2.22-1.83 c-0.61-1.64-1.03-2.94-1.08-5.04c-0.03-1.23-0.15-3.74-0.31-4.72c-0.12-0.7-9.32-1.53-9.46-0.52c-0.17,1.22-0.24,2.79-0.18,4.07 c0.03,0.64,0.01,1.29-0.07,1.93l-0.59,4.67C92.15,57.97,94.22,58.63,94.49,58.88z"/><path opacity=".9" fill="#EF6C51" d="M93.56,56.97c0,0,2.21-0.2,2.21-3.39l3.73,0.1c0,0,0.34,3.64,3,3.64 c0,0-1.13,2.11-4.32,2.11C98.17,59.43,94.59,59.38,93.56,56.97z"/><path fill="#EF6C51" d="M101.66,45.21c-0.83-1.7-2.28-2.84-3.93-2.84c-2.58,0-4.68,2.75-4.69,6.14c0,1.14,0.24,2.2,0.64,3.11 c0.81,1.82,2.31,3.04,4.03,3.04c2.58,0,4.68-2.75,4.69-6.14C102.4,47.31,102.13,46.17,101.66,45.21z"/><path d="M101.66,45.21c-0.23-0.47-0.51-0.9-0.82-1.27c0.5-0.82,0.31-1.96-0.38-2.65c-1.1-1.1-3.42-0.97-4.77-0.47 c-1.12,0.42-1.78,1.28-1.62,2.63c0.03,0.22,0.12,0.47,0.26,0.71c-0.88,1.1-1.44,2.63-1.44,4.32c0,0.68,7.18,1.27,9.61-0.03 C102.45,46.96,101.99,45.73,101.66,45.21z"/><path fill="#CE93D8" d="M117.93,81.38c-3.73-0.81-10.62-0.2-11.68-0.09c-0.15-3.57-0.28-7.4-0.37-10.92l0,0.06l6.44-1.38 l-4.15-9.86c-0.33-0.71-0.97-1.23-1.74-1.39l-0.64-0.13c0,0,0.01-0.02,0.01-0.01l-1.64-0.32l-0.26-0.05l0,0l-1.48-0.29 c-0.11-0.02-0.22-0.02-0.32,0.02c-1.25,0.49-3.32,4.27-8.19-0.11c-0.15-0.14-0.37-0.19-0.57-0.12l-1.71,0.61l-1.94,0.4 c-0.77,0.16-1.42,0.67-1.74,1.39l-4.15,9.86l6.26,1.35c-0.22,3.93-0.53,7.62-0.98,10.9c-0.88-0.09-7.78-0.76-11.26,0.14 c-1.3,0.31-2.58,0.79-2.86,2.37c-0.09,0.48,0,0.98,0,1.47c0,1.75,1.39,3.58,3.12,4.01c12.85,3.19,26.29,3.19,39.14,0 c1.73-0.43,3.12-2.26,3.12-4.01c0-0.49,0-0.98,0-1.47C120.33,82.3,118.9,81.54,117.93,81.38z"/><path fill="#EF6C51" d="M100.25,87.94c2.76,0.15,1.52,1.41,7.37,1.1c1.08-0.06,2.64,0.38,3.12,1.47c0.59,1.34-1.16,1.64-2.2,1.68 c-1.46,0.05-2.91,0.14-4.37,0.16c-0.93,0.01-2.75,0.22-3.62-0.21c-1.1-0.55-2.26-1.25-2.36-2.37 C98.04,88.21,99.53,87.9,100.25,87.94z"/><path fill="#EF6C51" d="M84.66,69.23l-0.77,2.78l-9.12,8.33l0,0c0,0,0,0.01-0.01,0.01l-0.08,0.07c-0.13,0.1-0.44,0.2-1.03-0.13 c-0.3-0.17-0.61-0.31-0.95-0.37c-0.59-0.12-1.53-0.19-2.51,0.18c-0.38,0.14,0.52,0.84,0.91,0.76c0.13-0.03,0.42-0.12,0.98,0.12 c0,0,0.28,0.14,0.34,0.61c0.1,0.69-0.05,0.56-0.64,1.15c-0.49,0.39-1.5,1.03-1.72-0.32c0,0,0.81-1.47,0-2.08 c-0.05-0.04-0.13-0.03-0.18,0.03c-0.16,0.22-0.49,0.85-0.76,1.31c0,0-0.49,0.69-0.2,1.38c0,0,0.12,0.39,0.52,0.93 c0,0-1.23,0.84-2.04,1.36c0,0-1.45,0.98-0.1,1.39c0,0,1.2,0.49,3.51-0.36c0,0,2.38-0.69,3.83-2.2l1.05-0.82l10.82-7.32 c1.59-1.85,3.04-5.75,3.04-5.75L84.66,69.23z"/><path fill="#EF6C51" d="M111.39,69.24l0.77,2.78l9.12,8.33l0,0c0,0,0,0.01,0.01,0.01l0.08,0.07c0.13,0.1,0.44,0.2,1.03-0.13 c0.3-0.17,0.61-0.31,0.95-0.37c0.59-0.12,1.53-0.19,2.51,0.18c0.38,0.14-0.52,0.84-0.91,0.76c-0.13-0.03-0.42-0.12-0.98,0.12 c0,0-0.28,0.14-0.34,0.61c-0.1,0.69,0.05,0.56,0.64,1.15c0.49,0.39,1.5,1.03,1.72-0.32c0,0-0.81-1.47,0-2.08 c0.05-0.04,0.13-0.03,0.18,0.03c0.16,0.22,0.49,0.85,0.76,1.31c0,0,0.49,0.69,0.2,1.38c0,0-0.12,0.39-0.52,0.93 c0,0,1.23,0.84,2.04,1.36c0,0,1.45,0.98,0.1,1.39c0,0-1.2,0.49-3.51-0.36c0,0-2.38-0.69-3.83-2.2l-1.05-0.82l-10.82-7.32 c-1.59-1.85-3.04-5.75-3.04-5.75L111.39,69.24z"/></g></svg>