<svg xmlns="http://www.w3.org/2000/svg" viewBox="3 4 18.350000381469727 15.350000381469727"><g id="transcript_search"><g><path fill-rule="evenodd" clip-rule="evenodd" d="M6,5H3V4h3V5z M6,14H3v1h3V14z M21,4H8v1h13V4z M20.65,19.35L17.29,16
		c-0.77,0.62-1.73,1-2.79,1c-1.56,0-2.93-0.79-3.74-2H8v-1h2.28C10.11,13.53,10,13.03,10,12.5c0-0.93,0.28-1.78,0.76-2.5H3V9h8.7
		c0.77-0.62,1.73-1,2.8-1c2.49,0,4.5,2.01,4.5,4.5c0,1.06-0.38,2.02-1,2.79l3.35,3.35L20.65,19.35z M18,12.5
		c0-1.93-1.57-3.5-3.5-3.5S11,10.57,11,12.5s1.57,3.5,3.5,3.5S18,14.43,18,12.5z"/></g></g></svg>