<svg xmlns="http://www.w3.org/2000/svg" viewBox="0 0 48 48"><g id="goo"><rect fill="#CE2E2D" width="48" height="48"/><path fill-rule="evenodd" clip-rule="evenodd" fill="#FFFFFF" d="M11.8,25.9c1.2,0,2.4,0,3.5,0.4c1.4,0.5,2.5,1.4,2.5,3
    c0,2.7-3.3,3.4-5.4,3.4c-2.1,0-5.4-0.6-5.4-3.3c0-1.3,0.9-2.1,2-2.5v0c-1-0.3-1.8-0.9-1.8-2c0-1.1,0.8-1.8,1.8-2.1
    c-0.4-0.5-0.6-1.2-0.6-1.8c0-2.2,2-3.4,4.1-3.4c0.4,0,0.9,0,1.3,0.2c-0.1-1.4,1.2-2.2,2.4-2.2c1.1,0,2.4,0.6,2.4,1.9
    c0,0.6-0.5,1.2-1.2,1.2c-0.5,0-0.8-0.3-0.8-0.8c0-0.3,0.2-0.5,0.5-0.7c-0.2-0.3-0.5-0.5-0.9-0.5c-0.8,0-1.2,0.7-1.2,1.5
    c1.1,0.6,1.7,1.8,1.7,3c0,2.3-2,3.6-4,3.6c-0.9,0-1.7-0.2-2.4-0.6C10,24,9.7,23.9,9.6,23.9c-0.5,0-0.8,0.5-0.8,0.9
    c0,1,1.5,1.1,2.2,1.1H11.8z M15,21c0-1.3-1.2-2.2-2.5-2.2c-1.3,0-2.4,0.9-2.4,2.2c0,1.4,1.1,2.2,2.4,2.2C13.8,23.2,15,22.4,15,21z
     M9.9,27.8c-0.6,0.3-1.1,0.8-1.1,1.5c0,0.8,0.7,1.4,1.4,1.6c0.7,0.2,1.6,0.3,2.3,0.3c1.2,0,3.7-0.3,3.7-2c0-1.7-2.4-1.9-3.6-1.9
    C11.7,27.4,10.6,27.5,9.9,27.8z"/><path fill-rule="evenodd" clip-rule="evenodd" fill="#FFFFFF" d="M23.9,17.4c1.5,0,2.9,0.4,3.9,1.6c0.9,1.2,1.3,2.7,1.3,4.2
    c0,3.2-1.8,5.9-5.2,5.9c-3.4,0-5-2.7-5-5.8C18.9,20.1,20.5,17.4,23.9,17.4z M23.9,27.6c2.6,0,3.5-2.3,3.5-4.5c0-1-0.2-2.2-0.8-3
    c-0.6-0.9-1.5-1.2-2.6-1.2c-1.2,0-2.1,0.4-2.7,1.4c-0.5,0.8-0.7,2-0.7,2.9C20.6,25.3,21.4,27.6,23.9,27.6z"/><path fill-rule="evenodd" clip-rule="evenodd" fill="#FFFFFF" d="M35.8,17.4c1.5,0,2.9,0.4,3.9,1.6c0.9,1.2,1.3,2.7,1.3,4.2
    c0,3.2-1.8,5.9-5.2,5.9c-3.4,0-5-2.7-5-5.8C30.7,20.1,32.4,17.4,35.8,17.4z M35.8,27.6c2.6,0,3.5-2.3,3.5-4.5c0-1-0.2-2.2-0.8-3
    c-0.6-0.9-1.5-1.2-2.6-1.2c-1.2,0-2.1,0.4-2.7,1.4c-0.5,0.8-0.7,2-0.7,2.9C32.5,25.3,33.3,27.6,35.8,27.6z"/><path fill-rule="evenodd" clip-rule="evenodd" fill="#FFFFFF" d="M23.5,24.1c-0.6,0-1.2,0.6-1.2,1.2c0,0.7,0.6,1.2,1.2,1.2
    c0.7,0,1.2-0.5,1.2-1.2C24.7,24.7,24.1,24.1,23.5,24.1z"/><path fill-rule="evenodd" clip-rule="evenodd" fill="#FFFFFF" d="M35.1,24.1c-0.7,0-1.2,0.6-1.2,1.2c0,0.7,0.5,1.2,1.2,1.2
    c0.6,0,1.2-0.5,1.2-1.2C36.3,24.7,35.8,24.1,35.1,24.1z"/></g></svg>