<svg xmlns="http://www.w3.org/2000/svg" viewBox="0 0 48 48"><g id="fotka"><rect fill="#529ABC" width="48" height="48"/><path fill-rule="evenodd" clip-rule="evenodd" fill="#FFFFFF" d="M29.4,17.4C20.7,17.1,7,23.8,7,23.8l0.6,0.6
    c9.4-4.4,16.8-5.3,21.7-5c5.5,0.4,8.9,2,11.1,4.3l0,0l0.6-1.8C41,21.9,38.1,17.7,29.4,17.4z"/><path fill-rule="evenodd" clip-rule="evenodd" fill="#FFFFFF" d="M28.5,21.3c-2.6,0-4.7,2.1-4.7,4.7s2.1,4.7,4.7,4.7
    s4.7-2.1,4.7-4.7S31.1,21.3,28.5,21.3z M29.2,26.3c-1,0-1.8-0.8-1.8-1.8s0.8-1.8,1.8-1.8s1.8,0.8,1.8,1.8S30.2,26.3,29.2,26.3z"/></g></svg>