<svg xmlns="http://www.w3.org/2000/svg" viewBox="0 0 48 48"><g id="myspace"><rect width="48" height="48"/><circle fill="#FFFFFF" cx="35.1" cy="19" r="5.4"/><circle fill="#FFFFFF" cx="22.9" cy="20.5" r="4.9"/><circle fill="#FFFFFF" cx="11.8" cy="21.9" r="4.4"/><path fill="#FFFFFF" d="M11.8,27.3c-2.8,0-4.8,2.4-4.8,5V34c0,0.2,0.2,0.4,0.4,0.4h0.2H16h0.2c0.2,0,0.4-0.2,0.4-0.4v-1.7
    C16.6,29.7,14.6,27.3,11.8,27.3z"/><path fill="#FFFFFF" d="M22.9,26.5c-3.1,0-5.4,2.7-5.4,5.5v1.9c0,0.3,0.2,0.5,0.5,0.5h0.2h9.4h0.2c0.3,0,0.5-0.2,0.5-0.5V32
    C28.2,29.2,26,26.5,22.9,26.5z"/><path fill="#FFFFFF" d="M35.1,25.6c-3.4,0-5.9,3-5.9,6.1v2.1c0,0.3,0.2,0.5,0.5,0.5h0.2h10.4h0.2c0.3,0,0.5-0.2,0.5-0.5v-2.1
    C41,28.6,38.5,25.6,35.1,25.6z"/></g></svg>