<svg xmlns="http://www.w3.org/2000/svg" viewBox="0 0 48 48"><g width="48" height="48" fill="none" fill-rule="evenodd"><path fill="#FF8226" d="M0 0h48v48H0z"/><g fill="#FFF"><path d="M10 25.223v9.968c0 1.538 1.26 2.784 2.815 2.784s2.816-1.246 2.816-2.784V19.954c-.162 2.937-2.621 5.269-5.631 5.269M37.774 10c-6.126 0-11.092 4.912-11.092 10.97v3.415c0-1.538 1.26-2.784 2.815-2.784s2.816 1.246 2.816 2.784v1.417c0 1.538 1.26 2.784 2.815 2.784s2.815-1.246 2.815-2.784v-15.8L37.774 10" opacity=".3"/><path d="M10 25.286c3.01 0 5.469-2.332 5.63-5.269v-2.612c0-.071.004-.142.01-.212.11-1.439 1.323-2.572 2.806-2.572 1.555 0 2.815 1.247 2.815 2.784V28.3c0 1.537 1.26 2.784 2.815 2.784s2.815-1.246 2.816-2.784V20.97c0-6.058 4.966-10.97 11.092-10.97H10v15.286z" opacity=".7"/><path d="M10 25.223v9.968c0 1.538 1.26 2.784 2.815 2.784s2.816-1.246 2.816-2.784V19.954c-.162 2.937-2.621 5.269-5.631 5.269M37.774 10c-6.126 0-11.092 4.912-11.092 10.97v3.415c0-1.538 1.26-2.784 2.815-2.784s2.816 1.246 2.816 2.784v1.417c0 1.538 1.26 2.784 2.815 2.784s2.815-1.246 2.815-2.784v-15.8L37.774 10" opacity=".5"/><path d="M10 25.286c3.01 0 5.469-2.332 5.63-5.269v-2.612c0-.071.004-.142.01-.212.11-1.439 1.323-2.572 2.806-2.572 1.555 0 2.815 1.247 2.815 2.784V28.3c0 1.537 1.26 2.784 2.815 2.784s2.815-1.246 2.816-2.784V20.97c0-6.058 4.966-10.97 11.092-10.97H10v15.286z"/></g></g></svg>