<svg xmlns="http://www.w3.org/2000/svg" viewBox="2 2 32 32"><g width="36" height="36" viewBox="0 0 36 36" id="face_sad_v2"><path d="M11.65,25.5c-0.09,0-0.18-0.02-0.27-0.08c-0.23-0.15-0.3-0.46-0.16-0.69C12.71,22.4,15.24,21,18,21  c2.76,0,5.29,1.4,6.77,3.73c0.15,0.23,0.08,0.54-0.16,0.69c-0.23,0.15-0.54,0.08-0.69-0.16C22.63,23.22,20.42,22,18,22  c-2.42,0-4.63,1.22-5.92,3.27C11.98,25.42,11.82,25.5,11.65,25.5z M12.5,12c-1.38,0-2.5,1.12-2.5,2.5s1.12,2.5,2.5,2.5  s2.5-1.12,2.5-2.5S13.88,12,12.5,12z M23.5,12c-1.38,0-2.5,1.12-2.5,2.5s1.12,2.5,2.5,2.5s2.5-1.12,2.5-2.5S24.88,12,23.5,12z M18,3  C9.73,3,3,9.73,3,18s6.73,15,15,15s15-6.73,15-15S26.27,3,18,3 M18,2c8.84,0,16,7.16,16,16s-7.16,16-16,16S2,26.84,2,18S9.16,2,18,2  L18,2z"/></g></svg>