<svg xmlns="http://www.w3.org/2000/svg" viewBox="2 2 32 32"><g width="36" height="36" viewBox="0 0 36 36" id="face_very_happy_v2"><path d="M24.93,22c-0.6,2.74-3.91,4-6.86,4c-2.95,0-6.29-1.26-6.98-4H24.93 M25.27,21H10.75c-0.42,0-0.78,0.33-0.73,0.71  c0.5,3.53,4.29,5.29,8.05,5.29c3.78,0,7.53-1.77,7.93-5.31C26.04,21.32,25.68,21,25.27,21L25.27,21z M18,3c8.27,0,15,6.73,15,15  s-6.73,15-15,15S3,26.27,3,18S9.73,3,18,3 M18,2C9.16,2,2,9.16,2,18s7.16,16,16,16s16-7.16,16-16S26.84,2,18,2L18,2z M16.21,14.96  c0.25-0.11,0.36-0.41,0.25-0.66C15.78,12.79,14.41,12,12.5,12c-1.83,0-3.19,0.79-3.95,2.27c-0.12,0.25-0.03,0.55,0.22,0.67  c0.25,0.13,0.55,0.03,0.67-0.22C10.03,13.58,11.05,13,12.5,13c1.51,0,2.53,0.57,3.04,1.71C15.63,14.89,15.81,15,16,15  C16.07,15,16.14,14.99,16.21,14.96z M27.21,14.96c0.25-0.11,0.36-0.41,0.25-0.66C26.78,12.79,25.41,12,23.5,12  c-1.83,0-3.19,0.79-3.95,2.27c-0.12,0.25-0.03,0.55,0.22,0.67c0.25,0.13,0.55,0.03,0.67-0.22C21.03,13.58,22.05,13,23.5,13  c1.51,0,2.53,0.57,3.04,1.71C26.63,14.89,26.81,15,27,15C27.07,15,27.14,14.99,27.21,14.96z"/></g></svg>