<svg xmlns="http://www.w3.org/2000/svg" viewBox="-0.5000066757202148 -0.7899999618530273 230.77999877929688 127.12999725341797"><g clip-path="url(#empty_search__clip-path)"><path fill="#ffd61d" d="M103 87a6 6 0 0 1 6-5.78 5.79 5.79 0 1 1 0 11.57 6 6 0 0 1-6-5.79zm-92.16 31.41a6 6 0 0 1 6-5.78 5.79 5.79 0 0 1 0 11.57 6 6 0 0 1-6-5.79zm14.3-41.94c0-5 4.34-8.8 9.31-9s9 4.33 9 9a9 9 0 0 1-9 9 9.32 9.32 0 0 1-9.31-9zm129.13-12.59H166v11.53h-11.73c-.69 0-1.25-.69-1.25-1.81v-8.26a1.43 1.43 0 0 1 1.25-1.46zM103 111.22c0-4.73 4.12-8.37 8.85-8.55s8.56 4.11 8.56 8.56a8.56 8.56 0 0 1-8.56 8.56 8.86 8.86 0 0 1-8.85-8.57z"/><path fill="#ffc100" d="M111.73 113.07a1.9 1.9 0 0 1-1.82-1.88 1.82 1.82 0 1 1 3.64 0 1.88 1.88 0 0 1-1.82 1.88z"/><path fill="#ffd61d" d="M176.68 27.32c0-4.26 3.72-7.54 8-7.71s7.71 3.71 7.71 7.71a7.71 7.71 0 0 1-7.74 7.68 8 8 0 0 1-7.97-7.68z"/><path fill="#ffc100" d="M184.52 31.19a4 4 0 0 1-3.81-3.94 3.81 3.81 0 1 1 7.62 0 3.94 3.94 0 0 1-3.81 3.94z"/><path fill="#ffd61d" d="M24.59 56.92A5.47 5.47 0 0 1 30 51.68a5.24 5.24 0 0 1 0 10.48 5.43 5.43 0 0 1-5.41-5.24z"/><path fill="#ffc100" d="M29.92 59.55a2.7 2.7 0 0 1-2.59-2.68 2.59 2.59 0 1 1 5.18 0 2.68 2.68 0 0 1-2.59 2.68z"/><path fill="#ffd61d" d="M40 53.15a5.47 5.47 0 0 1 7.53.13 5.24 5.24 0 0 1-7.41 7.41 5.43 5.43 0 0 1-.12-7.54z"/><path fill="#ffc100" d="M41.87 58.78a2.7 2.7 0 0 1 .06-3.72 2.59 2.59 0 0 1 3.66 3.66 2.68 2.68 0 0 1-3.72.06z"/><path fill="#ffd61d" d="M52.78 56.92a5.47 5.47 0 0 1 5.42-5.24 5.24 5.24 0 0 1 0 10.48 5.43 5.43 0 0 1-5.42-5.24z"/><path fill="#ffc100" d="M58.11 59.55a2.7 2.7 0 0 1-2.59-2.68 2.59 2.59 0 1 1 5.18 0 2.68 2.68 0 0 1-2.59 2.68z"/><path fill="#ffd61d" d="M211 110.72c0-5.23 4.57-9.27 9.8-9.47s9.48 4.56 9.48 9.48a9.48 9.48 0 0 1-9.48 9.48 9.82 9.82 0 0 1-9.8-9.49z"/><path fill="#ffc100" d="M220.66 113.7a3.06 3.06 0 0 1-2.93-3 2.93 2.93 0 1 1 5.86 0 3 3 0 0 1-2.93 3z"/><path fill="#ffd61d" d="M104.28 108.46a.5.5 0 0 1-.45-.73l9.57-18.93a.5.5 0 1 1 .89.45l-9.57 18.94a.5.5 0 0 1-.44.27zm96.37 12.97l-3.35-5.08a1.75 1.75 0 0 1-.1-1.75l3.45-6.84-3.45-6a1.75 1.75 0 0 1 0-1.64l3.5-7-3.38-5.57a1.75 1.75 0 0 1 0-1.76l3.42-6.13h5l-3.91 7 3.41 5.61a1.75 1.75 0 0 1 .07 1.68l-3.48 7 3.44 6a1.75 1.75 0 0 1 0 1.65l-3.49 6.91 3.91 5.93zM53 32.24l5.08-3.35a1.75 1.75 0 0 1 1.75-.1l6.84 3.45 6-3.45a1.75 1.75 0 0 1 1.64 0l7 3.5 5.57-3.38a1.75 1.75 0 0 1 1.76 0l6.13 3.42v5l-7-3.91-5.61 3.41a1.75 1.75 0 0 1-1.68.07l-7-3.48-6 3.44a1.75 1.75 0 0 1-1.65 0l-6.91-3.49L53 37.23z"/><rect fill="#ffd61d" x="153.02" y="54.34" width="5.88" height="5.88" rx="1.4" ry="1.4"/><rect fill="#ffd61d" x="153.02" y="44.21" width="5.88" height="5.88" rx="1.4" ry="1.4" transform="rotate(-90 155.965 47.145)"/><rect fill="#ffd61d" x="95.08" y="47.15" width="11.9" height="11.9" rx="2.82" ry="2.82" transform="rotate(-90 101.03 53.1)"/><rect fill="#ffd61d" x="178.75" y="78.83" width="8.54" height="16.87" rx="2.85" ry="2.85"/><rect fill="#ffd61d" x="138.51" y="6.23" width="32.52" height="29.92" rx="2.39" ry="2.39"/><rect fill="#ffd61d" x="49.06" y="69.72" width="17.55" height="13.74" rx="1.22" ry="1.22"/><rect fill="#ffd61d" x="154.77" y="107.68" width="32.52" height="13.74" rx="1.62" ry="1.62"/><path fill="#ffc100" d="M157.43 110.27h27.2v8.57h-27.2z"/><path fill="#ffd61d" d="M157.43 118.84l7.05-4.78 2.87 2.47 8.08-4.39 1.98 2.42 7.22-4.29.96 9.47-28.16-.9z"/><path fill="#ffc100" d="M144.34 12.19h20.87v17.99h-20.87z"/><path fill="#ffd61d" d="M183-.79s-4.66 5.26-2 10.91c2.45 5.21 10.84 2.5 13.62 6.25s1.56 7.23 5.6 8.44c6.75 2 13.46-3.5 13.46-3.5zM60.93 126.34s3.33-20.47 14.31-20.12 9 14 12.92 15.21 4.88-3.1 9.4-.75c2.61 1.35 3.43 5.66 3.43 5.66z"/><path fill="#ffc100" d="M65.82 126.34s1-5.89 5.46-5.89c3.42 0 6 5.89 6 5.89z"/><rect fill="#ffd61d" x="-7.73" y="82.16" width="32.52" height="18.05" rx="1.86" ry="1.86" transform="rotate(90 8.53 91.18)"/><rect fill="#ffc100" x="7.73" y="98.12" width="5.88" height="5.88" rx="1.4" ry="1.4" transform="rotate(-90 10.67 101.06)"/><rect fill="#ffc100" x="7.73" y="89.74" width="5.88" height="5.88" rx="1.4" ry="1.4" transform="rotate(-90 10.675 92.675)"/></g></svg>