<svg xmlns="http://www.w3.org/2000/svg" viewBox="0 0 60 60"><g id="livejournal"><circle fill="#3498DB" fill-rule="nonzero" cx="30" cy="30" r="30"/><path d="M33.2546484,59.8255078 C32.1855469,59.9408203 31.0996875,60 30,60 C13.4314453,60 0,46.5685547 0,30 C0,28.5435937 0.103828125,27.1114453 0.304335937,25.7104687 L21.8777344,15.0938672 L25.4296875,17.8125 L38.203125,27.890625 L43.4845312,36.6371484 L33.2546484,59.8255078 Z" fill="#000000" opacity="0.3"/><path d="M30.6685547,45 C22.8829688,45 16.5714844,38.6898047 16.5714844,30.9057422 C16.5714844,28.7851172 17.0428125,26.7755859 17.881875,24.9716016 L29.2787109,35.9677734 C29.2787109,35.9677734 32.0103516,31.1544141 36.4265625,28.9205859 L25.4104688,17.8286719 C27.0357422,17.1747656 28.8092578,16.8113672 30.6685547,16.8113672 C38.4541406,16.8113672 44.765625,23.1216797 44.765625,30.9057422 C44.765625,38.6898047 38.4541406,45 30.6685547,45 Z M38.2051172,37.2677344 C37.8885937,35.9151562 37.32,33.4863281 37.32,33.4863281 C37.32,33.4863281 35.0398828,34.8769922 33.9446484,36.8610937 L37.5769922,37.9101562 C37.5769922,37.9101562 38.4492188,38.3102344 38.2051172,37.2677344 Z M17.881875,24.9716016 L15.4638281,22.6385156 C15.4638281,22.6385156 15.1267969,22.1342578 15.2711719,21.8080078 C16.8171094,18.3124219 20.6035547,15.8741016 21.9465234,15.0941016 C22.3694531,14.8484766 22.7607422,15.1605469 22.7607422,15.1605469 L25.4104688,17.8286719 C22.0842188,19.1669531 19.3871484,21.7348828 17.881875,24.9716016 Z" fill="#FFFFFF"/></g></svg>