<svg xmlns="http://www.w3.org/2000/svg" viewBox="2.1399993896484375 2.1500000953674316 11.860000610351562 11.850000381469727"><g id="rss_off"><path d="M13.15,2.15L9.87,5.43C7.98,3.92,5.6,3,3,3v1c2.32,0,4.46,0.8,6.15,2.14L7,8.29C5.87,7.49,4.5,7,3,7v1
		c1.22,0,2.34,0.38,3.28,1.01l-2.01,2.01c-0.64,0.1-1.15,0.6-1.25,1.25l-0.88,0.88l0.71,0.71l11-11L13.15,2.15z"/><path d="M5.99,12.59l-1.4,1.4C5.35,13.94,5.94,13.35,5.99,12.59z"/><path d="M7.96,10.63C8.61,11.59,9,12.75,9,14h1c0-1.53-0.5-2.94-1.33-4.09L7.96,10.63z"/><path d="M11.53,7.06l-0.72,0.72C12.18,9.48,13,11.65,13,14h1C14,11.37,13.07,8.95,11.53,7.06z"/></g></svg>