<svg xmlns="http://www.w3.org/2000/svg" viewBox="3 2 10 12"><g id="message_bubble_question-filled"><path d="M3,2v12l3-3h7V2H3z M8.02,9C7.77,9,7.57,8.8,7.57,8.56c0-0.24,0.2-0.44,0.44-0.44s0.44,0.2,0.44,0.44
	C8.46,8.8,8.26,9,8.02,9z M8.92,6.46c-0.23,0.21-0.46,0.39-0.51,0.7L8.39,7.25H7.62l0.01-0.12c0.06-0.51,0.35-0.77,0.65-0.99
	c0.23-0.18,0.45-0.34,0.45-0.65c0-0.22-0.1-0.42-0.28-0.56C8.27,4.78,8.04,4.73,7.82,4.79C7.56,4.85,7.36,5.08,7.3,5.37L7.27,5.5
	H6.5l0.03-0.18C6.61,4.7,7.03,4.2,7.6,4.06c0.46-0.13,0.95-0.04,1.32,0.25C9.29,4.59,9.5,5.01,9.5,5.48C9.5,5.96,9.2,6.21,8.92,6.46
	z"/></g></svg>