<svg xmlns="http://www.w3.org/2000/svg" viewBox="2 4 20 16"><g id="people_2"><path d="M17.5 9.5a2.5 2.5 0 0 0-5 0 2.5 2.5 0 0 0 5 0zM15 11c-.83 0-1.5-.67-1.5-1.5S14.17 8 15 8s1.5.67 1.5 1.5S15.83 11 15 11zm-3.5-1.5a2.5 2.5 0 0 0-5 0 2.5 2.5 0 0 0 5 0zM9 11c-.83 0-1.5-.67-1.5-1.5S8.17 8 9 8s1.5.67 1.5 1.5S9.83 11 9 11zM2 4v16h20V4H2zm19 15H3V5h18v14zm-1-2c0-2.76-2.24-5-5-5-1.13 0-2.16.39-3 1.02A4.98 4.98 0 0 0 9 12c-2.76 0-5 2.24-5 5h16zm-5-4c1.86 0 3.43 1.28 3.87 3h-7.75c.45-1.72 2.02-3 3.88-3zm-9.87 3c.45-1.72 2.01-3 3.87-3 .84 0 1.61.27 2.26.71-.57.65-.99 1.45-1.16 2.33 0-.02 0-.03.01-.05H5.13z"/></g></svg>