<svg xmlns="http://www.w3.org/2000/svg" viewBox="2 2 20 20"><g id="podcast-filled"><path fill-rule="evenodd" clip-rule="evenodd" d="M13,13.72V22h-2v-8.28c-0.6-0.35-1-0.98-1-1.72c0-1.1,0.9-2,2-2s2,0.9,2,2
	C14,12.74,13.6,13.38,13,13.72z M7.77,16.25l1.42-1.42C8.45,14.11,8,13.11,8,12c0-2.21,1.79-4,4-4s4,1.79,4,4
	c0,1.11-0.45,2.11-1.18,2.83l1.42,1.42C17.33,15.16,18,13.66,18,12c0-3.31-2.69-6-6-6s-6,2.69-6,6C6,13.66,6.67,15.16,7.77,16.25z
	 M4.94,19.08l1.42-1.42C4.9,16.21,4,14.21,4,12c0-4.41,3.59-8,8-8s8,3.59,8,8c0,2.21-0.9,4.21-2.35,5.66l1.42,1.42
	C20.88,17.27,22,14.77,22,12c0-5.52-4.48-10-10-10S2,6.48,2,12C2,14.77,3.12,17.27,4.94,19.08z"/></g></svg>