<svg xmlns="http://www.w3.org/2000/svg" viewBox="4 2 16 20"><g height="24" width="24" id="message_bubble_question"><path d="M4 2v20l5-5h11V2H4zm8.1 12c-.43 0-.79-.35-.79-.79 0-.43.35-.79.79-.79s.79.35.79.79c0 .44-.35.79-.79.79zm1.62-4.46c-.42.38-.81.73-.91 1.29l-.04.17h-1.38l.02-.23c.11-.95.63-1.42 1.16-1.84.41-.32.8-.62.8-1.21 0-.41-.18-.78-.5-1.04-.32-.25-.73-.34-1.12-.23-.46.13-.82.55-.93 1.09l-.04.23H9.4l.05-.34c.16-1.13.91-2.05 1.91-2.32a2.63 2.63 0 0 1 2.35.46 2.72 2.72 0 0 1 1.05 2.17c-.01.87-.54 1.34-1.04 1.8z"/></g></svg>