<svg xmlns="http://www.w3.org/2000/svg" viewBox="0.0016965866088867188 0.675000011920929 191.96047973632812 193.88006591796875"><g transform="translate(0 -.341)"><path d="M96.24.675c-17.36 0-24.86 17.956-38.835 24.25-9.382 4.226-31.732.669-39.879 14.75C9.38 53.757 20.86 65.52 15.12 74.544 9.38 83.568-.48 85.263.02 99.774c.5 14.51 20.374 19.494 22.32 30.4 1.946 10.908-4.853 13.059 0 28.997s18.193 17.626 35.867 18.065c17.673.439 14.368 12.34 32.52 16.64 18.153 4.299 29.831-13.08 43.992-16.64 14.161-3.561 24.004.189 32.504-11.311 8.5-11.5-2.77-30.212 3.23-38.855 6-8.643 22.896-13.127 21.418-30.728-1.167-13.883-11.99-16.16-15.24-26.777-3.438-11.225 4.75-21.285-4.25-33.253-10.85-14.428-29.882-3.073-41.805-14.656C118.653 10.072 113.88.675 96.24.675" fill="#6F38D4" mask="url(#offline_no_content__b)"/></g></svg>